<ttFont>
    <TTGlyph name=".notdef" xMin="46" yMin="243" xMax="156" yMax="367">
      <contour>
        <pt x="46" y="243" on="1"/>
        <pt x="46" y="367" on="1"/>
        <pt x="156" y="367" on="1"/>
        <pt x="156" y="243" on="1"/>
      </contour>
    </TTGlyph>
    <TTGlyph name="A" xMin="1" yMin="0" xMax="536" yMax="700">
      <contour>
        <pt x="418" y="0" on="1"/>
        <pt x="367" y="175" on="1"/>
        <pt x="170" y="175" on="1"/>
        <pt x="119" y="0" on="1"/>
        <pt x="1" y="0" on="1"/>
        <pt x="215" y="700" on="1"/>
        <pt x="322" y="700" on="1"/>
        <pt x="536" y="0" on="1"/>
      </contour>
      <contour>
        <pt x="268" y="520" on="1"/>
        <pt x="210" y="287" on="1"/>
        <pt x="328" y="287" on="1"/>
      </contour>
    </TTGlyph>
    <TTGlyph name="A.sc" xMin="25" yMin="0" xMax="501" yMax="574">
      <contour>
        <pt x="389" y="0" on="1"/>
        <pt x="345" y="134" on="1"/>
        <pt x="181" y="134" on="1"/>
        <pt x="138" y="0" on="1"/>
        <pt x="25" y="0" on="1"/>
        <pt x="213" y="574" on="1"/>
        <pt x="313" y="574" on="1"/>
        <pt x="501" y="0" on="1"/>
      </contour>
      <contour>
        <pt x="262" y="393" on="1"/>
        <pt x="219" y="244" on="1"/>
        <pt x="307" y="244" on="1"/>
      </contour>
    </TTGlyph>
    <TTGlyph name="AE" xMin="-11" yMin="0" xMax="716" yMax="700">
      <contour>
        <pt x="341" y="0" on="1"/>
        <pt x="341" y="172" on="1"/>
        <pt x="177" y="172" on="1"/>
        <pt x="108" y="0" on="1"/>
        <pt x="-11" y="0" on="1"/>
        <pt x="283" y="700" on="1"/>
        <pt x="709" y="700" on="1"/>
        <pt x="709" y="588" on="1"/>
        <pt x="456" y="588" on="1"/>
        <pt x="456" y="421" on="1"/>
        <pt x="650" y="421" on="1"/>
        <pt x="650" y="309" on="1"/>
        <pt x="456" y="309" on="1"/>
        <pt x="456" y="112" on="1"/>
        <pt x="716" y="112" on="1"/>
        <pt x="716" y="0" on="1"/>
      </contour>
      <contour>
        <pt x="341" y="585" on="1"/>
        <pt x="228" y="286" on="1"/>
        <pt x="341" y="286" on="1"/>
      </contour>
    </TTGlyph>
    <TTGlyph name="AE.sc" xMin="14" yMin="0" xMax="659" yMax="574">
      <contour>
        <pt x="327" y="0" on="1"/>
        <pt x="327" y="136" on="1"/>
        <pt x="187" y="136" on="1"/>
        <pt x="130" y="0" on="1"/>
        <pt x="14" y="0" on="1"/>
        <pt x="273" y="574" on="1"/>
        <pt x="652" y="574" on="1"/>
        <pt x="652" y="464" on="1"/>
        <pt x="433" y="464" on="1"/>
        <pt x="433" y="354" on="1"/>
        <pt x="601" y="354" on="1"/>
        <pt x="601" y="245" on="1"/>
        <pt x="433" y="245" on="1"/>
        <pt x="433" y="110" on="1"/>
        <pt x="659" y="110" on="1"/>
        <pt x="659" y="0" on="1"/>
      </contour>
      <contour>
        <pt x="327" y="462" on="1"/>
        <pt x="238" y="245" on="1"/>
        <pt x="327" y="245" on="1"/>
      </contour>
    </TTGlyph>
    <TTGlyph name="Aacute" xMin="1" yMin="0" xMax="536" yMax="947">
      <component glyphName="A" x="0" y="0" flags="0x204"/>
      <component glyphName="acute" x="138" y="203" flags="0x4"/>
    </TTGlyph>
    <TTGlyph name="Acircumflex" xMin="1" yMin="0" xMax="536" yMax="951">
      <component glyphName="A" x="0" y="0" flags="0x204"/>
      <component glyphName="circumflex" x="77" y="203" flags="0x4"/>
    </TTGlyph>
    <TTGlyph name="Adieresis" xMin="1" yMin="0" xMax="536" yMax="903">
      <component glyphName="A" x="0" y="0" flags="0x204"/>
      <component glyphName="dieresis" x="87" y="203" flags="0x4"/>
    </TTGlyph>
    <TTGlyph name="Agrave" xMin="1" yMin="0" xMax="536" yMax="947">
      <component glyphName="A" x="0" y="0" flags="0x204"/>
      <component glyphName="grave" x="138" y="203" flags="0x4"/>
    </TTGlyph>
    <TTGlyph name="Aring" xMin="1" yMin="0" xMax="536" yMax="958">
      <component glyphName="A" x="0" y="0" flags="0x204"/>
      <component glyphName="ring" x="143" y="203" flags="0x4"/>
    </TTGlyph>
    <TTGlyph name="Atilde" xMin="1" yMin="0" xMax="536" yMax="918">
      <component glyphName="A" x="0" y="0" flags="0x204"/>
      <component glyphName="tilde" x="41" y="203" flags="0x4"/>
    </TTGlyph>
    <TTGlyph name="B" xMin="45" yMin="0" xMax="496" yMax="700">
      <contour>
        <pt x="45" y="0" on="1"/>
        <pt x="45" y="700" on="1"/>
        <pt x="211" y="700" on="1"/>
        <pt x="263" y="700" on="0"/>
        <pt x="348" y="687" on="0"/>
        <pt x="409" y="649" on="0"/>
        <pt x="442" y="579" on="0"/>
        <pt x="442" y="522" on="1"/>
        <pt x="442" y="475" on="0"/>
        <pt x="417" y="405" on="0"/>
        <pt x="391" y="374" on="1"/>
        <pt x="442" y="349" on="0"/>
        <pt x="496" y="270" on="0"/>
        <pt x="496" y="207" on="1"/>
        <pt x="496" y="144" on="0"/>
        <pt x="457" y="64" on="0"/>
        <pt x="395" y="17" on="0"/>
        <pt x="318" y="0" on="0"/>
        <pt x="280" y="0" on="1"/>
      </contour>
      <contour>
        <pt x="158" y="598" on="1"/>
        <pt x="158" y="416" on="1"/>
        <pt x="267" y="416" on="1"/>
        <pt x="278" y="416" on="0"/>
        <pt x="302" y="422" on="0"/>
        <pt x="323" y="442" on="0"/>
        <pt x="337" y="477" on="0"/>
        <pt x="337" y="507" on="1"/>
        <pt x="337" y="536" on="0"/>
        <pt x="326" y="572" on="0"/>
        <pt x="306" y="591" on="0"/>
        <pt x="276" y="598" on="0"/>
        <pt x="258" y="598" on="1"/>
      </contour>
      <contour>
        <pt x="158" y="320" on="1"/>
        <pt x="158" y="102" on="1"/>
        <pt x="270" y="102" on="1"/>
        <pt x="295" y="102" on="0"/>
        <pt x="336" y="111" on="0"/>
        <pt x="364" y="135" on="0"/>
        <pt x="380" y="177" on="0"/>
        <pt x="380" y="209" on="1"/>
        <pt x="380" y="242" on="0"/>
        <pt x="363" y="284" on="0"/>
        <pt x="334" y="310" on="0"/>
        <pt x="294" y="320" on="0"/>
        <pt x="271" y="320" on="1"/>
      </contour>
    </TTGlyph>
    <TTGlyph name="B.sc" xMin="63" yMin="0" xMax="471" yMax="574">
      <contour>
        <pt x="63" y="0" on="1"/>
        <pt x="63" y="574" on="1"/>
        <pt x="217" y="574" on="1"/>
        <pt x="263" y="574" on="0"/>
        <pt x="338" y="564" on="0"/>
        <pt x="392" y="532" on="0"/>
        <pt x="422" y="473" on="0"/>
        <pt x="422" y="425" on="1"/>
        <pt x="422" y="385" on="0"/>
        <pt x="397" y="324" on="0"/>
        <pt x="377" y="307" on="1"/>
        <pt x="421" y="289" on="0"/>
        <pt x="471" y="226" on="0"/>
        <pt x="471" y="168" on="1"/>
        <pt x="471" y="120" on="0"/>
        <pt x="436" y="55" on="0"/>
        <pt x="381" y="16" on="0"/>
        <pt x="312" y="0" on="0"/>
        <pt x="278" y="0" on="1"/>
      </contour>
      <contour>
        <pt x="172" y="480" on="1"/>
        <pt x="172" y="346" on="1"/>
        <pt x="269" y="346" on="1"/>
        <pt x="277" y="346" on="0"/>
        <pt x="296" y="352" on="0"/>
        <pt x="313" y="366" on="0"/>
        <pt x="325" y="390" on="0"/>
        <pt x="325" y="407" on="1"/>
        <pt x="325" y="449" on="0"/>
        <pt x="295" y="480" on="0"/>
        <pt x="266" y="480" on="1"/>
      </contour>
      <contour>
        <pt x="172" y="260" on="1"/>
        <pt x="172" y="95" on="1"/>
        <pt x="277" y="95" on="1"/>
        <pt x="315" y="95" on="0"/>
        <pt x="360" y="133" on="0"/>
        <pt x="360" y="178" on="1"/>
        <pt x="360" y="225" on="0"/>
        <pt x="308" y="260" on="0"/>
        <pt x="267" y="260" on="1"/>
      </contour>
    </TTGlyph>
    <TTGlyph name="C" xMin="30" yMin="-14" xMax="498" yMax="714">
      <contour>
        <pt x="326" y="-14" on="1"/>
        <pt x="262" y="-14" on="0"/>
        <pt x="153" y="38" on="0"/>
        <pt x="74" y="133" on="0"/>
        <pt x="30" y="267" on="0"/>
        <pt x="30" y="350" on="1"/>
        <pt x="30" y="433" on="0"/>
        <pt x="74" y="567" on="0"/>
        <pt x="153" y="662" on="0"/>
        <pt x="262" y="714" on="0"/>
        <pt x="326" y="714" on="1"/>
        <pt x="374" y="714" on="0"/>
        <pt x="465" y="691" on="0"/>
        <pt x="498" y="673" on="1"/>
        <pt x="485" y="562" on="1"/>
        <pt x="447" y="578" on="0"/>
        <pt x="374" y="603" on="0"/>
        <pt x="326" y="603" on="1"/>
        <pt x="283" y="603" on="0"/>
        <pt x="219" y="565" on="0"/>
        <pt x="176" y="497" on="0"/>
        <pt x="154" y="404" on="0"/>
        <pt x="154" y="350" on="1"/>
        <pt x="154" y="296" on="0"/>
        <pt x="176" y="203" on="0"/>
        <pt x="219" y="135" on="0"/>
        <pt x="283" y="97" on="0"/>
        <pt x="326" y="97" on="1"/>
        <pt x="374" y="97" on="0"/>
        <pt x="447" y="121" on="0"/>
        <pt x="485" y="138" on="1"/>
        <pt x="498" y="27" on="1"/>
        <pt x="465" y="8" on="0"/>
        <pt x="374" y="-14" on="0"/>
      </contour>
    </TTGlyph>
    <TTGlyph name="C.sc" xMin="53" yMin="-12" xMax="466" yMax="586">
      <contour>
        <pt x="313" y="-12" on="1"/>
        <pt x="256" y="-12" on="0"/>
        <pt x="161" y="31" on="0"/>
        <pt x="92" y="109" on="0"/>
        <pt x="53" y="220" on="0"/>
        <pt x="53" y="288" on="1"/>
        <pt x="53" y="355" on="0"/>
        <pt x="92" y="465" on="0"/>
        <pt x="161" y="543" on="0"/>
        <pt x="256" y="586" on="0"/>
        <pt x="313" y="586" on="1"/>
        <pt x="355" y="586" on="0"/>
        <pt x="436" y="568" on="0"/>
        <pt x="466" y="552" on="1"/>
        <pt x="454" y="445" on="1"/>
        <pt x="420" y="460" on="0"/>
        <pt x="355" y="477" on="0"/>
        <pt x="313" y="477" on="1"/>
        <pt x="277" y="477" on="0"/>
        <pt x="224" y="449" on="0"/>
        <pt x="189" y="399" on="0"/>
        <pt x="172" y="330" on="0"/>
        <pt x="172" y="288" on="1"/>
        <pt x="172" y="246" on="0"/>
        <pt x="189" y="176" on="0"/>
        <pt x="224" y="126" on="0"/>
        <pt x="277" y="98" on="0"/>
        <pt x="312" y="98" on="1"/>
        <pt x="355" y="98" on="0"/>
        <pt x="420" y="115" on="0"/>
        <pt x="454" y="130" on="1"/>
        <pt x="466" y="22" on="1"/>
        <pt x="437" y="6" on="0"/>
        <pt x="355" y="-12" on="0"/>
      </contour>
    </TTGlyph>
    <TTGlyph name="Ccaron" xMin="30" yMin="-14" xMax="498" yMax="950">
      <component glyphName="C" x="0" y="0" flags="0x204"/>
      <component glyphName="caron" x="70" y="203" flags="0x4"/>
    </TTGlyph>
    <TTGlyph name="Ccedilla" xMin="30" yMin="-193" xMax="498" yMax="714">
      <component glyphName="C" x="0" y="0" flags="0x204"/>
      <component glyphName="cedilla" x="76" y="0" flags="0x4"/>
    </TTGlyph>
    <TTGlyph name="D" xMin="66" yMin="0" xMax="588" yMax="700">
      <contour>
        <pt x="66" y="0" on="1"/>
        <pt x="66" y="700" on="1"/>
        <pt x="291" y="700" on="1"/>
        <pt x="355" y="700" on="0"/>
        <pt x="464" y="652" on="0"/>
        <pt x="544" y="562" on="0"/>
        <pt x="588" y="432" on="0"/>
        <pt x="588" y="350" on="1"/>
        <pt x="588" y="267" on="0"/>
        <pt x="544" y="137" on="0"/>
        <pt x="464" y="47" on="0"/>
        <pt x="355" y="0" on="0"/>
        <pt x="291" y="0" on="1"/>
      </contour>
      <contour>
        <pt x="179" y="589" on="1"/>
        <pt x="179" y="111" on="1"/>
        <pt x="291" y="111" on="1"/>
        <pt x="334" y="111" on="0"/>
        <pt x="399" y="145" on="0"/>
        <pt x="442" y="207" on="0"/>
        <pt x="464" y="296" on="0"/>
        <pt x="464" y="350" on="1"/>
        <pt x="464" y="404" on="0"/>
        <pt x="442" y="493" on="0"/>
        <pt x="399" y="555" on="0"/>
        <pt x="334" y="589" on="0"/>
        <pt x="291" y="589" on="1"/>
      </contour>
    </TTGlyph>
    <TTGlyph name="D.sc" xMin="84" yMin="0" xMax="545" yMax="574">
      <contour>
        <pt x="84" y="0" on="1"/>
        <pt x="84" y="574" on="1"/>
        <pt x="285" y="574" on="1"/>
        <pt x="342" y="574" on="0"/>
        <pt x="437" y="535" on="0"/>
        <pt x="506" y="462" on="0"/>
        <pt x="545" y="355" on="0"/>
        <pt x="545" y="288" on="1"/>
        <pt x="545" y="220" on="0"/>
        <pt x="506" y="113" on="0"/>
        <pt x="437" y="39" on="0"/>
        <pt x="342" y="0" on="0"/>
        <pt x="285" y="0" on="1"/>
      </contour>
      <contour>
        <pt x="193" y="465" on="1"/>
        <pt x="193" y="109" on="1"/>
        <pt x="285" y="109" on="1"/>
        <pt x="357" y="109" on="0"/>
        <pt x="426" y="203" on="0"/>
        <pt x="426" y="288" on="1"/>
        <pt x="426" y="371" on="0"/>
        <pt x="357" y="465" on="0"/>
        <pt x="285" y="465" on="1"/>
      </contour>
    </TTGlyph>
    <TTGlyph name="E" xMin="66" yMin="0" xMax="462" yMax="700">
      <contour>
        <pt x="66" y="0" on="1"/>
        <pt x="66" y="700" on="1"/>
        <pt x="453" y="700" on="1"/>
        <pt x="453" y="588" on="1"/>
        <pt x="182" y="588" on="1"/>
        <pt x="182" y="421" on="1"/>
        <pt x="392" y="421" on="1"/>
        <pt x="392" y="309" on="1"/>
        <pt x="182" y="309" on="1"/>
        <pt x="182" y="112" on="1"/>
        <pt x="462" y="112" on="1"/>
        <pt x="462" y="0" on="1"/>
      </contour>
    </TTGlyph>
    <TTGlyph name="E.sc" xMin="84" yMin="0" xMax="440" yMax="574">
      <contour>
        <pt x="84" y="0" on="1"/>
        <pt x="84" y="574" on="1"/>
        <pt x="432" y="574" on="1"/>
        <pt x="432" y="464" on="1"/>
        <pt x="197" y="464" on="1"/>
        <pt x="197" y="354" on="1"/>
        <pt x="378" y="354" on="1"/>
        <pt x="378" y="245" on="1"/>
        <pt x="197" y="245" on="1"/>
        <pt x="197" y="110" on="1"/>
        <pt x="440" y="110" on="1"/>
        <pt x="440" y="0" on="1"/>
      </contour>
    </TTGlyph>
    <TTGlyph name="Eacute" xMin="66" yMin="0" xMax="462" yMax="947">
      <component glyphName="E" x="0" y="0" flags="0x4"/>
      <component glyphName="acute" x="105" y="203" flags="0x4"/>
    </TTGlyph>
    <TTGlyph name="Ecircumflex" xMin="66" yMin="0" xMax="462" yMax="951">
      <component glyphName="E" x="0" y="0" flags="0x4"/>
      <component glyphName="circumflex" x="43" y="203" flags="0x4"/>
    </TTGlyph>
    <TTGlyph name="Edieresis" xMin="66" yMin="0" xMax="462" yMax="903">
      <component glyphName="E" x="0" y="0" flags="0x4"/>
      <component glyphName="dieresis" x="53" y="203" flags="0x4"/>
    </TTGlyph>
    <TTGlyph name="Egrave" xMin="66" yMin="0" xMax="462" yMax="947">
      <component glyphName="E" x="0" y="0" flags="0x4"/>
      <component glyphName="grave" x="105" y="203" flags="0x4"/>
    </TTGlyph>
    <TTGlyph name="Eth" xMin="-4" yMin="0" xMax="598" yMax="700">
      <contour>
        <pt x="75" y="0" on="1"/>
        <pt x="75" y="303" on="1"/>
        <pt x="-4" y="303" on="1"/>
        <pt x="-4" y="388" on="1"/>
        <pt x="75" y="388" on="1"/>
        <pt x="75" y="700" on="1"/>
        <pt x="301" y="700" on="1"/>
        <pt x="365" y="700" on="0"/>
        <pt x="474" y="652" on="0"/>
        <pt x="553" y="562" on="0"/>
        <pt x="598" y="432" on="0"/>
        <pt x="598" y="350" on="1"/>
        <pt x="598" y="267" on="0"/>
        <pt x="553" y="137" on="0"/>
        <pt x="474" y="47" on="0"/>
        <pt x="365" y="0" on="0"/>
        <pt x="301" y="0" on="1"/>
      </contour>
      <contour>
        <pt x="189" y="589" on="1"/>
        <pt x="189" y="388" on="1"/>
        <pt x="292" y="388" on="1"/>
        <pt x="292" y="303" on="1"/>
        <pt x="189" y="303" on="1"/>
        <pt x="189" y="112" on="1"/>
        <pt x="301" y="112" on="1"/>
        <pt x="387" y="112" on="0"/>
        <pt x="473" y="240" on="0"/>
        <pt x="473" y="350" on="1"/>
        <pt x="473" y="460" on="0"/>
        <pt x="387" y="589" on="0"/>
        <pt x="301" y="589" on="1"/>
      </contour>
    </TTGlyph>
    <TTGlyph name="Euro" xMin="27" yMin="17" xMax="559" yMax="683">
      <contour>
        <pt x="403" y="17" on="1"/>
        <pt x="315" y="17" on="0"/>
        <pt x="182" y="119" on="0"/>
        <pt x="151" y="211" on="1"/>
        <pt x="27" y="211" on="1"/>
        <pt x="53" y="292" on="1"/>
        <pt x="132" y="292" on="1"/>
        <pt x="130" y="306" on="0"/>
        <pt x="129" y="344" on="0"/>
        <pt x="129" y="361" on="1"/>
        <pt x="49" y="361" on="1"/>
        <pt x="77" y="443" on="1"/>
        <pt x="139" y="443" on="1"/>
        <pt x="151" y="499" on="0"/>
        <pt x="199" y="588" on="0"/>
        <pt x="268" y="650" on="0"/>
        <pt x="354" y="683" on="0"/>
        <pt x="403" y="683" on="1"/>
        <pt x="445" y="683" on="0"/>
        <pt x="526" y="665" on="0"/>
        <pt x="559" y="647" on="1"/>
        <pt x="547" y="539" on="1"/>
        <pt x="511" y="556" on="0"/>
        <pt x="444" y="578" on="0"/>
        <pt x="403" y="578" on="1"/>
        <pt x="343" y="578" on="0"/>
        <pt x="270" y="506" on="0"/>
        <pt x="255" y="443" on="1"/>
        <pt x="470" y="443" on="1"/>
        <pt x="442" y="361" on="1"/>
        <pt x="243" y="361" on="1"/>
        <pt x="243" y="354" on="0"/>
        <pt x="243" y="334" on="0"/>
        <pt x="244" y="315" on="0"/>
        <pt x="245" y="297" on="0"/>
        <pt x="247" y="292" on="1"/>
        <pt x="454" y="292" on="1"/>
        <pt x="427" y="211" on="1"/>
        <pt x="271" y="211" on="1"/>
        <pt x="309" y="122" on="0"/>
        <pt x="403" y="122" on="1"/>
        <pt x="444" y="122" on="0"/>
        <pt x="511" y="144" on="0"/>
        <pt x="547" y="161" on="1"/>
        <pt x="559" y="53" on="1"/>
        <pt x="526" y="35" on="0"/>
        <pt x="445" y="17" on="0"/>
      </contour>
    </TTGlyph>
    <TTGlyph name="F" xMin="66" yMin="0" xMax="437" yMax="700">
      <contour>
        <pt x="179" y="588" on="1"/>
        <pt x="179" y="421" on="1"/>
        <pt x="378" y="421" on="1"/>
        <pt x="378" y="309" on="1"/>
        <pt x="179" y="309" on="1"/>
        <pt x="179" y="0" on="1"/>
        <pt x="66" y="0" on="1"/>
        <pt x="66" y="700" on="1"/>
        <pt x="437" y="700" on="1"/>
        <pt x="437" y="588" on="1"/>
      </contour>
    </TTGlyph>
    <TTGlyph name="F.sc" xMin="84" yMin="0" xMax="414" yMax="574">
      <contour>
        <pt x="193" y="464" on="1"/>
        <pt x="193" y="354" on="1"/>
        <pt x="363" y="354" on="1"/>
        <pt x="363" y="245" on="1"/>
        <pt x="193" y="245" on="1"/>
        <pt x="193" y="0" on="1"/>
        <pt x="84" y="0" on="1"/>
        <pt x="84" y="574" on="1"/>
        <pt x="414" y="574" on="1"/>
        <pt x="414" y="464" on="1"/>
      </contour>
    </TTGlyph>
    <TTGlyph name="G" xMin="30" yMin="-14" xMax="531" yMax="714">
      <contour>
        <pt x="324" y="-14" on="1"/>
        <pt x="261" y="-14" on="0"/>
        <pt x="153" y="38" on="0"/>
        <pt x="74" y="133" on="0"/>
        <pt x="30" y="268" on="0"/>
        <pt x="30" y="351" on="1"/>
        <pt x="30" y="433" on="0"/>
        <pt x="74" y="568" on="0"/>
        <pt x="154" y="662" on="0"/>
        <pt x="264" y="714" on="0"/>
        <pt x="330" y="714" on="1"/>
        <pt x="352" y="714" on="0"/>
        <pt x="401" y="708" on="0"/>
        <pt x="450" y="698" on="0"/>
        <pt x="494" y="682" on="0"/>
        <pt x="511" y="673" on="1"/>
        <pt x="498" y="563" on="1"/>
        <pt x="463" y="580" on="0"/>
        <pt x="373" y="603" on="0"/>
        <pt x="333" y="603" on="1"/>
        <pt x="287" y="603" on="0"/>
        <pt x="219" y="564" on="0"/>
        <pt x="175" y="497" on="0"/>
        <pt x="154" y="405" on="0"/>
        <pt x="154" y="352" on="1"/>
        <pt x="154" y="296" on="0"/>
        <pt x="177" y="203" on="0"/>
        <pt x="222" y="135" on="0"/>
        <pt x="291" y="97" on="0"/>
        <pt x="336" y="97" on="1"/>
        <pt x="376" y="97" on="0"/>
        <pt x="417" y="111" on="1"/>
        <pt x="417" y="251" on="1"/>
        <pt x="354" y="251" on="1"/>
        <pt x="354" y="351" on="1"/>
        <pt x="531" y="351" on="1"/>
        <pt x="531" y="39" on="1"/>
        <pt x="514" y="28" on="0"/>
        <pt x="465" y="9" on="0"/>
        <pt x="409" y="-6" on="0"/>
        <pt x="350" y="-14" on="0"/>
      </contour>
    </TTGlyph>
    <TTGlyph name="G.sc" xMin="53" yMin="-12" xMax="495" yMax="586">
      <contour>
        <pt x="313" y="-12" on="1"/>
        <pt x="257" y="-12" on="0"/>
        <pt x="161" y="31" on="0"/>
        <pt x="92" y="109" on="0"/>
        <pt x="53" y="220" on="0"/>
        <pt x="53" y="288" on="1"/>
        <pt x="53" y="355" on="0"/>
        <pt x="92" y="465" on="0"/>
        <pt x="161" y="543" on="0"/>
        <pt x="258" y="586" on="0"/>
        <pt x="317" y="586" on="1"/>
        <pt x="336" y="586" on="0"/>
        <pt x="380" y="581" on="0"/>
        <pt x="424" y="572" on="0"/>
        <pt x="463" y="560" on="0"/>
        <pt x="477" y="552" on="1"/>
        <pt x="465" y="443" on="1"/>
        <pt x="436" y="457" on="0"/>
        <pt x="354" y="477" on="0"/>
        <pt x="319" y="477" on="1"/>
        <pt x="281" y="477" on="0"/>
        <pt x="226" y="449" on="0"/>
        <pt x="190" y="399" on="0"/>
        <pt x="172" y="330" on="0"/>
        <pt x="172" y="290" on="1"/>
        <pt x="172" y="247" on="0"/>
        <pt x="191" y="177" on="0"/>
        <pt x="228" y="126" on="0"/>
        <pt x="284" y="98" on="0"/>
        <pt x="320" y="98" on="1"/>
        <pt x="336" y="98" on="0"/>
        <pt x="367" y="102" on="0"/>
        <pt x="386" y="105" on="1"/>
        <pt x="386" y="196" on="1"/>
        <pt x="340" y="196" on="1"/>
        <pt x="340" y="288" on="1"/>
        <pt x="495" y="288" on="1"/>
        <pt x="495" y="32" on="1"/>
        <pt x="481" y="23" on="0"/>
        <pt x="438" y="7" on="0"/>
        <pt x="388" y="-5" on="0"/>
        <pt x="335" y="-12" on="0"/>
      </contour>
    </TTGlyph>
    <TTGlyph name="H" xMin="66" yMin="0" xMax="570" yMax="700">
      <contour>
        <pt x="457" y="0" on="1"/>
        <pt x="457" y="309" on="1"/>
        <pt x="179" y="309" on="1"/>
        <pt x="179" y="0" on="1"/>
        <pt x="66" y="0" on="1"/>
        <pt x="66" y="700" on="1"/>
        <pt x="179" y="700" on="1"/>
        <pt x="179" y="422" on="1"/>
        <pt x="457" y="422" on="1"/>
        <pt x="457" y="700" on="1"/>
        <pt x="570" y="700" on="1"/>
        <pt x="570" y="0" on="1"/>
      </contour>
    </TTGlyph>
    <TTGlyph name="H.sc" xMin="84" yMin="0" xMax="530" yMax="574">
      <contour>
        <pt x="420" y="0" on="1"/>
        <pt x="420" y="245" on="1"/>
        <pt x="193" y="245" on="1"/>
        <pt x="193" y="0" on="1"/>
        <pt x="84" y="0" on="1"/>
        <pt x="84" y="574" on="1"/>
        <pt x="193" y="574" on="1"/>
        <pt x="193" y="354" on="1"/>
        <pt x="420" y="354" on="1"/>
        <pt x="420" y="574" on="1"/>
        <pt x="530" y="574" on="1"/>
        <pt x="530" y="0" on="1"/>
      </contour>
    </TTGlyph>
    <TTGlyph name="I" xMin="64" yMin="0" xMax="178" yMax="700">
      <contour>
        <pt x="64" y="0" on="1"/>
        <pt x="64" y="700" on="1"/>
        <pt x="178" y="700" on="1"/>
        <pt x="178" y="0" on="1"/>
      </contour>
    </TTGlyph>
    <TTGlyph name="I.sc" xMin="79" yMin="0" xMax="188" yMax="574">
      <contour>
        <pt x="79" y="0" on="1"/>
        <pt x="79" y="574" on="1"/>
        <pt x="188" y="574" on="1"/>
        <pt x="188" y="0" on="1"/>
      </contour>
    </TTGlyph>
    <TTGlyph name="Iacute" xMin="42" yMin="0" xMax="203" yMax="947">
      <component glyphName="I" x="0" y="0" flags="0x204"/>
      <component glyphName="acute" x="-8" y="203" flags="0x4"/>
    </TTGlyph>
    <TTGlyph name="Icircumflex" xMin="-4" yMin="0" xMax="249" yMax="951">
      <component glyphName="I" x="0" y="0" flags="0x204"/>
      <component glyphName="circumflex" x="-69" y="203" flags="0x4"/>
    </TTGlyph>
    <TTGlyph name="Idieresis" xMin="16" yMin="0" xMax="229" yMax="903">
      <component glyphName="I" x="0" y="0" flags="0x204"/>
      <component glyphName="dieresis" x="-59" y="203" flags="0x4"/>
    </TTGlyph>
    <TTGlyph name="Igrave" xMin="42" yMin="0" xMax="203" yMax="947">
      <component glyphName="I" x="0" y="0" flags="0x204"/>
      <component glyphName="grave" x="-8" y="203" flags="0x4"/>
    </TTGlyph>
    <TTGlyph name="J" xMin="-3" yMin="-172" xMax="178" yMax="700">
      <contour>
        <pt x="6" y="-172" on="1"/>
        <pt x="-3" y="-88" on="1"/>
        <pt x="22" y="-88" on="1"/>
        <pt x="45" y="-88" on="0"/>
        <pt x="64" y="-45" on="0"/>
        <pt x="64" y="2" on="1"/>
        <pt x="64" y="700" on="1"/>
        <pt x="178" y="700" on="1"/>
        <pt x="178" y="-26" on="1"/>
        <pt x="178" y="-99" on="0"/>
        <pt x="102" y="-172" on="0"/>
        <pt x="39" y="-172" on="1"/>
      </contour>
    </TTGlyph>
    <TTGlyph name="J.sc" xMin="22" yMin="-141" xMax="186" yMax="574">
      <contour>
        <pt x="30" y="-141" on="1"/>
        <pt x="22" y="-53" on="1"/>
        <pt x="51" y="-53" on="1"/>
        <pt x="77" y="-53" on="0"/>
        <pt x="77" y="4" on="1"/>
        <pt x="77" y="574" on="1"/>
        <pt x="186" y="574" on="1"/>
        <pt x="186" y="-18" on="1"/>
        <pt x="186" y="-81" on="0"/>
        <pt x="118" y="-141" on="0"/>
        <pt x="64" y="-141" on="1"/>
      </contour>
    </TTGlyph>
    <TTGlyph name="K" xMin="63" yMin="0" xMax="533" yMax="700">
      <contour>
        <pt x="405" y="0" on="1"/>
        <pt x="197" y="370" on="1"/>
        <pt x="405" y="700" on="1"/>
        <pt x="533" y="700" on="1"/>
        <pt x="325" y="370" on="1"/>
        <pt x="533" y="0" on="1"/>
      </contour>
      <contour>
        <pt x="63" y="0" on="1"/>
        <pt x="63" y="700" on="1"/>
        <pt x="176" y="700" on="1"/>
        <pt x="176" y="0" on="1"/>
      </contour>
    </TTGlyph>
    <TTGlyph name="K.sc" xMin="73" yMin="0" xMax="500" yMax="574">
      <contour>
        <pt x="375" y="0" on="1"/>
        <pt x="196" y="304" on="1"/>
        <pt x="375" y="574" on="1"/>
        <pt x="500" y="574" on="1"/>
        <pt x="320" y="304" on="1"/>
        <pt x="500" y="0" on="1"/>
      </contour>
      <contour>
        <pt x="73" y="0" on="1"/>
        <pt x="73" y="574" on="1"/>
        <pt x="181" y="574" on="1"/>
        <pt x="181" y="0" on="1"/>
      </contour>
    </TTGlyph>
    <TTGlyph name="L" xMin="66" yMin="0" xMax="424" yMax="700">
      <contour>
        <pt x="66" y="0" on="1"/>
        <pt x="66" y="700" on="1"/>
        <pt x="179" y="700" on="1"/>
        <pt x="179" y="112" on="1"/>
        <pt x="424" y="112" on="1"/>
        <pt x="424" y="0" on="1"/>
      </contour>
    </TTGlyph>
    <TTGlyph name="L.sc" xMin="84" yMin="0" xMax="400" yMax="574">
      <contour>
        <pt x="84" y="0" on="1"/>
        <pt x="84" y="574" on="1"/>
        <pt x="193" y="574" on="1"/>
        <pt x="193" y="110" on="1"/>
        <pt x="400" y="110" on="1"/>
        <pt x="400" y="0" on="1"/>
      </contour>
    </TTGlyph>
    <TTGlyph name="M" xMin="39" yMin="0" xMax="683" yMax="700">
      <contour>
        <pt x="565" y="0" on="1"/>
        <pt x="514" y="482" on="1"/>
        <pt x="362" y="148" on="1"/>
        <pt x="209" y="482" on="1"/>
        <pt x="157" y="0" on="1"/>
        <pt x="39" y="0" on="1"/>
        <pt x="124" y="700" on="1"/>
        <pt x="216" y="700" on="1"/>
        <pt x="362" y="367" on="1"/>
        <pt x="506" y="700" on="1"/>
        <pt x="598" y="700" on="1"/>
        <pt x="683" y="0" on="1"/>
      </contour>
    </TTGlyph>
    <TTGlyph name="M.sc" xMin="56" yMin="0" xMax="633" yMax="574">
      <contour>
        <pt x="519" y="0" on="1"/>
        <pt x="477" y="371" on="1"/>
        <pt x="344" y="116" on="1"/>
        <pt x="212" y="371" on="1"/>
        <pt x="169" y="0" on="1"/>
        <pt x="56" y="0" on="1"/>
        <pt x="131" y="574" on="1"/>
        <pt x="219" y="574" on="1"/>
        <pt x="345" y="319" on="1"/>
        <pt x="469" y="574" on="1"/>
        <pt x="558" y="574" on="1"/>
        <pt x="633" y="0" on="1"/>
      </contour>
    </TTGlyph>
    <TTGlyph name="N" xMin="66" yMin="0" xMax="543" yMax="700">
      <contour>
        <pt x="450" y="0" on="1"/>
        <pt x="179" y="503" on="1"/>
        <pt x="179" y="0" on="1"/>
        <pt x="66" y="0" on="1"/>
        <pt x="66" y="700" on="1"/>
        <pt x="177" y="700" on="1"/>
        <pt x="429" y="226" on="1"/>
        <pt x="429" y="700" on="1"/>
        <pt x="543" y="700" on="1"/>
        <pt x="543" y="0" on="1"/>
      </contour>
    </TTGlyph>
    <TTGlyph name="N.sc" xMin="84" yMin="0" xMax="508" yMax="574">
      <contour>
        <pt x="419" y="0" on="1"/>
        <pt x="193" y="378" on="1"/>
        <pt x="193" y="0" on="1"/>
        <pt x="84" y="0" on="1"/>
        <pt x="84" y="574" on="1"/>
        <pt x="188" y="574" on="1"/>
        <pt x="400" y="219" on="1"/>
        <pt x="400" y="574" on="1"/>
        <pt x="508" y="574" on="1"/>
        <pt x="508" y="0" on="1"/>
      </contour>
    </TTGlyph>
    <TTGlyph name="Ntilde" xMin="66" yMin="0" xMax="543" yMax="918">
      <component glyphName="N" x="0" y="0" flags="0x204"/>
      <component glyphName="tilde" x="77" y="203" flags="0x4"/>
    </TTGlyph>
    <TTGlyph name="O" xMin="30" yMin="-14" xMax="623" yMax="714">
      <contour>
        <pt x="327" y="-14" on="1"/>
        <pt x="262" y="-14" on="0"/>
        <pt x="154" y="38" on="0"/>
        <pt x="74" y="133" on="0"/>
        <pt x="30" y="267" on="0"/>
        <pt x="30" y="350" on="1"/>
        <pt x="30" y="433" on="0"/>
        <pt x="74" y="567" on="0"/>
        <pt x="154" y="662" on="0"/>
        <pt x="262" y="714" on="0"/>
        <pt x="327" y="714" on="1"/>
        <pt x="391" y="714" on="0"/>
        <pt x="500" y="662" on="0"/>
        <pt x="579" y="567" on="0"/>
        <pt x="623" y="433" on="0"/>
        <pt x="623" y="350" on="1"/>
        <pt x="623" y="267" on="0"/>
        <pt x="579" y="133" on="0"/>
        <pt x="500" y="38" on="0"/>
        <pt x="391" y="-14" on="0"/>
      </contour>
      <contour>
        <pt x="327" y="603" on="1"/>
        <pt x="284" y="603" on="0"/>
        <pt x="219" y="565" on="0"/>
        <pt x="176" y="497" on="0"/>
        <pt x="154" y="404" on="0"/>
        <pt x="154" y="350" on="1"/>
        <pt x="154" y="296" on="0"/>
        <pt x="176" y="203" on="0"/>
        <pt x="219" y="135" on="0"/>
        <pt x="284" y="97" on="0"/>
        <pt x="327" y="97" on="1"/>
        <pt x="370" y="97" on="0"/>
        <pt x="435" y="135" on="0"/>
        <pt x="478" y="203" on="0"/>
        <pt x="500" y="296" on="0"/>
        <pt x="500" y="350" on="1"/>
        <pt x="500" y="404" on="0"/>
        <pt x="478" y="497" on="0"/>
        <pt x="435" y="565" on="0"/>
        <pt x="370" y="603" on="0"/>
      </contour>
    </TTGlyph>
    <TTGlyph name="O.sc" xMin="53" yMin="-12" xMax="576" yMax="586">
      <contour>
        <pt x="316" y="-12" on="1"/>
        <pt x="259" y="-12" on="0"/>
        <pt x="162" y="31" on="0"/>
        <pt x="92" y="109" on="0"/>
        <pt x="53" y="220" on="0"/>
        <pt x="53" y="288" on="1"/>
        <pt x="53" y="355" on="0"/>
        <pt x="92" y="465" on="0"/>
        <pt x="162" y="543" on="0"/>
        <pt x="259" y="586" on="0"/>
        <pt x="316" y="586" on="1"/>
        <pt x="373" y="586" on="0"/>
        <pt x="468" y="543" on="0"/>
        <pt x="537" y="465" on="0"/>
        <pt x="576" y="355" on="0"/>
        <pt x="576" y="288" on="1"/>
        <pt x="576" y="220" on="0"/>
        <pt x="537" y="109" on="0"/>
        <pt x="468" y="31" on="0"/>
        <pt x="373" y="-12" on="0"/>
      </contour>
      <contour>
        <pt x="316" y="477" on="1"/>
        <pt x="280" y="477" on="0"/>
        <pt x="226" y="449" on="0"/>
        <pt x="190" y="399" on="0"/>
        <pt x="172" y="330" on="0"/>
        <pt x="172" y="288" on="1"/>
        <pt x="172" y="204" on="0"/>
        <pt x="245" y="98" on="0"/>
        <pt x="316" y="98" on="1"/>
        <pt x="351" y="98" on="0"/>
        <pt x="404" y="126" on="0"/>
        <pt x="439" y="176" on="0"/>
        <pt x="457" y="246" on="0"/>
        <pt x="457" y="288" on="1"/>
        <pt x="457" y="330" on="0"/>
        <pt x="439" y="399" on="0"/>
        <pt x="404" y="449" on="0"/>
        <pt x="351" y="477" on="0"/>
      </contour>
    </TTGlyph>
    <TTGlyph name="OE" xMin="30" yMin="-14" xMax="885" yMax="714">
      <contour>
        <pt x="507" y="0" on="1"/>
        <pt x="507" y="64" on="1"/>
        <pt x="472" y="24" on="0"/>
        <pt x="381" y="-14" on="0"/>
        <pt x="327" y="-14" on="1"/>
        <pt x="262" y="-14" on="0"/>
        <pt x="154" y="38" on="0"/>
        <pt x="74" y="133" on="0"/>
        <pt x="30" y="267" on="0"/>
        <pt x="30" y="350" on="1"/>
        <pt x="30" y="433" on="0"/>
        <pt x="74" y="567" on="0"/>
        <pt x="154" y="662" on="0"/>
        <pt x="262" y="714" on="0"/>
        <pt x="327" y="714" on="1"/>
        <pt x="381" y="714" on="0"/>
        <pt x="472" y="676" on="0"/>
        <pt x="507" y="636" on="1"/>
        <pt x="507" y="700" on="1"/>
        <pt x="877" y="700" on="1"/>
        <pt x="877" y="588" on="1"/>
        <pt x="624" y="588" on="1"/>
        <pt x="624" y="421" on="1"/>
        <pt x="819" y="421" on="1"/>
        <pt x="819" y="309" on="1"/>
        <pt x="624" y="309" on="1"/>
        <pt x="624" y="112" on="1"/>
        <pt x="885" y="112" on="1"/>
        <pt x="885" y="0" on="1"/>
      </contour>
      <contour>
        <pt x="327" y="603" on="1"/>
        <pt x="284" y="603" on="0"/>
        <pt x="219" y="565" on="0"/>
        <pt x="176" y="497" on="0"/>
        <pt x="154" y="404" on="0"/>
        <pt x="154" y="350" on="1"/>
        <pt x="154" y="296" on="0"/>
        <pt x="176" y="203" on="0"/>
        <pt x="219" y="135" on="0"/>
        <pt x="284" y="97" on="0"/>
        <pt x="327" y="97" on="1"/>
        <pt x="370" y="97" on="0"/>
        <pt x="435" y="135" on="0"/>
        <pt x="479" y="203" on="0"/>
        <pt x="501" y="296" on="0"/>
        <pt x="501" y="350" on="1"/>
        <pt x="501" y="404" on="0"/>
        <pt x="479" y="497" on="0"/>
        <pt x="435" y="565" on="0"/>
        <pt x="370" y="603" on="0"/>
      </contour>
    </TTGlyph>
    <TTGlyph name="OE.sc" xMin="53" yMin="-12" xMax="808" yMax="586">
      <contour>
        <pt x="468" y="0" on="1"/>
        <pt x="468" y="39" on="1"/>
        <pt x="444" y="16" on="0"/>
        <pt x="365" y="-12" on="0"/>
        <pt x="317" y="-12" on="1"/>
        <pt x="260" y="-12" on="0"/>
        <pt x="163" y="31" on="0"/>
        <pt x="93" y="109" on="0"/>
        <pt x="53" y="220" on="0"/>
        <pt x="53" y="288" on="1"/>
        <pt x="53" y="355" on="0"/>
        <pt x="93" y="465" on="0"/>
        <pt x="163" y="543" on="0"/>
        <pt x="260" y="586" on="0"/>
        <pt x="317" y="586" on="1"/>
        <pt x="365" y="586" on="0"/>
        <pt x="444" y="558" on="0"/>
        <pt x="468" y="536" on="1"/>
        <pt x="468" y="574" on="1"/>
        <pt x="802" y="574" on="1"/>
        <pt x="802" y="464" on="1"/>
        <pt x="581" y="464" on="1"/>
        <pt x="581" y="354" on="1"/>
        <pt x="751" y="354" on="1"/>
        <pt x="751" y="245" on="1"/>
        <pt x="581" y="245" on="1"/>
        <pt x="581" y="110" on="1"/>
        <pt x="808" y="110" on="1"/>
        <pt x="808" y="0" on="1"/>
      </contour>
      <contour>
        <pt x="317" y="477" on="1"/>
        <pt x="281" y="477" on="0"/>
        <pt x="227" y="449" on="0"/>
        <pt x="191" y="399" on="0"/>
        <pt x="173" y="329" on="0"/>
        <pt x="173" y="288" on="1"/>
        <pt x="173" y="204" on="0"/>
        <pt x="246" y="98" on="0"/>
        <pt x="317" y="98" on="1"/>
        <pt x="353" y="98" on="0"/>
        <pt x="407" y="126" on="0"/>
        <pt x="443" y="176" on="0"/>
        <pt x="462" y="246" on="0"/>
        <pt x="462" y="288" on="1"/>
        <pt x="462" y="329" on="0"/>
        <pt x="443" y="399" on="0"/>
        <pt x="407" y="449" on="0"/>
        <pt x="353" y="477" on="0"/>
      </contour>
    </TTGlyph>
    <TTGlyph name="Oacute" xMin="30" yMin="-14" xMax="623" yMax="947">
      <component glyphName="O" x="0" y="0" flags="0x204"/>
      <component glyphName="acute" x="196" y="203" flags="0x4"/>
    </TTGlyph>
    <TTGlyph name="Ocircumflex" xMin="30" yMin="-14" xMax="623" yMax="951">
      <component glyphName="O" x="0" y="0" flags="0x204"/>
      <component glyphName="circumflex" x="135" y="203" flags="0x4"/>
    </TTGlyph>
    <TTGlyph name="Odieresis" xMin="30" yMin="-14" xMax="623" yMax="903">
      <component glyphName="O" x="0" y="0" flags="0x204"/>
      <component glyphName="dieresis" x="145" y="203" flags="0x4"/>
    </TTGlyph>
    <TTGlyph name="Ograve" xMin="30" yMin="-14" xMax="623" yMax="947">
      <component glyphName="O" x="0" y="0" flags="0x204"/>
      <component glyphName="grave" x="196" y="203" flags="0x4"/>
    </TTGlyph>
    <TTGlyph name="Oslash" xMin="30" yMin="-31" xMax="623" yMax="716">
      <contour>
        <pt x="327" y="-13" on="1"/>
        <pt x="289" y="-13" on="0"/>
        <pt x="219" y="5" on="0"/>
        <pt x="190" y="25" on="1"/>
        <pt x="159" y="-31" on="1"/>
        <pt x="40" y="-31" on="1"/>
        <pt x="111" y="83" on="1"/>
        <pt x="73" y="134" on="0"/>
        <pt x="30" y="268" on="0"/>
        <pt x="30" y="350" on="1"/>
        <pt x="30" y="433" on="0"/>
        <pt x="74" y="567" on="0"/>
        <pt x="154" y="662" on="0"/>
        <pt x="262" y="714" on="0"/>
        <pt x="327" y="714" on="1"/>
        <pt x="363" y="714" on="0"/>
        <pt x="430" y="696" on="0"/>
        <pt x="459" y="678" on="1"/>
        <pt x="480" y="716" on="1"/>
        <pt x="600" y="716" on="1"/>
        <pt x="540" y="619" on="1"/>
        <pt x="579" y="569" on="0"/>
        <pt x="623" y="434" on="0"/>
        <pt x="623" y="350" on="1"/>
        <pt x="623" y="267" on="0"/>
        <pt x="579" y="133" on="0"/>
        <pt x="500" y="39" on="0"/>
        <pt x="391" y="-13" on="0"/>
      </contour>
      <contour>
        <pt x="254" y="119" on="1"/>
        <pt x="281" y="99" on="0"/>
        <pt x="327" y="99" on="1"/>
        <pt x="370" y="99" on="0"/>
        <pt x="434" y="137" on="0"/>
        <pt x="478" y="204" on="0"/>
        <pt x="500" y="297" on="0"/>
        <pt x="500" y="351" on="1"/>
        <pt x="500" y="396" on="0"/>
        <pt x="484" y="482" on="0"/>
        <pt x="470" y="516" on="1"/>
      </contour>
      <contour>
        <pt x="327" y="602" on="1"/>
        <pt x="284" y="602" on="0"/>
        <pt x="219" y="564" on="0"/>
        <pt x="175" y="497" on="0"/>
        <pt x="153" y="404" on="0"/>
        <pt x="153" y="350" on="1"/>
        <pt x="153" y="305" on="0"/>
        <pt x="167" y="226" on="0"/>
        <pt x="181" y="188" on="1"/>
        <pt x="395" y="582" on="1"/>
        <pt x="367" y="602" on="0"/>
      </contour>
    </TTGlyph>
    <TTGlyph name="Otilde" xMin="30" yMin="-14" xMax="623" yMax="918">
      <component glyphName="O" x="0" y="0" flags="0x204"/>
      <component glyphName="tilde" x="101" y="203" flags="0x4"/>
    </TTGlyph>
    <TTGlyph name="P" xMin="64" yMin="0" xMax="495" yMax="700">
      <contour>
        <pt x="177" y="235" on="1"/>
        <pt x="177" y="0" on="1"/>
        <pt x="64" y="0" on="1"/>
        <pt x="64" y="700" on="1"/>
        <pt x="232" y="700" on="1"/>
        <pt x="297" y="700" on="0"/>
        <pt x="395" y="685" on="0"/>
        <pt x="461" y="638" on="0"/>
        <pt x="495" y="551" on="0"/>
        <pt x="495" y="479" on="1"/>
        <pt x="495" y="406" on="0"/>
        <pt x="452" y="311" on="0"/>
        <pt x="388" y="256" on="0"/>
        <pt x="314" y="235" on="0"/>
        <pt x="282" y="235" on="1"/>
      </contour>
      <contour>
        <pt x="177" y="600" on="1"/>
        <pt x="177" y="344" on="1"/>
        <pt x="268" y="344" on="1"/>
        <pt x="328" y="344" on="0"/>
        <pt x="381" y="406" on="0"/>
        <pt x="381" y="477" on="1"/>
        <pt x="381" y="510" on="0"/>
        <pt x="371" y="556" on="0"/>
        <pt x="345" y="586" on="0"/>
        <pt x="301" y="600" on="0"/>
        <pt x="267" y="600" on="1"/>
      </contour>
    </TTGlyph>
    <TTGlyph name="P.sc" xMin="79" yMin="0" xMax="468" yMax="574">
      <contour>
        <pt x="187" y="185" on="1"/>
        <pt x="187" y="0" on="1"/>
        <pt x="79" y="0" on="1"/>
        <pt x="79" y="574" on="1"/>
        <pt x="221" y="574" on="1"/>
        <pt x="284" y="574" on="0"/>
        <pt x="377" y="562" on="0"/>
        <pt x="438" y="523" on="0"/>
        <pt x="468" y="451" on="0"/>
        <pt x="468" y="392" on="1"/>
        <pt x="468" y="328" on="0"/>
        <pt x="428" y="248" on="0"/>
        <pt x="369" y="202" on="0"/>
        <pt x="300" y="185" on="0"/>
        <pt x="272" y="185" on="1"/>
      </contour>
      <contour>
        <pt x="187" y="482" on="1"/>
        <pt x="187" y="291" on="1"/>
        <pt x="259" y="291" on="1"/>
        <pt x="285" y="291" on="0"/>
        <pt x="323" y="300" on="0"/>
        <pt x="347" y="323" on="0"/>
        <pt x="359" y="362" on="0"/>
        <pt x="359" y="391" on="1"/>
        <pt x="359" y="414" on="0"/>
        <pt x="351" y="448" on="0"/>
        <pt x="330" y="471" on="0"/>
        <pt x="294" y="482" on="0"/>
        <pt x="265" y="482" on="1"/>
      </contour>
    </TTGlyph>
    <TTGlyph name="Q" xMin="30" yMin="-14" xMax="625" yMax="714">
      <contour>
        <pt x="559" y="-6" on="1"/>
        <pt x="499" y="50" on="1"/>
        <pt x="464" y="18" on="0"/>
        <pt x="377" y="-14" on="0"/>
        <pt x="327" y="-14" on="1"/>
        <pt x="262" y="-14" on="0"/>
        <pt x="154" y="38" on="0"/>
        <pt x="74" y="133" on="0"/>
        <pt x="30" y="267" on="0"/>
        <pt x="30" y="350" on="1"/>
        <pt x="30" y="433" on="0"/>
        <pt x="74" y="567" on="0"/>
        <pt x="154" y="662" on="0"/>
        <pt x="262" y="714" on="0"/>
        <pt x="327" y="714" on="1"/>
        <pt x="391" y="714" on="0"/>
        <pt x="500" y="662" on="0"/>
        <pt x="579" y="567" on="0"/>
        <pt x="623" y="433" on="0"/>
        <pt x="623" y="350" on="1"/>
        <pt x="623" y="285" on="0"/>
        <pt x="596" y="172" on="0"/>
        <pt x="572" y="124" on="1"/>
        <pt x="625" y="74" on="1"/>
      </contour>
      <contour>
        <pt x="327" y="603" on="1"/>
        <pt x="284" y="603" on="0"/>
        <pt x="219" y="565" on="0"/>
        <pt x="176" y="497" on="0"/>
        <pt x="154" y="404" on="0"/>
        <pt x="154" y="350" on="1"/>
        <pt x="154" y="296" on="0"/>
        <pt x="176" y="203" on="0"/>
        <pt x="219" y="135" on="0"/>
        <pt x="284" y="97" on="0"/>
        <pt x="327" y="97" on="1"/>
        <pt x="352" y="97" on="0"/>
        <pt x="391" y="110" on="0"/>
        <pt x="408" y="126" on="1"/>
        <pt x="337" y="201" on="1"/>
        <pt x="403" y="281" on="1"/>
        <pt x="477" y="201" on="1"/>
        <pt x="487" y="236" on="0"/>
        <pt x="498" y="311" on="0"/>
        <pt x="498" y="350" on="1"/>
        <pt x="498" y="404" on="0"/>
        <pt x="477" y="497" on="0"/>
        <pt x="434" y="565" on="0"/>
        <pt x="370" y="603" on="0"/>
      </contour>
    </TTGlyph>
    <TTGlyph name="Q.sc" xMin="53" yMin="-12" xMax="582" yMax="586">
      <contour>
        <pt x="518" y="-11" on="1"/>
        <pt x="463" y="37" on="1"/>
        <pt x="436" y="13" on="0"/>
        <pt x="359" y="-12" on="0"/>
        <pt x="316" y="-12" on="1"/>
        <pt x="259" y="-12" on="0"/>
        <pt x="162" y="31" on="0"/>
        <pt x="92" y="109" on="0"/>
        <pt x="53" y="220" on="0"/>
        <pt x="53" y="288" on="1"/>
        <pt x="53" y="355" on="0"/>
        <pt x="92" y="465" on="0"/>
        <pt x="162" y="543" on="0"/>
        <pt x="259" y="586" on="0"/>
        <pt x="316" y="586" on="1"/>
        <pt x="373" y="586" on="0"/>
        <pt x="468" y="543" on="0"/>
        <pt x="537" y="465" on="0"/>
        <pt x="576" y="355" on="0"/>
        <pt x="576" y="288" on="1"/>
        <pt x="576" y="234" on="0"/>
        <pt x="553" y="145" on="0"/>
        <pt x="534" y="111" on="1"/>
        <pt x="582" y="68" on="1"/>
      </contour>
      <contour>
        <pt x="316" y="477" on="1"/>
        <pt x="280" y="477" on="0"/>
        <pt x="226" y="449" on="0"/>
        <pt x="190" y="399" on="0"/>
        <pt x="172" y="330" on="0"/>
        <pt x="172" y="288" on="1"/>
        <pt x="172" y="203" on="0"/>
        <pt x="245" y="98" on="0"/>
        <pt x="316" y="98" on="1"/>
        <pt x="336" y="98" on="0"/>
        <pt x="361" y="106" on="0"/>
        <pt x="372" y="113" on="1"/>
        <pt x="315" y="168" on="1"/>
        <pt x="380" y="247" on="1"/>
        <pt x="441" y="191" on="1"/>
        <pt x="445" y="209" on="0"/>
        <pt x="454" y="258" on="0"/>
        <pt x="454" y="288" on="1"/>
        <pt x="454" y="330" on="0"/>
        <pt x="437" y="399" on="0"/>
        <pt x="403" y="449" on="0"/>
        <pt x="351" y="477" on="0"/>
      </contour>
    </TTGlyph>
    <TTGlyph name="R" xMin="65" yMin="0" xMax="529" yMax="700">
      <contour>
        <pt x="411" y="0" on="1"/>
        <pt x="288" y="264" on="1"/>
        <pt x="177" y="264" on="1"/>
        <pt x="177" y="0" on="1"/>
        <pt x="65" y="0" on="1"/>
        <pt x="65" y="700" on="1"/>
        <pt x="288" y="700" on="1"/>
        <pt x="331" y="700" on="0"/>
        <pt x="407" y="680" on="0"/>
        <pt x="463" y="633" on="0"/>
        <pt x="495" y="555" on="0"/>
        <pt x="495" y="497" on="1"/>
        <pt x="495" y="459" on="0"/>
        <pt x="479" y="398" on="0"/>
        <pt x="451" y="348" on="0"/>
        <pt x="415" y="310" on="0"/>
        <pt x="394" y="295" on="1"/>
        <pt x="529" y="0" on="1"/>
      </contour>
      <contour>
        <pt x="177" y="602" on="1"/>
        <pt x="177" y="375" on="1"/>
        <pt x="253" y="375" on="1"/>
        <pt x="293" y="375" on="0"/>
        <pt x="341" y="390" on="0"/>
        <pt x="368" y="420" on="0"/>
        <pt x="377" y="463" on="0"/>
        <pt x="377" y="491" on="1"/>
        <pt x="377" y="517" on="0"/>
        <pt x="367" y="558" on="0"/>
        <pt x="342" y="587" on="0"/>
        <pt x="296" y="602" on="0"/>
        <pt x="260" y="602" on="1"/>
      </contour>
    </TTGlyph>
    <TTGlyph name="R.sc" xMin="80" yMin="0" xMax="499" yMax="574">
      <contour>
        <pt x="386" y="0" on="1"/>
        <pt x="280" y="211" on="1"/>
        <pt x="188" y="211" on="1"/>
        <pt x="188" y="0" on="1"/>
        <pt x="80" y="0" on="1"/>
        <pt x="80" y="574" on="1"/>
        <pt x="285" y="574" on="1"/>
        <pt x="322" y="574" on="0"/>
        <pt x="388" y="557" on="0"/>
        <pt x="438" y="519" on="0"/>
        <pt x="467" y="456" on="0"/>
        <pt x="467" y="410" on="1"/>
        <pt x="467" y="375" on="0"/>
        <pt x="452" y="323" on="0"/>
        <pt x="428" y="283" on="0"/>
        <pt x="397" y="253" on="0"/>
        <pt x="380" y="240" on="1"/>
        <pt x="499" y="0" on="1"/>
      </contour>
      <contour>
        <pt x="188" y="480" on="1"/>
        <pt x="188" y="315" on="1"/>
        <pt x="238" y="315" on="1"/>
        <pt x="280" y="315" on="0"/>
        <pt x="326" y="329" on="0"/>
        <pt x="349" y="353" on="0"/>
        <pt x="353" y="383" on="0"/>
        <pt x="353" y="400" on="1"/>
        <pt x="353" y="419" on="0"/>
        <pt x="347" y="448" on="0"/>
        <pt x="326" y="469" on="0"/>
        <pt x="286" y="480" on="0"/>
        <pt x="253" y="480" on="1"/>
      </contour>
    </TTGlyph>
    <TTGlyph name="S" xMin="33" yMin="-14" xMax="474" yMax="714">
      <contour>
        <pt x="241" y="-14" on="1"/>
        <pt x="171" y="-14" on="0"/>
        <pt x="67" y="15" on="0"/>
        <pt x="41" y="35" on="1"/>
        <pt x="55" y="169" on="1"/>
        <pt x="78" y="141" on="0"/>
        <pt x="174" y="97" on="0"/>
        <pt x="244" y="97" on="1"/>
        <pt x="291" y="97" on="0"/>
        <pt x="348" y="138" on="0"/>
        <pt x="348" y="184" on="1"/>
        <pt x="348" y="210" on="0"/>
        <pt x="324" y="248" on="0"/>
        <pt x="285" y="278" on="0"/>
        <pt x="235" y="301" on="0"/>
        <pt x="209" y="312" on="1"/>
        <pt x="179" y="325" on="0"/>
        <pt x="117" y="355" on="0"/>
        <pt x="66" y="399" on="0"/>
        <pt x="33" y="461" on="0"/>
        <pt x="33" y="505" on="1"/>
        <pt x="33" y="544" on="0"/>
        <pt x="54" y="619" on="0"/>
        <pt x="105" y="678" on="0"/>
        <pt x="189" y="714" on="0"/>
        <pt x="251" y="714" on="1"/>
        <pt x="282" y="714" on="0"/>
        <pt x="342" y="705" on="0"/>
        <pt x="393" y="690" on="0"/>
        <pt x="432" y="671" on="0"/>
        <pt x="443" y="662" on="1"/>
        <pt x="431" y="541" on="1"/>
        <pt x="383" y="573" on="0"/>
        <pt x="299" y="603" on="0"/>
        <pt x="255" y="603" on="1"/>
        <pt x="239" y="603" on="0"/>
        <pt x="201" y="594" on="0"/>
        <pt x="169" y="574" on="0"/>
        <pt x="147" y="542" on="0"/>
        <pt x="147" y="520" on="1"/>
        <pt x="147" y="498" on="0"/>
        <pt x="167" y="466" on="0"/>
        <pt x="200" y="442" on="0"/>
        <pt x="244" y="422" on="0"/>
        <pt x="268" y="413" on="1"/>
        <pt x="302" y="400" on="0"/>
        <pt x="375" y="369" on="0"/>
        <pt x="435" y="319" on="0"/>
        <pt x="474" y="244" on="0"/>
        <pt x="474" y="188" on="1"/>
        <pt x="474" y="152" on="0"/>
        <pt x="460" y="80" on="0"/>
        <pt x="412" y="22" on="0"/>
        <pt x="320" y="-14" on="0"/>
      </contour>
    </TTGlyph>
    <TTGlyph name="S.sc" xMin="55" yMin="-12" xMax="444" yMax="586">
      <contour>
        <pt x="240" y="-12" on="1"/>
        <pt x="177" y="-12" on="0"/>
        <pt x="85" y="14" on="0"/>
        <pt x="62" y="31" on="1"/>
        <pt x="73" y="159" on="1"/>
        <pt x="93" y="136" on="0"/>
        <pt x="179" y="98" on="0"/>
        <pt x="242" y="98" on="1"/>
        <pt x="282" y="98" on="0"/>
        <pt x="322" y="121" on="0"/>
        <pt x="322" y="153" on="1"/>
        <pt x="322" y="174" on="0"/>
        <pt x="302" y="204" on="0"/>
        <pt x="269" y="226" on="0"/>
        <pt x="226" y="244" on="0"/>
        <pt x="204" y="252" on="1"/>
        <pt x="178" y="262" on="0"/>
        <pt x="125" y="285" on="0"/>
        <pt x="82" y="321" on="0"/>
        <pt x="55" y="373" on="0"/>
        <pt x="55" y="412" on="1"/>
        <pt x="55" y="441" on="0"/>
        <pt x="75" y="503" on="0"/>
        <pt x="121" y="554" on="0"/>
        <pt x="194" y="586" on="0"/>
        <pt x="248" y="586" on="1"/>
        <pt x="276" y="586" on="0"/>
        <pt x="328" y="577" on="0"/>
        <pt x="373" y="564" on="0"/>
        <pt x="408" y="547" on="0"/>
        <pt x="418" y="540" on="1"/>
        <pt x="407" y="426" on="1"/>
        <pt x="362" y="452" on="0"/>
        <pt x="287" y="478" on="0"/>
        <pt x="249" y="478" on="1"/>
        <pt x="236" y="478" on="0"/>
        <pt x="206" y="474" on="0"/>
        <pt x="180" y="462" on="0"/>
        <pt x="163" y="441" on="0"/>
        <pt x="163" y="424" on="1"/>
        <pt x="163" y="407" on="0"/>
        <pt x="180" y="383" on="0"/>
        <pt x="209" y="365" on="0"/>
        <pt x="246" y="351" on="0"/>
        <pt x="267" y="344" on="1"/>
        <pt x="296" y="334" on="0"/>
        <pt x="358" y="309" on="0"/>
        <pt x="410" y="268" on="0"/>
        <pt x="444" y="205" on="0"/>
        <pt x="444" y="158" on="1"/>
        <pt x="444" y="133" on="0"/>
        <pt x="430" y="73" on="0"/>
        <pt x="386" y="22" on="0"/>
        <pt x="306" y="-12" on="0"/>
      </contour>
    </TTGlyph>
    <TTGlyph name="Scaron" xMin="33" yMin="-14" xMax="474" yMax="950">
      <component glyphName="S" x="0" y="0" flags="0x204"/>
      <component glyphName="caron" x="58" y="203" flags="0x4"/>
    </TTGlyph>
    <TTGlyph name="T" xMin="12" yMin="0" xMax="464" yMax="700">
      <contour>
        <pt x="295" y="588" on="1"/>
        <pt x="295" y="0" on="1"/>
        <pt x="181" y="0" on="1"/>
        <pt x="181" y="588" on="1"/>
        <pt x="12" y="588" on="1"/>
        <pt x="12" y="700" on="1"/>
        <pt x="464" y="700" on="1"/>
        <pt x="464" y="588" on="1"/>
      </contour>
    </TTGlyph>
    <TTGlyph name="T.sc" xMin="34" yMin="0" xMax="439" yMax="574">
      <contour>
        <pt x="291" y="464" on="1"/>
        <pt x="291" y="0" on="1"/>
        <pt x="182" y="0" on="1"/>
        <pt x="182" y="464" on="1"/>
        <pt x="34" y="464" on="1"/>
        <pt x="34" y="574" on="1"/>
        <pt x="439" y="574" on="1"/>
        <pt x="439" y="464" on="1"/>
      </contour>
    </TTGlyph>
    <TTGlyph name="Thorn" xMin="64" yMin="0" xMax="495" yMax="700">
      <contour>
        <pt x="177" y="117" on="1"/>
        <pt x="177" y="0" on="1"/>
        <pt x="64" y="0" on="1"/>
        <pt x="64" y="700" on="1"/>
        <pt x="177" y="700" on="1"/>
        <pt x="177" y="583" on="1"/>
        <pt x="232" y="583" on="1"/>
        <pt x="297" y="583" on="0"/>
        <pt x="395" y="568" on="0"/>
        <pt x="461" y="521" on="0"/>
        <pt x="495" y="434" on="0"/>
        <pt x="495" y="362" on="1"/>
        <pt x="495" y="289" on="0"/>
        <pt x="452" y="194" on="0"/>
        <pt x="388" y="139" on="0"/>
        <pt x="314" y="117" on="0"/>
        <pt x="282" y="117" on="1"/>
      </contour>
      <contour>
        <pt x="177" y="483" on="1"/>
        <pt x="177" y="227" on="1"/>
        <pt x="268" y="227" on="1"/>
        <pt x="328" y="227" on="0"/>
        <pt x="381" y="288" on="0"/>
        <pt x="381" y="360" on="1"/>
        <pt x="381" y="392" on="0"/>
        <pt x="371" y="439" on="0"/>
        <pt x="345" y="469" on="0"/>
        <pt x="301" y="483" on="0"/>
        <pt x="267" y="483" on="1"/>
      </contour>
    </TTGlyph>
    <TTGlyph name="U" xMin="59" yMin="-14" xMax="558" yMax="700">
      <contour>
        <pt x="308" y="-14" on="1"/>
        <pt x="245" y="-14" on="0"/>
        <pt x="151" y="30" on="0"/>
        <pt x="89" y="112" on="0"/>
        <pt x="59" y="227" on="0"/>
        <pt x="59" y="299" on="1"/>
        <pt x="59" y="700" on="1"/>
        <pt x="172" y="700" on="1"/>
        <pt x="172" y="343" on="1"/>
        <pt x="172" y="293" on="0"/>
        <pt x="183" y="204" on="0"/>
        <pt x="213" y="137" on="0"/>
        <pt x="266" y="97" on="0"/>
        <pt x="308" y="97" on="1"/>
        <pt x="350" y="97" on="0"/>
        <pt x="403" y="137" on="0"/>
        <pt x="433" y="204" on="0"/>
        <pt x="444" y="293" on="0"/>
        <pt x="444" y="343" on="1"/>
        <pt x="444" y="700" on="1"/>
        <pt x="558" y="700" on="1"/>
        <pt x="558" y="299" on="1"/>
        <pt x="558" y="227" on="0"/>
        <pt x="528" y="112" on="0"/>
        <pt x="466" y="30" on="0"/>
        <pt x="372" y="-14" on="0"/>
      </contour>
    </TTGlyph>
    <TTGlyph name="U.sc" xMin="78" yMin="-12" xMax="519" yMax="574">
      <contour>
        <pt x="298" y="-12" on="1"/>
        <pt x="242" y="-12" on="0"/>
        <pt x="159" y="25" on="0"/>
        <pt x="105" y="93" on="0"/>
        <pt x="78" y="189" on="0"/>
        <pt x="78" y="247" on="1"/>
        <pt x="78" y="574" on="1"/>
        <pt x="187" y="574" on="1"/>
        <pt x="187" y="282" on="1"/>
        <pt x="187" y="242" on="0"/>
        <pt x="196" y="175" on="0"/>
        <pt x="221" y="126" on="0"/>
        <pt x="264" y="98" on="0"/>
        <pt x="298" y="98" on="1"/>
        <pt x="332" y="98" on="0"/>
        <pt x="376" y="126" on="0"/>
        <pt x="401" y="175" on="0"/>
        <pt x="410" y="242" on="0"/>
        <pt x="410" y="282" on="1"/>
        <pt x="410" y="574" on="1"/>
        <pt x="519" y="574" on="1"/>
        <pt x="519" y="247" on="1"/>
        <pt x="519" y="189" on="0"/>
        <pt x="492" y="93" on="0"/>
        <pt x="438" y="25" on="0"/>
        <pt x="355" y="-12" on="0"/>
      </contour>
    </TTGlyph>
    <TTGlyph name="Uacute" xMin="59" yMin="-14" xMax="558" yMax="947">
      <component glyphName="U" x="0" y="0" flags="0x204"/>
      <component glyphName="acute" x="178" y="203" flags="0x4"/>
    </TTGlyph>
    <TTGlyph name="Ucircumflex" xMin="59" yMin="-14" xMax="558" yMax="951">
      <component glyphName="U" x="0" y="0" flags="0x204"/>
      <component glyphName="circumflex" x="117" y="203" flags="0x4"/>
    </TTGlyph>
    <TTGlyph name="Udieresis" xMin="59" yMin="-14" xMax="558" yMax="903">
      <component glyphName="U" x="0" y="0" flags="0x204"/>
      <component glyphName="dieresis" x="127" y="203" flags="0x4"/>
    </TTGlyph>
    <TTGlyph name="Ugrave" xMin="59" yMin="-14" xMax="558" yMax="947">
      <component glyphName="U" x="0" y="0" flags="0x204"/>
      <component glyphName="grave" x="178" y="203" flags="0x4"/>
    </TTGlyph>
    <TTGlyph name="V" xMin="0" yMin="0" xMax="564" yMax="700">
      <contour>
        <pt x="355" y="0" on="1"/>
        <pt x="215" y="0" on="1"/>
        <pt x="0" y="700" on="1"/>
        <pt x="118" y="700" on="1"/>
        <pt x="284" y="150" on="1"/>
        <pt x="448" y="700" on="1"/>
        <pt x="564" y="700" on="1"/>
      </contour>
    </TTGlyph>
    <TTGlyph name="V.sc" xMin="23" yMin="0" xMax="526" yMax="574">
      <contour>
        <pt x="347" y="0" on="1"/>
        <pt x="209" y="0" on="1"/>
        <pt x="23" y="574" on="1"/>
        <pt x="136" y="574" on="1"/>
        <pt x="277" y="152" on="1"/>
        <pt x="415" y="574" on="1"/>
        <pt x="526" y="574" on="1"/>
      </contour>
    </TTGlyph>
    <TTGlyph name="W" xMin="9" yMin="0" xMax="823" yMax="700">
      <contour>
        <pt x="647" y="0" on="1"/>
        <pt x="549" y="0" on="1"/>
        <pt x="416" y="494" on="1"/>
        <pt x="284" y="0" on="1"/>
        <pt x="179" y="0" on="1"/>
        <pt x="9" y="700" on="1"/>
        <pt x="127" y="700" on="1"/>
        <pt x="245" y="176" on="1"/>
        <pt x="378" y="696" on="1"/>
        <pt x="455" y="696" on="1"/>
        <pt x="592" y="186" on="1"/>
        <pt x="706" y="700" on="1"/>
        <pt x="823" y="700" on="1"/>
      </contour>
    </TTGlyph>
    <TTGlyph name="W.sc" xMin="35" yMin="0" xMax="754" yMax="577">
      <contour>
        <pt x="599" y="0" on="1"/>
        <pt x="510" y="0" on="1"/>
        <pt x="395" y="360" on="1"/>
        <pt x="282" y="0" on="1"/>
        <pt x="185" y="0" on="1"/>
        <pt x="35" y="574" on="1"/>
        <pt x="148" y="574" on="1"/>
        <pt x="249" y="187" on="1"/>
        <pt x="360" y="577" on="1"/>
        <pt x="428" y="577" on="1"/>
        <pt x="547" y="200" on="1"/>
        <pt x="642" y="574" on="1"/>
        <pt x="754" y="574" on="1"/>
      </contour>
    </TTGlyph>
    <TTGlyph name="X" xMin="-8" yMin="0" xMax="538" yMax="700">
      <contour>
        <pt x="406" y="0" on="1"/>
        <pt x="263" y="266" on="1"/>
        <pt x="123" y="0" on="1"/>
        <pt x="-8" y="0" on="1"/>
        <pt x="205" y="349" on="1"/>
        <pt x="3" y="700" on="1"/>
        <pt x="133" y="700" on="1"/>
        <pt x="271" y="446" on="1"/>
        <pt x="394" y="700" on="1"/>
        <pt x="525" y="700" on="1"/>
        <pt x="329" y="362" on="1"/>
        <pt x="538" y="0" on="1"/>
      </contour>
    </TTGlyph>
    <TTGlyph name="X.sc" xMin="12" yMin="0" xMax="506" yMax="574">
      <contour>
        <pt x="377" y="0" on="1"/>
        <pt x="259" y="204" on="1"/>
        <pt x="140" y="0" on="1"/>
        <pt x="12" y="0" on="1"/>
        <pt x="204" y="287" on="1"/>
        <pt x="24" y="574" on="1"/>
        <pt x="151" y="574" on="1"/>
        <pt x="267" y="378" on="1"/>
        <pt x="363" y="574" on="1"/>
        <pt x="491" y="574" on="1"/>
        <pt x="323" y="298" on="1"/>
        <pt x="506" y="0" on="1"/>
      </contour>
    </TTGlyph>
    <TTGlyph name="Y" xMin="-13" yMin="0" xMax="517" yMax="700">
      <contour>
        <pt x="308" y="314" on="1"/>
        <pt x="308" y="0" on="1"/>
        <pt x="195" y="0" on="1"/>
        <pt x="195" y="314" on="1"/>
        <pt x="-13" y="700" on="1"/>
        <pt x="107" y="700" on="1"/>
        <pt x="252" y="419" on="1"/>
        <pt x="396" y="700" on="1"/>
        <pt x="517" y="700" on="1"/>
      </contour>
    </TTGlyph>
    <TTGlyph name="Y.sc" xMin="8" yMin="0" xMax="487" yMax="574">
      <contour>
        <pt x="301" y="251" on="1"/>
        <pt x="301" y="0" on="1"/>
        <pt x="194" y="0" on="1"/>
        <pt x="194" y="251" on="1"/>
        <pt x="8" y="574" on="1"/>
        <pt x="125" y="574" on="1"/>
        <pt x="249" y="352" on="1"/>
        <pt x="372" y="574" on="1"/>
        <pt x="487" y="574" on="1"/>
      </contour>
    </TTGlyph>
    <TTGlyph name="Yacute" xMin="-13" yMin="0" xMax="517" yMax="947">
      <component glyphName="Y" x="0" y="0" flags="0x204"/>
      <component glyphName="acute" x="120" y="203" flags="0x4"/>
    </TTGlyph>
    <TTGlyph name="Ydieresis" xMin="-13" yMin="0" xMax="517" yMax="903">
      <component glyphName="Y" x="0" y="0" flags="0x204"/>
      <component glyphName="dieresis" x="69" y="203" flags="0x4"/>
    </TTGlyph>
    <TTGlyph name="Z" xMin="7" yMin="0" xMax="465" yMax="700">
      <contour>
        <pt x="194" y="112" on="1"/>
        <pt x="427" y="112" on="1"/>
        <pt x="427" y="0" on="1"/>
        <pt x="7" y="0" on="1"/>
        <pt x="279" y="588" on="1"/>
        <pt x="46" y="588" on="1"/>
        <pt x="46" y="700" on="1"/>
        <pt x="465" y="700" on="1"/>
      </contour>
    </TTGlyph>
    <TTGlyph name="Z.sc" xMin="32" yMin="0" xMax="437" yMax="574">
      <contour>
        <pt x="212" y="110" on="1"/>
        <pt x="402" y="110" on="1"/>
        <pt x="402" y="0" on="1"/>
        <pt x="32" y="0" on="1"/>
        <pt x="258" y="464" on="1"/>
        <pt x="66" y="464" on="1"/>
        <pt x="66" y="574" on="1"/>
        <pt x="437" y="574" on="1"/>
      </contour>
    </TTGlyph>
    <TTGlyph name="Zcaron" xMin="7" yMin="0" xMax="465" yMax="950">
      <component glyphName="Z" x="0" y="0" flags="0x204"/>
      <component glyphName="caron" x="42" y="203" flags="0x4"/>
    </TTGlyph>
    <TTGlyph name="a" xMin="16" yMin="-10" xMax="418" yMax="506">
      <contour>
        <pt x="409" y="-10" on="1"/>
        <pt x="366" y="-10" on="1"/>
        <pt x="333" y="-10" on="0"/>
        <pt x="284" y="23" on="0"/>
        <pt x="272" y="52" on="1"/>
        <pt x="250" y="23" on="0"/>
        <pt x="178" y="-10" on="0"/>
        <pt x="140" y="-10" on="1"/>
        <pt x="114" y="-10" on="0"/>
        <pt x="69" y="11" on="0"/>
        <pt x="36" y="49" on="0"/>
        <pt x="16" y="104" on="0"/>
        <pt x="16" y="138" on="1"/>
        <pt x="16" y="190" on="0"/>
        <pt x="69" y="258" on="0"/>
        <pt x="144" y="298" on="0"/>
        <pt x="227" y="314" on="0"/>
        <pt x="256" y="315" on="1"/>
        <pt x="254" y="366" on="0"/>
        <pt x="222" y="407" on="0"/>
        <pt x="180" y="407" on="1"/>
        <pt x="151" y="407" on="0"/>
        <pt x="96" y="389" on="0"/>
        <pt x="62" y="367" on="1"/>
        <pt x="53" y="459" on="1"/>
        <pt x="93" y="482" on="0"/>
        <pt x="171" y="506" on="0"/>
        <pt x="211" y="506" on="1"/>
        <pt x="247" y="506" on="0"/>
        <pt x="305" y="483" on="0"/>
        <pt x="346" y="433" on="0"/>
        <pt x="368" y="352" on="0"/>
        <pt x="368" y="294" on="1"/>
        <pt x="368" y="170" on="1"/>
        <pt x="368" y="142" on="0"/>
        <pt x="371" y="108" on="0"/>
        <pt x="379" y="89" on="0"/>
        <pt x="393" y="83" on="0"/>
        <pt x="404" y="83" on="1"/>
        <pt x="418" y="83" on="1"/>
      </contour>
      <contour>
        <pt x="257" y="238" on="1"/>
        <pt x="237" y="236" on="0"/>
        <pt x="193" y="224" on="0"/>
        <pt x="155" y="201" on="0"/>
        <pt x="131" y="167" on="0"/>
        <pt x="131" y="143" on="1"/>
        <pt x="131" y="109" on="0"/>
        <pt x="157" y="78" on="0"/>
        <pt x="188" y="78" on="1"/>
        <pt x="200" y="78" on="0"/>
        <pt x="240" y="101" on="0"/>
        <pt x="257" y="123" on="1"/>
      </contour>
    </TTGlyph>
    <TTGlyph name="aacute" xMin="16" yMin="-10" xMax="418" yMax="744">
      <component glyphName="a" x="0" y="0" flags="0x4"/>
      <component glyphName="acute" x="83" y="0" flags="0x4"/>
    </TTGlyph>
    <TTGlyph name="acircumflex" xMin="16" yMin="-10" xMax="418" yMax="748">
      <component glyphName="a" x="0" y="0" flags="0x4"/>
      <component glyphName="circumflex" x="23" y="0" flags="0x4"/>
    </TTGlyph>
    <TTGlyph name="acute" xMin="50" yMin="588" xMax="211" yMax="744">
      <contour>
        <pt x="50" y="588" on="1"/>
        <pt x="50" y="652" on="1"/>
        <pt x="211" y="744" on="1"/>
        <pt x="211" y="650" on="1"/>
      </contour>
    </TTGlyph>
    <TTGlyph name="adieresis" xMin="16" yMin="-10" xMax="418" yMax="700">
      <component glyphName="a" x="0" y="0" flags="0x4"/>
      <component glyphName="dieresis" x="33" y="0" flags="0x4"/>
    </TTGlyph>
    <TTGlyph name="ae" xMin="17" yMin="-15" xMax="659" yMax="506">
      <contour>
        <pt x="381" y="230" on="1"/>
        <pt x="391" y="153" on="0"/>
        <pt x="461" y="83" on="0"/>
        <pt x="501" y="83" on="1"/>
        <pt x="516" y="83" on="0"/>
        <pt x="552" y="89" on="0"/>
        <pt x="589" y="99" on="0"/>
        <pt x="623" y="114" on="0"/>
        <pt x="636" y="122" on="1"/>
        <pt x="640" y="29" on="1"/>
        <pt x="616" y="13" on="0"/>
        <pt x="542" y="-10" on="0"/>
        <pt x="497" y="-10" on="1"/>
        <pt x="431" y="-10" on="0"/>
        <pt x="345" y="42" on="0"/>
        <pt x="325" y="90" on="1"/>
        <pt x="296" y="42" on="0"/>
        <pt x="220" y="-15" on="0"/>
        <pt x="159" y="-15" on="1"/>
        <pt x="91" y="-15" on="0"/>
        <pt x="17" y="60" on="0"/>
        <pt x="17" y="124" on="1"/>
        <pt x="17" y="182" on="0"/>
        <pt x="69" y="254" on="0"/>
        <pt x="143" y="294" on="0"/>
        <pt x="226" y="310" on="0"/>
        <pt x="257" y="312" on="1"/>
        <pt x="256" y="363" on="0"/>
        <pt x="224" y="407" on="0"/>
        <pt x="182" y="407" on="1"/>
        <pt x="153" y="407" on="0"/>
        <pt x="98" y="390" on="0"/>
        <pt x="63" y="372" on="1"/>
        <pt x="53" y="463" on="1"/>
        <pt x="133" y="506" on="0"/>
        <pt x="211" y="506" on="1"/>
        <pt x="263" y="506" on="0"/>
        <pt x="324" y="466" on="0"/>
        <pt x="340" y="407" on="1"/>
        <pt x="350" y="450" on="0"/>
        <pt x="431" y="506" on="0"/>
        <pt x="488" y="506" on="1"/>
        <pt x="525" y="506" on="0"/>
        <pt x="588" y="477" on="0"/>
        <pt x="634" y="422" on="0"/>
        <pt x="659" y="344" on="0"/>
        <pt x="659" y="295" on="1"/>
        <pt x="659" y="277" on="0"/>
        <pt x="655" y="246" on="0"/>
        <pt x="651" y="230" on="1"/>
      </contour>
      <contour>
        <pt x="484" y="410" on="1"/>
        <pt x="445" y="410" on="0"/>
        <pt x="390" y="356" on="0"/>
        <pt x="383" y="307" on="1"/>
        <pt x="561" y="307" on="1"/>
        <pt x="561" y="328" on="0"/>
        <pt x="554" y="365" on="0"/>
        <pt x="536" y="394" on="0"/>
        <pt x="506" y="410" on="0"/>
      </contour>
      <contour>
        <pt x="264" y="235" on="1"/>
        <pt x="243" y="235" on="0"/>
        <pt x="197" y="223" on="0"/>
        <pt x="158" y="199" on="0"/>
        <pt x="133" y="161" on="0"/>
        <pt x="133" y="134" on="1"/>
        <pt x="133" y="105" on="0"/>
        <pt x="162" y="75" on="0"/>
        <pt x="182" y="75" on="1"/>
        <pt x="196" y="75" on="0"/>
        <pt x="225" y="90" on="0"/>
        <pt x="249" y="121" on="0"/>
        <pt x="265" y="168" on="0"/>
        <pt x="265" y="201" on="1"/>
        <pt x="265" y="209" on="0"/>
        <pt x="265" y="224" on="0"/>
      </contour>
    </TTGlyph>
    <TTGlyph name="agrave" xMin="16" yMin="-10" xMax="418" yMax="744">
      <component glyphName="a" x="0" y="0" flags="0x4"/>
      <component glyphName="grave" x="83" y="0" flags="0x4"/>
    </TTGlyph>
    <TTGlyph name="ampersand" xMin="28" yMin="-24" xMax="541" yMax="703">
      <contour>
        <pt x="412" y="0" on="1"/>
        <pt x="386" y="38" on="1"/>
        <pt x="332" y="-24" on="0"/>
        <pt x="228" y="-24" on="1"/>
        <pt x="176" y="-24" on="0"/>
        <pt x="101" y="7" on="0"/>
        <pt x="52" y="60" on="0"/>
        <pt x="28" y="128" on="0"/>
        <pt x="28" y="166" on="1"/>
        <pt x="28" y="199" on="0"/>
        <pt x="46" y="255" on="0"/>
        <pt x="75" y="304" on="0"/>
        <pt x="112" y="347" on="0"/>
        <pt x="132" y="367" on="1"/>
        <pt x="108" y="409" on="0"/>
        <pt x="68" y="494" on="0"/>
        <pt x="68" y="537" on="1"/>
        <pt x="68" y="576" on="0"/>
        <pt x="97" y="638" on="0"/>
        <pt x="146" y="681" on="0"/>
        <pt x="209" y="703" on="0"/>
        <pt x="243" y="703" on="1"/>
        <pt x="309" y="703" on="0"/>
        <pt x="382" y="626" on="0"/>
        <pt x="382" y="565" on="1"/>
        <pt x="382" y="531" on="0"/>
        <pt x="361" y="474" on="0"/>
        <pt x="328" y="426" on="0"/>
        <pt x="284" y="385" on="0"/>
        <pt x="262" y="366" on="1"/>
        <pt x="377" y="195" on="1"/>
        <pt x="379" y="211" on="0"/>
        <pt x="381" y="253" on="0"/>
        <pt x="382" y="295" on="0"/>
        <pt x="383" y="336" on="0"/>
        <pt x="383" y="352" on="1"/>
        <pt x="489" y="352" on="1"/>
        <pt x="489" y="330" on="0"/>
        <pt x="486" y="273" on="0"/>
        <pt x="477" y="210" on="0"/>
        <pt x="461" y="144" on="0"/>
        <pt x="448" y="114" on="1"/>
        <pt x="541" y="0" on="1"/>
      </contour>
      <contour>
        <pt x="239" y="613" on="1"/>
        <pt x="212" y="613" on="0"/>
        <pt x="177" y="574" on="0"/>
        <pt x="177" y="533" on="1"/>
        <pt x="177" y="509" on="0"/>
        <pt x="196" y="457" on="0"/>
        <pt x="216" y="424" on="1"/>
        <pt x="245" y="456" on="0"/>
        <pt x="285" y="512" on="0"/>
        <pt x="285" y="550" on="1"/>
        <pt x="285" y="584" on="0"/>
        <pt x="260" y="613" on="0"/>
      </contour>
      <contour>
        <pt x="185" y="304" on="1"/>
        <pt x="166" y="279" on="0"/>
        <pt x="143" y="216" on="0"/>
        <pt x="143" y="176" on="1"/>
        <pt x="143" y="155" on="0"/>
        <pt x="151" y="114" on="0"/>
        <pt x="174" y="82" on="0"/>
        <pt x="213" y="63" on="0"/>
        <pt x="245" y="63" on="1"/>
        <pt x="274" y="63" on="0"/>
        <pt x="315" y="85" on="0"/>
        <pt x="330" y="105" on="1"/>
      </contour>
    </TTGlyph>
    <TTGlyph name="aring" xMin="16" yMin="-10" xMax="418" yMax="755">
      <component glyphName="a" x="0" y="0" flags="0x4"/>
      <component glyphName="ring" x="89" y="0" flags="0x4"/>
    </TTGlyph>
    <TTGlyph name="asciicircum" xMin="42" yMin="412" xMax="396" yMax="759">
      <contour>
        <pt x="219" y="625" on="1"/>
        <pt x="42" y="412" on="1"/>
        <pt x="42" y="546" on="1"/>
        <pt x="219" y="759" on="1"/>
        <pt x="396" y="546" on="1"/>
        <pt x="396" y="412" on="1"/>
      </contour>
    </TTGlyph>
    <TTGlyph name="asciitilde" xMin="63" yMin="174" xMax="390" yMax="293">
      <contour>
        <pt x="287" y="177" on="1"/>
        <pt x="269" y="177" on="0"/>
        <pt x="240" y="191" on="0"/>
        <pt x="214" y="208" on="0"/>
        <pt x="191" y="222" on="0"/>
        <pt x="179" y="222" on="1"/>
        <pt x="160" y="222" on="0"/>
        <pt x="142" y="191" on="0"/>
        <pt x="140" y="174" on="1"/>
        <pt x="63" y="191" on="1"/>
        <pt x="65" y="216" on="0"/>
        <pt x="86" y="253" on="0"/>
        <pt x="117" y="277" on="0"/>
        <pt x="155" y="289" on="0"/>
        <pt x="173" y="289" on="1"/>
        <pt x="193" y="289" on="0"/>
        <pt x="219" y="275" on="0"/>
        <pt x="240" y="259" on="0"/>
        <pt x="260" y="245" on="0"/>
        <pt x="272" y="245" on="1"/>
        <pt x="292" y="245" on="0"/>
        <pt x="318" y="275" on="0"/>
        <pt x="320" y="293" on="1"/>
        <pt x="390" y="276" on="1"/>
        <pt x="385" y="237" on="0"/>
        <pt x="332" y="177" on="0"/>
      </contour>
    </TTGlyph>
    <TTGlyph name="asterisk" xMin="27" yMin="414" xMax="360" yMax="749">
      <contour>
        <pt x="195" y="552" on="1"/>
        <pt x="123" y="414" on="1"/>
        <pt x="62" y="468" on="1"/>
        <pt x="167" y="567" on="1"/>
        <pt x="27" y="624" on="1"/>
        <pt x="70" y="693" on="1"/>
        <pt x="183" y="592" on="1"/>
        <pt x="151" y="749" on="1"/>
        <pt x="236" y="749" on="1"/>
        <pt x="203" y="592" on="1"/>
        <pt x="317" y="693" on="1"/>
        <pt x="360" y="623" on="1"/>
        <pt x="223" y="569" on="1"/>
        <pt x="327" y="471" on="1"/>
        <pt x="266" y="417" on="1"/>
      </contour>
    </TTGlyph>
    <TTGlyph name="at" xMin="35" yMin="-87" xMax="573" yMax="553">
      <contour>
        <pt x="462" y="379" on="1"/>
        <pt x="445" y="399" on="0"/>
        <pt x="393" y="432" on="0"/>
        <pt x="358" y="432" on="1"/>
        <pt x="317" y="432" on="0"/>
        <pt x="239" y="383" on="0"/>
        <pt x="176" y="304" on="0"/>
        <pt x="138" y="204" on="0"/>
        <pt x="138" y="153" on="1"/>
        <pt x="138" y="131" on="0"/>
        <pt x="146" y="90" on="0"/>
        <pt x="165" y="59" on="0"/>
        <pt x="195" y="40" on="0"/>
        <pt x="216" y="40" on="1"/>
        <pt x="235" y="40" on="0"/>
        <pt x="277" y="55" on="0"/>
        <pt x="319" y="85" on="0"/>
        <pt x="357" y="128" on="0"/>
        <pt x="371" y="156" on="1"/>
        <pt x="371" y="151" on="0"/>
        <pt x="369" y="132" on="0"/>
        <pt x="369" y="121" on="1"/>
        <pt x="369" y="109" on="0"/>
        <pt x="374" y="81" on="0"/>
        <pt x="385" y="58" on="0"/>
        <pt x="404" y="42" on="0"/>
        <pt x="419" y="42" on="1"/>
        <pt x="431" y="42" on="0"/>
        <pt x="461" y="53" on="0"/>
        <pt x="491" y="71" on="0"/>
        <pt x="520" y="94" on="0"/>
        <pt x="530" y="106" on="1"/>
        <pt x="510" y="63" on="0"/>
        <pt x="450" y="-8" on="0"/>
        <pt x="377" y="-59" on="0"/>
        <pt x="293" y="-87" on="0"/>
        <pt x="248" y="-87" on="1"/>
        <pt x="150" y="-87" on="0"/>
        <pt x="35" y="48" on="0"/>
        <pt x="35" y="170" on="1"/>
        <pt x="35" y="252" on="0"/>
        <pt x="88" y="392" on="0"/>
        <pt x="177" y="495" on="0"/>
        <pt x="294" y="553" on="0"/>
        <pt x="359" y="553" on="1"/>
        <pt x="410" y="553" on="0"/>
        <pt x="489" y="517" on="0"/>
        <pt x="544" y="451" on="0"/>
        <pt x="573" y="358" on="0"/>
        <pt x="573" y="300" on="1"/>
        <pt x="573" y="262" on="0"/>
        <pt x="560" y="188" on="0"/>
        <pt x="531" y="130" on="0"/>
        <pt x="484" y="94" on="0"/>
        <pt x="451" y="94" on="1"/>
        <pt x="435" y="94" on="0"/>
        <pt x="414" y="111" on="0"/>
        <pt x="414" y="145" on="1"/>
        <pt x="414" y="189" on="0"/>
        <pt x="445" y="299" on="0"/>
      </contour>
      <contour>
        <pt x="365" y="371" on="1"/>
        <pt x="373" y="371" on="0"/>
        <pt x="399" y="365" on="0"/>
        <pt x="404" y="349" on="1"/>
        <pt x="398" y="309" on="0"/>
        <pt x="363" y="223" on="0"/>
        <pt x="317" y="152" on="0"/>
        <pt x="266" y="106" on="0"/>
        <pt x="245" y="106" on="1"/>
        <pt x="225" y="106" on="0"/>
        <pt x="207" y="144" on="0"/>
        <pt x="207" y="173" on="1"/>
        <pt x="207" y="214" on="0"/>
        <pt x="239" y="286" on="0"/>
        <pt x="286" y="340" on="0"/>
        <pt x="341" y="371" on="0"/>
      </contour>
    </TTGlyph>
    <TTGlyph name="atilde" xMin="16" yMin="-10" xMax="418" yMax="715">
      <component glyphName="a" x="0" y="0" flags="0x4"/>
      <component glyphName="tilde" x="-14" y="0" flags="0x4"/>
    </TTGlyph>
    <TTGlyph name="b" xMin="50" yMin="-10" xMax="470" yMax="750">
      <contour>
        <pt x="257" y="-10" on="1"/>
        <pt x="221" y="-10" on="0"/>
        <pt x="176" y="15" on="0"/>
        <pt x="153" y="39" on="1"/>
        <pt x="153" y="0" on="1"/>
        <pt x="50" y="0" on="1"/>
        <pt x="50" y="750" on="1"/>
        <pt x="160" y="750" on="1"/>
        <pt x="160" y="463" on="1"/>
        <pt x="180" y="486" on="0"/>
        <pt x="222" y="506" on="0"/>
        <pt x="257" y="506" on="1"/>
        <pt x="309" y="506" on="0"/>
        <pt x="389" y="464" on="0"/>
        <pt x="443" y="393" on="0"/>
        <pt x="470" y="300" on="0"/>
        <pt x="470" y="248" on="1"/>
        <pt x="470" y="195" on="0"/>
        <pt x="443" y="101" on="0"/>
        <pt x="390" y="31" on="0"/>
        <pt x="310" y="-10" on="0"/>
      </contour>
      <contour>
        <pt x="250" y="410" on="1"/>
        <pt x="198" y="410" on="0"/>
        <pt x="155" y="324" on="0"/>
        <pt x="155" y="248" on="1"/>
        <pt x="155" y="170" on="0"/>
        <pt x="198" y="85" on="0"/>
        <pt x="250" y="85" on="1"/>
        <pt x="276" y="85" on="0"/>
        <pt x="316" y="109" on="0"/>
        <pt x="343" y="153" on="0"/>
        <pt x="357" y="213" on="0"/>
        <pt x="357" y="248" on="1"/>
        <pt x="357" y="320" on="0"/>
        <pt x="302" y="410" on="0"/>
      </contour>
    </TTGlyph>
    <TTGlyph name="backslash" xMin="27" yMin="-85" xMax="459" yMax="700">
      <contour>
        <pt x="339" y="-85" on="1"/>
        <pt x="27" y="700" on="1"/>
        <pt x="146" y="700" on="1"/>
        <pt x="459" y="-85" on="1"/>
      </contour>
    </TTGlyph>
    <TTGlyph name="bar" xMin="52" yMin="-210" xMax="139" yMax="750">
      <contour>
        <pt x="52" y="-210" on="1"/>
        <pt x="52" y="750" on="1"/>
        <pt x="139" y="750" on="1"/>
        <pt x="139" y="-210" on="1"/>
      </contour>
    </TTGlyph>
    <TTGlyph name="braceleft" xMin="10" yMin="-136" xMax="264" yMax="750">
      <contour>
        <pt x="76" y="24" on="1"/>
        <pt x="76" y="53" on="0"/>
        <pt x="82" y="129" on="0"/>
        <pt x="82" y="164" on="1"/>
        <pt x="82" y="217" on="0"/>
        <pt x="52" y="281" on="0"/>
        <pt x="10" y="307" on="1"/>
        <pt x="30" y="319" on="0"/>
        <pt x="57" y="346" on="0"/>
        <pt x="74" y="380" on="0"/>
        <pt x="82" y="422" on="0"/>
        <pt x="82" y="451" on="1"/>
        <pt x="82" y="485" on="0"/>
        <pt x="76" y="561" on="0"/>
        <pt x="76" y="590" on="1"/>
        <pt x="76" y="628" on="0"/>
        <pt x="95" y="687" on="0"/>
        <pt x="139" y="727" on="0"/>
        <pt x="211" y="749" on="0"/>
        <pt x="264" y="750" on="1"/>
        <pt x="264" y="653" on="1"/>
        <pt x="226" y="653" on="0"/>
        <pt x="185" y="641" on="0"/>
        <pt x="165" y="609" on="0"/>
        <pt x="162" y="550" on="0"/>
        <pt x="162" y="503" on="1"/>
        <pt x="162" y="483" on="0"/>
        <pt x="165" y="440" on="0"/>
        <pt x="165" y="420" on="1"/>
        <pt x="165" y="388" on="0"/>
        <pt x="150" y="331" on="0"/>
        <pt x="124" y="307" on="1"/>
        <pt x="150" y="284" on="0"/>
        <pt x="165" y="234" on="0"/>
        <pt x="165" y="202" on="1"/>
        <pt x="165" y="182" on="0"/>
        <pt x="162" y="137" on="0"/>
        <pt x="162" y="112" on="1"/>
        <pt x="162" y="65" on="0"/>
        <pt x="165" y="6" on="0"/>
        <pt x="185" y="-27" on="0"/>
        <pt x="226" y="-39" on="0"/>
        <pt x="264" y="-39" on="1"/>
        <pt x="264" y="-136" on="1"/>
        <pt x="212" y="-135" on="0"/>
        <pt x="141" y="-115" on="0"/>
        <pt x="96" y="-75" on="0"/>
        <pt x="76" y="-15" on="0"/>
      </contour>
    </TTGlyph>
    <TTGlyph name="braceright" xMin="10" yMin="-136" xMax="264" yMax="750">
      <contour>
        <pt x="198" y="24" on="1"/>
        <pt x="198" y="-55" on="0"/>
        <pt x="113" y="-134" on="0"/>
        <pt x="10" y="-136" on="1"/>
        <pt x="10" y="-39" on="1"/>
        <pt x="47" y="-39" on="0"/>
        <pt x="88" y="-27" on="0"/>
        <pt x="108" y="6" on="0"/>
        <pt x="111" y="65" on="0"/>
        <pt x="111" y="112" on="1"/>
        <pt x="111" y="137" on="0"/>
        <pt x="109" y="182" on="0"/>
        <pt x="109" y="202" on="1"/>
        <pt x="109" y="234" on="0"/>
        <pt x="124" y="284" on="0"/>
        <pt x="149" y="307" on="1"/>
        <pt x="124" y="331" on="0"/>
        <pt x="109" y="388" on="0"/>
        <pt x="109" y="420" on="1"/>
        <pt x="109" y="440" on="0"/>
        <pt x="111" y="483" on="0"/>
        <pt x="111" y="503" on="1"/>
        <pt x="111" y="550" on="0"/>
        <pt x="108" y="609" on="0"/>
        <pt x="88" y="641" on="0"/>
        <pt x="47" y="653" on="0"/>
        <pt x="10" y="653" on="1"/>
        <pt x="10" y="750" on="1"/>
        <pt x="63" y="749" on="0"/>
        <pt x="135" y="727" on="0"/>
        <pt x="179" y="687" on="0"/>
        <pt x="198" y="628" on="0"/>
        <pt x="198" y="590" on="1"/>
        <pt x="198" y="561" on="0"/>
        <pt x="192" y="485" on="0"/>
        <pt x="192" y="451" on="1"/>
        <pt x="192" y="422" on="0"/>
        <pt x="200" y="380" on="0"/>
        <pt x="217" y="346" on="0"/>
        <pt x="244" y="319" on="0"/>
        <pt x="264" y="307" on="1"/>
        <pt x="243" y="294" on="0"/>
        <pt x="215" y="266" on="0"/>
        <pt x="198" y="232" on="0"/>
        <pt x="192" y="190" on="0"/>
        <pt x="192" y="164" on="1"/>
        <pt x="192" y="129" on="0"/>
        <pt x="198" y="53" on="0"/>
      </contour>
    </TTGlyph>
    <TTGlyph name="bracketleft" xMin="58" yMin="-136" xMax="279" yMax="750">
      <contour>
        <pt x="58" y="-136" on="1"/>
        <pt x="58" y="750" on="1"/>
        <pt x="279" y="750" on="1"/>
        <pt x="279" y="654" on="1"/>
        <pt x="158" y="654" on="1"/>
        <pt x="158" y="-39" on="1"/>
        <pt x="279" y="-39" on="1"/>
        <pt x="279" y="-136" on="1"/>
      </contour>
    </TTGlyph>
    <TTGlyph name="bracketright" xMin="9" yMin="-136" xMax="230" yMax="750">
      <contour>
        <pt x="9" y="-136" on="1"/>
        <pt x="9" y="-39" on="1"/>
        <pt x="130" y="-39" on="1"/>
        <pt x="130" y="654" on="1"/>
        <pt x="9" y="654" on="1"/>
        <pt x="9" y="750" on="1"/>
        <pt x="230" y="750" on="1"/>
        <pt x="230" y="-136" on="1"/>
      </contour>
    </TTGlyph>
    <TTGlyph name="brokenbar" xMin="58" yMin="-210" xMax="134" yMax="750">
      <contour>
        <pt x="58" y="291" on="1"/>
        <pt x="58" y="750" on="1"/>
        <pt x="134" y="750" on="1"/>
        <pt x="134" y="291" on="1"/>
      </contour>
      <contour>
        <pt x="58" y="-210" on="1"/>
        <pt x="58" y="182" on="1"/>
        <pt x="134" y="182" on="1"/>
        <pt x="134" y="-210" on="1"/>
      </contour>
    </TTGlyph>
    <TTGlyph name="bullet" xMin="34" yMin="169" xMax="221" yMax="387">
      <contour>
        <pt x="128" y="169" on="1"/>
        <pt x="108" y="169" on="0"/>
        <pt x="74" y="186" on="0"/>
        <pt x="49" y="216" on="0"/>
        <pt x="34" y="255" on="0"/>
        <pt x="34" y="278" on="1"/>
        <pt x="34" y="300" on="0"/>
        <pt x="49" y="340" on="0"/>
        <pt x="74" y="370" on="0"/>
        <pt x="108" y="387" on="0"/>
        <pt x="128" y="387" on="1"/>
        <pt x="147" y="387" on="0"/>
        <pt x="181" y="370" on="0"/>
        <pt x="206" y="340" on="0"/>
        <pt x="221" y="300" on="0"/>
        <pt x="221" y="278" on="1"/>
        <pt x="221" y="255" on="0"/>
        <pt x="206" y="216" on="0"/>
        <pt x="181" y="186" on="0"/>
        <pt x="147" y="169" on="0"/>
      </contour>
    </TTGlyph>
    <TTGlyph name="c" xMin="24" yMin="-10" xMax="362" yMax="506">
      <contour>
        <pt x="233" y="-10" on="1"/>
        <pt x="181" y="-10" on="0"/>
        <pt x="103" y="32" on="0"/>
        <pt x="50" y="102" on="0"/>
        <pt x="24" y="196" on="0"/>
        <pt x="24" y="248" on="1"/>
        <pt x="24" y="301" on="0"/>
        <pt x="50" y="395" on="0"/>
        <pt x="103" y="465" on="0"/>
        <pt x="181" y="506" on="0"/>
        <pt x="233" y="506" on="1"/>
        <pt x="285" y="506" on="0"/>
        <pt x="341" y="485" on="0"/>
        <pt x="362" y="471" on="1"/>
        <pt x="353" y="373" on="1"/>
        <pt x="326" y="391" on="0"/>
        <pt x="273" y="410" on="0"/>
        <pt x="242" y="410" on="1"/>
        <pt x="192" y="410" on="0"/>
        <pt x="137" y="322" on="0"/>
        <pt x="137" y="248" on="1"/>
        <pt x="137" y="175" on="0"/>
        <pt x="192" y="85" on="0"/>
        <pt x="242" y="85" on="1"/>
        <pt x="273" y="85" on="0"/>
        <pt x="326" y="104" on="0"/>
        <pt x="353" y="122" on="1"/>
        <pt x="362" y="27" on="1"/>
        <pt x="341" y="12" on="0"/>
        <pt x="285" y="-10" on="0"/>
      </contour>
    </TTGlyph>
    <TTGlyph name="caron" xMin="65" yMin="590" xMax="318" yMax="747">
      <contour>
        <pt x="191" y="590" on="1"/>
        <pt x="65" y="683" on="1"/>
        <pt x="65" y="747" on="1"/>
        <pt x="191" y="674" on="1"/>
        <pt x="318" y="747" on="1"/>
        <pt x="318" y="683" on="1"/>
      </contour>
    </TTGlyph>
    <TTGlyph name="ccaron" xMin="24" yMin="-10" xMax="362" yMax="747">
      <component glyphName="c" x="0" y="0" flags="0x204"/>
      <component glyphName="caron" x="0" y="0" flags="0x4"/>
    </TTGlyph>
    <TTGlyph name="ccedilla" xMin="24" yMin="-193" xMax="362" yMax="506">
      <component glyphName="c" x="0" y="0" flags="0x204"/>
      <component glyphName="cedilla" x="32" y="0" flags="0x4"/>
    </TTGlyph>
    <TTGlyph name="cedilla" xMin="109" yMin="-193" xMax="262" yMax="-53">
      <contour>
        <pt x="176" y="-186" on="1"/>
        <pt x="109" y="-193" on="1"/>
        <pt x="169" y="-61" on="1"/>
        <pt x="262" y="-53" on="1"/>
      </contour>
    </TTGlyph>
    <TTGlyph name="cent" xMin="29" yMin="-32" xMax="367" yMax="748">
      <contour>
        <pt x="279" y="-32" on="1"/>
        <pt x="185" y="-32" on="1"/>
        <pt x="199" y="90" on="1"/>
        <pt x="157" y="97" on="0"/>
        <pt x="93" y="141" on="0"/>
        <pt x="51" y="209" on="0"/>
        <pt x="29" y="297" on="0"/>
        <pt x="29" y="347" on="1"/>
        <pt x="29" y="396" on="0"/>
        <pt x="52" y="483" on="0"/>
        <pt x="95" y="552" on="0"/>
        <pt x="158" y="598" on="0"/>
        <pt x="199" y="605" on="1"/>
        <pt x="185" y="748" on="1"/>
        <pt x="279" y="748" on="1"/>
        <pt x="265" y="607" on="1"/>
        <pt x="303" y="604" on="0"/>
        <pt x="348" y="586" on="0"/>
        <pt x="367" y="572" on="1"/>
        <pt x="358" y="475" on="1"/>
        <pt x="303" y="513" on="0"/>
        <pt x="251" y="513" on="1"/>
        <pt x="224" y="513" on="0"/>
        <pt x="183" y="488" on="0"/>
        <pt x="156" y="444" on="0"/>
        <pt x="142" y="384" on="0"/>
        <pt x="142" y="348" on="1"/>
        <pt x="142" y="274" on="0"/>
        <pt x="196" y="183" on="0"/>
        <pt x="250" y="183" on="1"/>
        <pt x="303" y="183" on="0"/>
        <pt x="358" y="221" on="1"/>
        <pt x="367" y="124" on="1"/>
        <pt x="348" y="111" on="0"/>
        <pt x="302" y="91" on="0"/>
        <pt x="264" y="88" on="1"/>
      </contour>
    </TTGlyph>
    <TTGlyph name="circumflex" xMin="65" yMin="591" xMax="318" yMax="748">
      <contour>
        <pt x="191" y="665" on="1"/>
        <pt x="65" y="591" on="1"/>
        <pt x="65" y="653" on="1"/>
        <pt x="191" y="748" on="1"/>
        <pt x="318" y="653" on="1"/>
        <pt x="318" y="591" on="1"/>
      </contour>
    </TTGlyph>
    <TTGlyph name="colon" xMin="58" yMin="0" xMax="168" yMax="440">
      <contour>
        <pt x="58" y="324" on="1"/>
        <pt x="58" y="440" on="1"/>
        <pt x="168" y="440" on="1"/>
        <pt x="168" y="324" on="1"/>
      </contour>
      <contour>
        <pt x="58" y="0" on="1"/>
        <pt x="58" y="116" on="1"/>
        <pt x="168" y="116" on="1"/>
        <pt x="168" y="0" on="1"/>
      </contour>
    </TTGlyph>
    <TTGlyph name="comma" xMin="46" yMin="-110" xMax="156" yMax="116">
      <contour>
        <pt x="69" y="-110" on="1"/>
        <pt x="46" y="-96" on="1"/>
        <pt x="75" y="-10" on="1"/>
        <pt x="47" y="0" on="1"/>
        <pt x="47" y="116" on="1"/>
        <pt x="156" y="116" on="1"/>
        <pt x="156" y="0" on="1"/>
      </contour>
    </TTGlyph>
    <TTGlyph name="copyright" xMin="34" yMin="37" xMax="568" yMax="693">
      <contour>
        <pt x="301" y="37" on="1"/>
        <pt x="243" y="37" on="0"/>
        <pt x="145" y="84" on="0"/>
        <pt x="74" y="170" on="0"/>
        <pt x="34" y="291" on="0"/>
        <pt x="34" y="365" on="1"/>
        <pt x="34" y="439" on="0"/>
        <pt x="74" y="560" on="0"/>
        <pt x="145" y="646" on="0"/>
        <pt x="243" y="693" on="0"/>
        <pt x="301" y="693" on="1"/>
        <pt x="359" y="693" on="0"/>
        <pt x="457" y="646" on="0"/>
        <pt x="528" y="560" on="0"/>
        <pt x="568" y="439" on="0"/>
        <pt x="568" y="365" on="1"/>
        <pt x="568" y="291" on="0"/>
        <pt x="528" y="170" on="0"/>
        <pt x="457" y="84" on="0"/>
        <pt x="359" y="37" on="0"/>
      </contour>
      <contour>
        <pt x="301" y="631" on="1"/>
        <pt x="251" y="631" on="0"/>
        <pt x="177" y="591" on="0"/>
        <pt x="127" y="519" on="0"/>
        <pt x="103" y="422" on="0"/>
        <pt x="103" y="365" on="1"/>
        <pt x="103" y="308" on="0"/>
        <pt x="127" y="210" on="0"/>
        <pt x="177" y="139" on="0"/>
        <pt x="251" y="98" on="0"/>
        <pt x="301" y="99" on="1"/>
        <pt x="351" y="98" on="0"/>
        <pt x="426" y="139" on="0"/>
        <pt x="475" y="210" on="0"/>
        <pt x="500" y="308" on="0"/>
        <pt x="500" y="365" on="1"/>
        <pt x="500" y="422" on="0"/>
        <pt x="475" y="519" on="0"/>
        <pt x="426" y="591" on="0"/>
        <pt x="351" y="631" on="0"/>
      </contour>
      <contour>
        <pt x="308" y="192" on="1"/>
        <pt x="277" y="192" on="0"/>
        <pt x="225" y="216" on="0"/>
        <pt x="188" y="261" on="0"/>
        <pt x="167" y="324" on="0"/>
        <pt x="167" y="363" on="1"/>
        <pt x="167" y="402" on="0"/>
        <pt x="188" y="465" on="0"/>
        <pt x="225" y="510" on="0"/>
        <pt x="277" y="535" on="0"/>
        <pt x="308" y="535" on="1"/>
        <pt x="332" y="535" on="0"/>
        <pt x="379" y="522" on="0"/>
        <pt x="397" y="513" on="1"/>
        <pt x="388" y="436" on="1"/>
        <pt x="368" y="445" on="0"/>
        <pt x="330" y="458" on="0"/>
        <pt x="308" y="458" on="1"/>
        <pt x="279" y="458" on="0"/>
        <pt x="247" y="406" on="0"/>
        <pt x="247" y="363" on="1"/>
        <pt x="247" y="321" on="0"/>
        <pt x="279" y="268" on="0"/>
        <pt x="308" y="268" on="1"/>
        <pt x="330" y="268" on="0"/>
        <pt x="368" y="281" on="0"/>
        <pt x="388" y="292" on="1"/>
        <pt x="397" y="216" on="1"/>
        <pt x="379" y="205" on="0"/>
        <pt x="331" y="192" on="0"/>
      </contour>
    </TTGlyph>
    <TTGlyph name="currency" xMin="37" yMin="22" xMax="486" yMax="674">
      <contour>
        <pt x="431" y="22" on="1"/>
        <pt x="367" y="122" on="1"/>
        <pt x="324" y="91" on="0"/>
        <pt x="261" y="91" on="1"/>
        <pt x="198" y="91" on="0"/>
        <pt x="155" y="122" on="1"/>
        <pt x="92" y="22" on="1"/>
        <pt x="37" y="64" on="1"/>
        <pt x="99" y="163" on="1"/>
        <pt x="72" y="201" on="0"/>
        <pt x="43" y="295" on="0"/>
        <pt x="43" y="348" on="1"/>
        <pt x="43" y="401" on="0"/>
        <pt x="72" y="495" on="0"/>
        <pt x="100" y="533" on="1"/>
        <pt x="37" y="632" on="1"/>
        <pt x="92" y="674" on="1"/>
        <pt x="156" y="574" on="1"/>
        <pt x="199" y="605" on="0"/>
        <pt x="261" y="605" on="1"/>
        <pt x="323" y="605" on="0"/>
        <pt x="367" y="573" on="1"/>
        <pt x="431" y="674" on="1"/>
        <pt x="486" y="632" on="1"/>
        <pt x="423" y="532" on="1"/>
        <pt x="450" y="494" on="0"/>
        <pt x="479" y="400" on="0"/>
        <pt x="479" y="348" on="1"/>
        <pt x="479" y="295" on="0"/>
        <pt x="449" y="200" on="0"/>
        <pt x="422" y="162" on="1"/>
        <pt x="486" y="64" on="1"/>
      </contour>
      <contour>
        <pt x="261" y="516" on="1"/>
        <pt x="236" y="516" on="0"/>
        <pt x="197" y="491" on="0"/>
        <pt x="170" y="446" on="0"/>
        <pt x="156" y="384" on="0"/>
        <pt x="156" y="348" on="1"/>
        <pt x="156" y="312" on="0"/>
        <pt x="170" y="250" on="0"/>
        <pt x="197" y="205" on="0"/>
        <pt x="236" y="180" on="0"/>
        <pt x="261" y="180" on="1"/>
        <pt x="286" y="180" on="0"/>
        <pt x="325" y="205" on="0"/>
        <pt x="352" y="250" on="0"/>
        <pt x="366" y="312" on="0"/>
        <pt x="366" y="348" on="1"/>
        <pt x="366" y="384" on="0"/>
        <pt x="352" y="446" on="0"/>
        <pt x="325" y="491" on="0"/>
        <pt x="286" y="516" on="0"/>
      </contour>
    </TTGlyph>
    <TTGlyph name="d" xMin="23" yMin="-10" xMax="443" yMax="750">
      <contour>
        <pt x="338" y="0" on="1"/>
        <pt x="338" y="39" on="1"/>
        <pt x="315" y="15" on="0"/>
        <pt x="271" y="-10" on="0"/>
        <pt x="236" y="-10" on="1"/>
        <pt x="183" y="-10" on="0"/>
        <pt x="103" y="31" on="0"/>
        <pt x="50" y="101" on="0"/>
        <pt x="23" y="195" on="0"/>
        <pt x="23" y="248" on="1"/>
        <pt x="23" y="300" on="0"/>
        <pt x="50" y="393" on="0"/>
        <pt x="104" y="464" on="0"/>
        <pt x="183" y="506" on="0"/>
        <pt x="236" y="506" on="1"/>
        <pt x="269" y="506" on="0"/>
        <pt x="313" y="486" on="0"/>
        <pt x="333" y="463" on="1"/>
        <pt x="333" y="750" on="1"/>
        <pt x="443" y="750" on="1"/>
        <pt x="443" y="0" on="1"/>
      </contour>
      <contour>
        <pt x="243" y="410" on="1"/>
        <pt x="217" y="410" on="0"/>
        <pt x="177" y="386" on="0"/>
        <pt x="150" y="343" on="0"/>
        <pt x="135" y="284" on="0"/>
        <pt x="135" y="248" on="1"/>
        <pt x="135" y="213" on="0"/>
        <pt x="150" y="153" on="0"/>
        <pt x="177" y="109" on="0"/>
        <pt x="217" y="85" on="0"/>
        <pt x="243" y="85" on="1"/>
        <pt x="295" y="85" on="0"/>
        <pt x="338" y="169" on="0"/>
        <pt x="338" y="247" on="1"/>
        <pt x="338" y="323" on="0"/>
        <pt x="295" y="410" on="0"/>
      </contour>
    </TTGlyph>
    <TTGlyph name="dagger" xMin="31" yMin="0" xMax="335" yMax="607">
      <contour>
        <pt x="226" y="384" on="1"/>
        <pt x="249" y="255" on="1"/>
        <pt x="224" y="0" on="1"/>
        <pt x="143" y="0" on="1"/>
        <pt x="117" y="255" on="1"/>
        <pt x="141" y="384" on="1"/>
        <pt x="31" y="356" on="1"/>
        <pt x="31" y="474" on="1"/>
        <pt x="141" y="446" on="1"/>
        <pt x="117" y="607" on="1"/>
        <pt x="250" y="607" on="1"/>
        <pt x="225" y="446" on="1"/>
        <pt x="335" y="474" on="1"/>
        <pt x="335" y="356" on="1"/>
      </contour>
    </TTGlyph>
    <TTGlyph name="daggerdbl" xMin="41" yMin="-59" xMax="345" yMax="607">
      <contour>
        <pt x="235" y="101" on="1"/>
        <pt x="260" y="-59" on="1"/>
        <pt x="127" y="-59" on="1"/>
        <pt x="151" y="101" on="1"/>
        <pt x="41" y="74" on="1"/>
        <pt x="41" y="191" on="1"/>
        <pt x="151" y="163" on="1"/>
        <pt x="127" y="274" on="1"/>
        <pt x="151" y="385" on="1"/>
        <pt x="41" y="358" on="1"/>
        <pt x="41" y="475" on="1"/>
        <pt x="151" y="447" on="1"/>
        <pt x="127" y="607" on="1"/>
        <pt x="260" y="607" on="1"/>
        <pt x="235" y="447" on="1"/>
        <pt x="345" y="475" on="1"/>
        <pt x="345" y="358" on="1"/>
        <pt x="236" y="385" on="1"/>
        <pt x="259" y="274" on="1"/>
        <pt x="236" y="163" on="1"/>
        <pt x="345" y="191" on="1"/>
        <pt x="345" y="74" on="1"/>
      </contour>
    </TTGlyph>
    <TTGlyph name="degree" xMin="26" yMin="482" xMax="254" yMax="755">
      <contour>
        <pt x="140" y="482" on="1"/>
        <pt x="113" y="482" on="0"/>
        <pt x="71" y="503" on="0"/>
        <pt x="41" y="540" on="0"/>
        <pt x="26" y="590" on="0"/>
        <pt x="26" y="618" on="1"/>
        <pt x="26" y="646" on="0"/>
        <pt x="41" y="696" on="0"/>
        <pt x="71" y="733" on="0"/>
        <pt x="113" y="755" on="0"/>
        <pt x="140" y="755" on="1"/>
        <pt x="167" y="755" on="0"/>
        <pt x="209" y="733" on="0"/>
        <pt x="239" y="696" on="0"/>
        <pt x="254" y="646" on="0"/>
        <pt x="254" y="618" on="1"/>
        <pt x="254" y="590" on="0"/>
        <pt x="239" y="540" on="0"/>
        <pt x="209" y="503" on="0"/>
        <pt x="167" y="482" on="0"/>
      </contour>
      <contour>
        <pt x="140" y="712" on="1"/>
        <pt x="115" y="712" on="0"/>
        <pt x="86" y="657" on="0"/>
        <pt x="86" y="618" on="1"/>
        <pt x="86" y="578" on="0"/>
        <pt x="115" y="525" on="0"/>
        <pt x="140" y="525" on="1"/>
        <pt x="166" y="525" on="0"/>
        <pt x="193" y="579" on="0"/>
        <pt x="193" y="618" on="1"/>
        <pt x="193" y="657" on="0"/>
        <pt x="166" y="712" on="0"/>
      </contour>
    </TTGlyph>
    <TTGlyph name="dieresis" xMin="75" yMin="596" xMax="288" yMax="700">
      <contour>
        <pt x="202" y="596" on="1"/>
        <pt x="202" y="700" on="1"/>
        <pt x="288" y="700" on="1"/>
        <pt x="288" y="596" on="1"/>
      </contour>
      <contour>
        <pt x="75" y="596" on="1"/>
        <pt x="75" y="700" on="1"/>
        <pt x="161" y="700" on="1"/>
        <pt x="161" y="596" on="1"/>
      </contour>
    </TTGlyph>
    <TTGlyph name="divide" xMin="38" yMin="20" xMax="434" yMax="534">
      <contour>
        <pt x="178" y="415" on="1"/>
        <pt x="178" y="534" on="1"/>
        <pt x="287" y="534" on="1"/>
        <pt x="287" y="415" on="1"/>
      </contour>
      <contour>
        <pt x="38" y="235" on="1"/>
        <pt x="38" y="322" on="1"/>
        <pt x="434" y="322" on="1"/>
        <pt x="434" y="235" on="1"/>
      </contour>
      <contour>
        <pt x="178" y="20" on="1"/>
        <pt x="178" y="139" on="1"/>
        <pt x="287" y="139" on="1"/>
        <pt x="287" y="20" on="1"/>
      </contour>
    </TTGlyph>
    <TTGlyph name="dollar" xMin="32" yMin="-32" xMax="420" yMax="748">
      <contour>
        <pt x="269" y="-32" on="1"/>
        <pt x="176" y="-32" on="1"/>
        <pt x="189" y="80" on="1"/>
        <pt x="139" y="83" on="0"/>
        <pt x="59" y="105" on="0"/>
        <pt x="39" y="119" on="1"/>
        <pt x="54" y="240" on="1"/>
        <pt x="75" y="217" on="0"/>
        <pt x="159" y="179" on="0"/>
        <pt x="216" y="179" on="1"/>
        <pt x="258" y="179" on="0"/>
        <pt x="303" y="203" on="0"/>
        <pt x="303" y="235" on="1"/>
        <pt x="303" y="262" on="0"/>
        <pt x="263" y="295" on="0"/>
        <pt x="203" y="320" on="0"/>
        <pt x="132" y="344" on="0"/>
        <pt x="72" y="379" on="0"/>
        <pt x="32" y="432" on="0"/>
        <pt x="32" y="474" on="1"/>
        <pt x="32" y="499" on="0"/>
        <pt x="48" y="551" on="0"/>
        <pt x="85" y="595" on="0"/>
        <pt x="145" y="627" on="0"/>
        <pt x="189" y="632" on="1"/>
        <pt x="176" y="748" on="1"/>
        <pt x="269" y="748" on="1"/>
        <pt x="255" y="632" on="1"/>
        <pt x="298" y="629" on="0"/>
        <pt x="374" y="606" on="0"/>
        <pt x="392" y="594" on="1"/>
        <pt x="382" y="486" on="1"/>
        <pt x="346" y="507" on="0"/>
        <pt x="265" y="537" on="0"/>
        <pt x="233" y="537" on="1"/>
        <pt x="217" y="537" on="0"/>
        <pt x="183" y="533" on="0"/>
        <pt x="156" y="522" on="0"/>
        <pt x="138" y="502" on="0"/>
        <pt x="138" y="486" on="1"/>
        <pt x="138" y="461" on="0"/>
        <pt x="180" y="432" on="0"/>
        <pt x="242" y="410" on="0"/>
        <pt x="316" y="387" on="0"/>
        <pt x="378" y="348" on="0"/>
        <pt x="420" y="286" on="0"/>
        <pt x="420" y="236" on="1"/>
        <pt x="420" y="215" on="0"/>
        <pt x="408" y="165" on="0"/>
        <pt x="372" y="120" on="0"/>
        <pt x="307" y="86" on="0"/>
        <pt x="255" y="81" on="1"/>
      </contour>
    </TTGlyph>
    <TTGlyph name="dotlessi" xMin="48" yMin="0" xMax="158" yMax="497">
      <contour>
        <pt x="48" y="0" on="1"/>
        <pt x="48" y="497" on="1"/>
        <pt x="158" y="497" on="1"/>
        <pt x="158" y="0" on="1"/>
      </contour>
    </TTGlyph>
    <TTGlyph name="e" xMin="24" yMin="-10" xMax="420" yMax="506">
      <contour>
        <pt x="138" y="230" on="1"/>
        <pt x="142" y="190" on="0"/>
        <pt x="167" y="135" on="0"/>
        <pt x="202" y="100" on="0"/>
        <pt x="243" y="85" on="0"/>
        <pt x="263" y="85" on="1"/>
        <pt x="278" y="85" on="0"/>
        <pt x="314" y="91" on="0"/>
        <pt x="350" y="101" on="0"/>
        <pt x="384" y="114" on="0"/>
        <pt x="397" y="122" on="1"/>
        <pt x="401" y="28" on="1"/>
        <pt x="376" y="14" on="0"/>
        <pt x="303" y="-10" on="0"/>
        <pt x="257" y="-10" on="1"/>
        <pt x="198" y="-10" on="0"/>
        <pt x="111" y="32" on="0"/>
        <pt x="53" y="102" on="0"/>
        <pt x="24" y="196" on="0"/>
        <pt x="24" y="249" on="1"/>
        <pt x="24" y="301" on="0"/>
        <pt x="51" y="394" on="0"/>
        <pt x="103" y="464" on="0"/>
        <pt x="180" y="506" on="0"/>
        <pt x="230" y="506" on="1"/>
        <pt x="271" y="506" on="0"/>
        <pt x="340" y="476" on="0"/>
        <pt x="391" y="421" on="0"/>
        <pt x="420" y="341" on="0"/>
        <pt x="420" y="292" on="1"/>
        <pt x="420" y="261" on="0"/>
        <pt x="413" y="230" on="1"/>
      </contour>
      <contour>
        <pt x="234" y="410" on="1"/>
        <pt x="194" y="410" on="0"/>
        <pt x="148" y="353" on="0"/>
        <pt x="140" y="307" on="1"/>
        <pt x="308" y="307" on="1"/>
        <pt x="308" y="326" on="0"/>
        <pt x="301" y="364" on="0"/>
        <pt x="283" y="392" on="0"/>
        <pt x="255" y="410" on="0"/>
      </contour>
    </TTGlyph>
    <TTGlyph name="eacute" xMin="24" yMin="-10" xMax="420" yMax="744">
      <component glyphName="e" x="0" y="0" flags="0x4"/>
      <component glyphName="acute" x="91" y="0" flags="0x4"/>
    </TTGlyph>
    <TTGlyph name="ecircumflex" xMin="24" yMin="-10" xMax="420" yMax="748">
      <component glyphName="e" x="0" y="0" flags="0x4"/>
      <component glyphName="circumflex" x="30" y="0" flags="0x4"/>
    </TTGlyph>
    <TTGlyph name="edieresis" xMin="24" yMin="-10" xMax="420" yMax="700">
      <component glyphName="e" x="0" y="0" flags="0x4"/>
      <component glyphName="dieresis" x="39" y="0" flags="0x4"/>
    </TTGlyph>
    <TTGlyph name="egrave" xMin="24" yMin="-10" xMax="420" yMax="744">
      <component glyphName="e" x="0" y="0" flags="0x4"/>
      <component glyphName="grave" x="91" y="0" flags="0x4"/>
    </TTGlyph>
    <TTGlyph name="eight" xMin="46" yMin="-14" xMax="467" yMax="714">
      <contour>
        <pt x="248" y="-14" on="1"/>
        <pt x="195" y="-14" on="0"/>
        <pt x="119" y="20" on="0"/>
        <pt x="70" y="77" on="0"/>
        <pt x="46" y="148" on="0"/>
        <pt x="46" y="186" on="1"/>
        <pt x="46" y="233" on="0"/>
        <pt x="85" y="332" on="0"/>
        <pt x="136" y="377" on="1"/>
        <pt x="105" y="411" on="0"/>
        <pt x="80" y="496" on="0"/>
        <pt x="80" y="538" on="1"/>
        <pt x="80" y="571" on="0"/>
        <pt x="98" y="635" on="0"/>
        <pt x="140" y="684" on="0"/>
        <pt x="209" y="714" on="0"/>
        <pt x="260" y="714" on="1"/>
        <pt x="309" y="714" on="0"/>
        <pt x="376" y="687" on="0"/>
        <pt x="417" y="642" on="0"/>
        <pt x="435" y="584" on="0"/>
        <pt x="435" y="553" on="1"/>
        <pt x="435" y="500" on="0"/>
        <pt x="396" y="424" on="0"/>
        <pt x="364" y="386" on="1"/>
        <pt x="409" y="360" on="0"/>
        <pt x="467" y="268" on="0"/>
        <pt x="467" y="202" on="1"/>
        <pt x="467" y="165" on="0"/>
        <pt x="442" y="89" on="0"/>
        <pt x="389" y="26" on="0"/>
        <pt x="306" y="-14" on="0"/>
      </contour>
      <contour>
        <pt x="256" y="618" on="1"/>
        <pt x="212" y="618" on="0"/>
        <pt x="178" y="566" on="0"/>
        <pt x="178" y="528" on="1"/>
        <pt x="178" y="513" on="0"/>
        <pt x="183" y="482" on="0"/>
        <pt x="199" y="455" on="0"/>
        <pt x="228" y="432" on="0"/>
        <pt x="252" y="424" on="1"/>
        <pt x="298" y="440" on="0"/>
        <pt x="331" y="500" on="0"/>
        <pt x="331" y="535" on="1"/>
        <pt x="331" y="552" on="0"/>
        <pt x="324" y="582" on="0"/>
        <pt x="307" y="605" on="0"/>
        <pt x="278" y="618" on="0"/>
      </contour>
      <contour>
        <pt x="260" y="334" on="1"/>
        <pt x="240" y="329" on="0"/>
        <pt x="202" y="308" on="0"/>
        <pt x="172" y="273" on="0"/>
        <pt x="153" y="224" on="0"/>
        <pt x="153" y="193" on="1"/>
        <pt x="153" y="139" on="0"/>
        <pt x="206" y="83" on="0"/>
        <pt x="252" y="83" on="1"/>
        <pt x="303" y="83" on="0"/>
        <pt x="357" y="147" on="0"/>
        <pt x="357" y="200" on="1"/>
        <pt x="357" y="228" on="0"/>
        <pt x="341" y="272" on="0"/>
        <pt x="314" y="305" on="0"/>
        <pt x="279" y="328" on="0"/>
      </contour>
    </TTGlyph>
    <TTGlyph name="ellipsis" xMin="46" yMin="0" xMax="562" yMax="116">
      <contour>
        <pt x="46" y="0" on="1"/>
        <pt x="46" y="116" on="1"/>
        <pt x="156" y="116" on="1"/>
        <pt x="156" y="0" on="1"/>
      </contour>
      <contour>
        <pt x="249" y="0" on="1"/>
        <pt x="249" y="116" on="1"/>
        <pt x="359" y="116" on="1"/>
        <pt x="359" y="0" on="1"/>
      </contour>
      <contour>
        <pt x="452" y="0" on="1"/>
        <pt x="452" y="116" on="1"/>
        <pt x="562" y="116" on="1"/>
        <pt x="562" y="0" on="1"/>
      </contour>
    </TTGlyph>
    <TTGlyph name="emdash" xMin="42" yMin="232" xMax="455" yMax="324">
      <contour>
        <pt x="42" y="232" on="1"/>
        <pt x="42" y="324" on="1"/>
        <pt x="455" y="324" on="1"/>
        <pt x="455" y="232" on="1"/>
      </contour>
    </TTGlyph>
    <TTGlyph name="endash" xMin="42" yMin="232" xMax="376" yMax="324">
      <contour>
        <pt x="42" y="232" on="1"/>
        <pt x="42" y="324" on="1"/>
        <pt x="376" y="324" on="1"/>
        <pt x="376" y="232" on="1"/>
      </contour>
    </TTGlyph>
    <TTGlyph name="equal" xMin="52" yMin="153" xMax="370" yMax="401">
      <contour>
        <pt x="52" y="312" on="1"/>
        <pt x="52" y="401" on="1"/>
        <pt x="370" y="401" on="1"/>
        <pt x="370" y="312" on="1"/>
      </contour>
      <contour>
        <pt x="52" y="153" on="1"/>
        <pt x="52" y="242" on="1"/>
        <pt x="370" y="242" on="1"/>
        <pt x="370" y="153" on="1"/>
      </contour>
    </TTGlyph>
    <TTGlyph name="eth" xMin="18" yMin="-13" xMax="410" yMax="711">
      <contour>
        <pt x="212" y="-13" on="1"/>
        <pt x="171" y="-13" on="0"/>
        <pt x="100" y="19" on="0"/>
        <pt x="48" y="77" on="0"/>
        <pt x="18" y="157" on="0"/>
        <pt x="18" y="204" on="1"/>
        <pt x="18" y="244" on="0"/>
        <pt x="41" y="323" on="0"/>
        <pt x="87" y="386" on="0"/>
        <pt x="155" y="426" on="0"/>
        <pt x="200" y="426" on="1"/>
        <pt x="235" y="426" on="0"/>
        <pt x="282" y="399" on="0"/>
        <pt x="299" y="382" on="1"/>
        <pt x="298" y="398" on="0"/>
        <pt x="288" y="446" on="0"/>
        <pt x="272" y="494" on="0"/>
        <pt x="252" y="535" on="0"/>
        <pt x="242" y="545" on="1"/>
        <pt x="191" y="495" on="0"/>
        <pt x="124" y="486" on="1"/>
        <pt x="91" y="554" on="1"/>
        <pt x="112" y="555" on="0"/>
        <pt x="167" y="578" on="0"/>
        <pt x="193" y="600" on="1"/>
        <pt x="170" y="624" on="0"/>
        <pt x="118" y="646" on="0"/>
        <pt x="91" y="651" on="1"/>
        <pt x="128" y="701" on="1"/>
        <pt x="195" y="699" on="0"/>
        <pt x="252" y="648" on="1"/>
        <pt x="266" y="665" on="0"/>
        <pt x="291" y="695" on="0"/>
        <pt x="300" y="711" on="1"/>
        <pt x="360" y="696" on="1"/>
        <pt x="346" y="672" on="0"/>
        <pt x="317" y="628" on="0"/>
        <pt x="300" y="605" on="1"/>
        <pt x="324" y="575" on="0"/>
        <pt x="364" y="498" on="0"/>
        <pt x="394" y="409" on="0"/>
        <pt x="410" y="310" on="0"/>
        <pt x="410" y="258" on="1"/>
        <pt x="410" y="178" on="0"/>
        <pt x="373" y="73" on="0"/>
        <pt x="316" y="11" on="0"/>
        <pt x="246" y="-13" on="0"/>
      </contour>
      <contour>
        <pt x="211" y="333" on="1"/>
        <pt x="188" y="333" on="0"/>
        <pt x="154" y="312" on="0"/>
        <pt x="132" y="279" on="0"/>
        <pt x="121" y="238" on="0"/>
        <pt x="121" y="217" on="1"/>
        <pt x="121" y="190" on="0"/>
        <pt x="132" y="142" on="0"/>
        <pt x="154" y="105" on="0"/>
        <pt x="190" y="83" on="0"/>
        <pt x="214" y="83" on="1"/>
        <pt x="231" y="83" on="0"/>
        <pt x="264" y="98" on="0"/>
        <pt x="290" y="129" on="0"/>
        <pt x="306" y="176" on="0"/>
        <pt x="306" y="207" on="1"/>
        <pt x="306" y="265" on="0"/>
        <pt x="259" y="333" on="0"/>
      </contour>
    </TTGlyph>
    <TTGlyph name="exclam" xMin="53" yMin="0" xMax="164" yMax="750">
      <contour>
        <pt x="146" y="200" on="1"/>
        <pt x="71" y="200" on="1"/>
        <pt x="53" y="750" on="1"/>
        <pt x="162" y="750" on="1"/>
      </contour>
      <contour>
        <pt x="53" y="0" on="1"/>
        <pt x="53" y="112" on="1"/>
        <pt x="164" y="112" on="1"/>
        <pt x="164" y="0" on="1"/>
      </contour>
    </TTGlyph>
    <TTGlyph name="exclamdown" xMin="53" yMin="-250" xMax="164" yMax="500">
      <component glyphName="exclam" x="0" y="500" scalex="1.0" scaley="-0.999938964844" flags="0x4"/>
    </TTGlyph>
    <TTGlyph name="f" xMin="15" yMin="0" xMax="278" yMax="750">
      <contour>
        <pt x="185" y="405" on="1"/>
        <pt x="185" y="0" on="1"/>
        <pt x="75" y="0" on="1"/>
        <pt x="75" y="405" on="1"/>
        <pt x="15" y="405" on="1"/>
        <pt x="25" y="497" on="1"/>
        <pt x="75" y="497" on="1"/>
        <pt x="75" y="617" on="1"/>
        <pt x="75" y="643" on="0"/>
        <pt x="88" y="691" on="0"/>
        <pt x="113" y="728" on="0"/>
        <pt x="152" y="750" on="0"/>
        <pt x="179" y="750" on="1"/>
        <pt x="200" y="750" on="0"/>
        <pt x="228" y="749" on="0"/>
        <pt x="249" y="746" on="0"/>
        <pt x="266" y="743" on="0"/>
        <pt x="277" y="742" on="1"/>
        <pt x="268" y="647" on="1"/>
        <pt x="254" y="652" on="0"/>
        <pt x="228" y="653" on="0"/>
        <pt x="223" y="653" on="1"/>
        <pt x="211" y="653" on="0"/>
        <pt x="197" y="645" on="0"/>
        <pt x="188" y="625" on="0"/>
        <pt x="185" y="590" on="0"/>
        <pt x="185" y="562" on="1"/>
        <pt x="185" y="497" on="1"/>
        <pt x="278" y="497" on="1"/>
        <pt x="278" y="405" on="1"/>
      </contour>
    </TTGlyph>
    <TTGlyph name="five" xMin="42" yMin="-13" xMax="419" yMax="700">
      <contour>
        <pt x="201" y="-13" on="1"/>
        <pt x="171" y="-13" on="0"/>
        <pt x="115" y="-2" on="0"/>
        <pt x="70" y="14" on="0"/>
        <pt x="43" y="31" on="0"/>
        <pt x="42" y="37" on="1"/>
        <pt x="68" y="145" on="1"/>
        <pt x="88" y="125" on="0"/>
        <pt x="156" y="96" on="0"/>
        <pt x="197" y="96" on="1"/>
        <pt x="218" y="96" on="0"/>
        <pt x="259" y="112" on="0"/>
        <pt x="291" y="144" on="0"/>
        <pt x="310" y="194" on="0"/>
        <pt x="310" y="228" on="1"/>
        <pt x="310" y="252" on="0"/>
        <pt x="300" y="293" on="0"/>
        <pt x="269" y="323" on="0"/>
        <pt x="213" y="339" on="0"/>
        <pt x="167" y="339" on="1"/>
        <pt x="73" y="339" on="1"/>
        <pt x="111" y="700" on="1"/>
        <pt x="387" y="700" on="1"/>
        <pt x="376" y="588" on="1"/>
        <pt x="195" y="588" on="1"/>
        <pt x="181" y="439" on="1"/>
        <pt x="304" y="437" on="0"/>
        <pt x="419" y="339" on="0"/>
        <pt x="419" y="233" on="1"/>
        <pt x="419" y="173" on="0"/>
        <pt x="382" y="81" on="0"/>
        <pt x="320" y="19" on="0"/>
        <pt x="242" y="-13" on="0"/>
      </contour>
    </TTGlyph>
    <TTGlyph name="florin" xMin="-25" yMin="-242" xMax="330" yMax="714">
      <contour>
        <pt x="321" y="620" on="1"/>
        <pt x="294" y="628" on="0"/>
        <pt x="278" y="628" on="1"/>
        <pt x="243" y="628" on="0"/>
        <pt x="212" y="569" on="0"/>
        <pt x="204" y="497" on="1"/>
        <pt x="311" y="497" on="1"/>
        <pt x="303" y="423" on="1"/>
        <pt x="192" y="423" on="1"/>
        <pt x="126" y="-84" on="1"/>
        <pt x="120" y="-130" on="0"/>
        <pt x="95" y="-191" on="0"/>
        <pt x="65" y="-227" on="0"/>
        <pt x="33" y="-242" on="0"/>
        <pt x="21" y="-242" on="1"/>
        <pt x="-7" y="-242" on="1"/>
        <pt x="-25" y="-152" on="1"/>
        <pt x="0" y="-150" on="0"/>
        <pt x="27" y="-116" on="0"/>
        <pt x="33" y="-65" on="1"/>
        <pt x="93" y="423" on="1"/>
        <pt x="27" y="423" on="1"/>
        <pt x="35" y="497" on="1"/>
        <pt x="103" y="497" on="1"/>
        <pt x="109" y="543" on="1"/>
        <pt x="119" y="624" on="0"/>
        <pt x="207" y="714" on="0"/>
        <pt x="268" y="714" on="1"/>
        <pt x="298" y="714" on="0"/>
        <pt x="330" y="702" on="1"/>
      </contour>
    </TTGlyph>
    <TTGlyph name="four" xMin="7" yMin="0" xMax="452" yMax="700">
      <contour>
        <pt x="379" y="190" on="1"/>
        <pt x="379" y="0" on="1"/>
        <pt x="266" y="0" on="1"/>
        <pt x="266" y="190" on="1"/>
        <pt x="7" y="190" on="1"/>
        <pt x="284" y="700" on="1"/>
        <pt x="379" y="700" on="1"/>
        <pt x="379" y="288" on="1"/>
        <pt x="452" y="288" on="1"/>
        <pt x="452" y="190" on="1"/>
      </contour>
      <contour>
        <pt x="266" y="512" on="1"/>
        <pt x="159" y="288" on="1"/>
        <pt x="266" y="288" on="1"/>
      </contour>
    </TTGlyph>
    <TTGlyph name="g" xMin="21" yMin="-250" xMax="430" yMax="506">
      <contour>
        <pt x="225" y="-250" on="1"/>
        <pt x="171" y="-250" on="0"/>
        <pt x="94" y="-224" on="0"/>
        <pt x="45" y="-182" on="0"/>
        <pt x="21" y="-129" on="0"/>
        <pt x="21" y="-102" on="1"/>
        <pt x="21" y="-71" on="0"/>
        <pt x="59" y="-11" on="0"/>
        <pt x="91" y="9" on="1"/>
        <pt x="74" y="23" on="0"/>
        <pt x="53" y="58" on="0"/>
        <pt x="53" y="78" on="1"/>
        <pt x="53" y="120" on="0"/>
        <pt x="95" y="148" on="1"/>
        <pt x="64" y="178" on="0"/>
        <pt x="30" y="262" on="0"/>
        <pt x="30" y="309" on="1"/>
        <pt x="30" y="349" on="0"/>
        <pt x="53" y="421" on="0"/>
        <pt x="97" y="475" on="0"/>
        <pt x="162" y="506" on="0"/>
        <pt x="204" y="506" on="1"/>
        <pt x="263" y="506" on="0"/>
        <pt x="301" y="474" on="1"/>
        <pt x="314" y="483" on="0"/>
        <pt x="362" y="498" on="0"/>
        <pt x="392" y="498" on="1"/>
        <pt x="422" y="498" on="1"/>
        <pt x="415" y="425" on="1"/>
        <pt x="375" y="425" on="1"/>
        <pt x="366" y="425" on="0"/>
        <pt x="354" y="422" on="1"/>
        <pt x="365" y="396" on="0"/>
        <pt x="378" y="339" on="0"/>
        <pt x="378" y="310" on="1"/>
        <pt x="378" y="271" on="0"/>
        <pt x="355" y="200" on="0"/>
        <pt x="311" y="146" on="0"/>
        <pt x="246" y="114" on="0"/>
        <pt x="204" y="114" on="1"/>
        <pt x="182" y="114" on="0"/>
        <pt x="160" y="120" on="1"/>
        <pt x="152" y="112" on="0"/>
        <pt x="152" y="100" on="1"/>
        <pt x="152" y="81" on="0"/>
        <pt x="205" y="64" on="0"/>
        <pt x="256" y="55" on="1"/>
        <pt x="279" y="51" on="0"/>
        <pt x="339" y="36" on="0"/>
        <pt x="393" y="4" on="0"/>
        <pt x="430" y="-49" on="0"/>
        <pt x="430" y="-91" on="1"/>
        <pt x="430" y="-126" on="0"/>
        <pt x="403" y="-184" on="0"/>
        <pt x="350" y="-226" on="0"/>
        <pt x="274" y="-250" on="0"/>
      </contour>
      <contour>
        <pt x="204" y="420" on="1"/>
        <pt x="166" y="420" on="0"/>
        <pt x="127" y="360" on="0"/>
        <pt x="127" y="309" on="1"/>
        <pt x="127" y="258" on="0"/>
        <pt x="166" y="198" on="0"/>
        <pt x="204" y="198" on="1"/>
        <pt x="242" y="198" on="0"/>
        <pt x="280" y="260" on="0"/>
        <pt x="280" y="310" on="1"/>
        <pt x="280" y="361" on="0"/>
        <pt x="242" y="420" on="0"/>
      </contour>
      <contour>
        <pt x="219" y="-31" on="1"/>
        <pt x="206" y="-29" on="0"/>
        <pt x="185" y="-21" on="0"/>
        <pt x="170" y="-19" on="1"/>
        <pt x="147" y="-28" on="0"/>
        <pt x="111" y="-65" on="0"/>
        <pt x="111" y="-93" on="1"/>
        <pt x="111" y="-126" on="0"/>
        <pt x="167" y="-168" on="0"/>
        <pt x="219" y="-168" on="1"/>
        <pt x="243" y="-168" on="0"/>
        <pt x="284" y="-157" on="0"/>
        <pt x="315" y="-138" on="0"/>
        <pt x="333" y="-112" on="0"/>
        <pt x="333" y="-96" on="1"/>
        <pt x="333" y="-80" on="0"/>
        <pt x="312" y="-57" on="0"/>
        <pt x="279" y="-41" on="0"/>
        <pt x="238" y="-33" on="0"/>
      </contour>
    </TTGlyph>
    <TTGlyph name="germandbls" xMin="16" yMin="-136" xMax="468" yMax="750">
      <contour>
        <pt x="278" y="-10" on="1"/>
        <pt x="267" y="-10" on="0"/>
        <pt x="240" y="-8" on="0"/>
        <pt x="226" y="-6" on="1"/>
        <pt x="226" y="85" on="1"/>
        <pt x="258" y="85" on="0"/>
        <pt x="307" y="87" on="0"/>
        <pt x="340" y="100" on="0"/>
        <pt x="356" y="127" on="0"/>
        <pt x="356" y="152" on="1"/>
        <pt x="356" y="192" on="0"/>
        <pt x="319" y="250" on="0"/>
        <pt x="276" y="296" on="0"/>
        <pt x="239" y="338" on="0"/>
        <pt x="239" y="363" on="1"/>
        <pt x="239" y="383" on="0"/>
        <pt x="262" y="423" on="0"/>
        <pt x="290" y="469" on="0"/>
        <pt x="313" y="527" on="0"/>
        <pt x="313" y="565" on="1"/>
        <pt x="313" y="615" on="0"/>
        <pt x="271" y="653" on="0"/>
        <pt x="247" y="653" on="1"/>
        <pt x="186" y="653" on="0"/>
        <pt x="186" y="556" on="1"/>
        <pt x="186" y="-136" on="1"/>
        <pt x="76" y="-136" on="1"/>
        <pt x="76" y="405" on="1"/>
        <pt x="16" y="405" on="1"/>
        <pt x="25" y="497" on="1"/>
        <pt x="76" y="497" on="1"/>
        <pt x="76" y="562" on="1"/>
        <pt x="76" y="606" on="0"/>
        <pt x="105" y="676" on="0"/>
        <pt x="153" y="724" on="0"/>
        <pt x="215" y="750" on="0"/>
        <pt x="248" y="750" on="1"/>
        <pt x="279" y="750" on="0"/>
        <pt x="340" y="730" on="0"/>
        <pt x="388" y="686" on="0"/>
        <pt x="418" y="618" on="0"/>
        <pt x="418" y="569" on="1"/>
        <pt x="418" y="527" on="0"/>
        <pt x="398" y="462" on="0"/>
        <pt x="375" y="414" on="0"/>
        <pt x="355" y="381" on="0"/>
        <pt x="355" y="370" on="1"/>
        <pt x="355" y="356" on="0"/>
        <pt x="390" y="323" on="0"/>
        <pt x="433" y="274" on="0"/>
        <pt x="468" y="203" on="0"/>
        <pt x="468" y="151" on="1"/>
        <pt x="468" y="107" on="0"/>
        <pt x="437" y="45" on="0"/>
        <pt x="385" y="7" on="0"/>
        <pt x="316" y="-10" on="0"/>
      </contour>
    </TTGlyph>
    <TTGlyph name="grave" xMin="50" yMin="588" xMax="211" yMax="744">
      <contour>
        <pt x="50" y="650" on="1"/>
        <pt x="50" y="744" on="1"/>
        <pt x="211" y="652" on="1"/>
        <pt x="211" y="588" on="1"/>
      </contour>
    </TTGlyph>
    <TTGlyph name="greater" xMin="42" yMin="78" xMax="356" yMax="490">
      <contour>
        <pt x="174" y="78" on="1"/>
        <pt x="42" y="78" on="1"/>
        <pt x="224" y="284" on="1"/>
        <pt x="42" y="490" on="1"/>
        <pt x="174" y="490" on="1"/>
        <pt x="356" y="284" on="1"/>
      </contour>
    </TTGlyph>
    <TTGlyph name="guillemotleft" xMin="10" yMin="78" xMax="496" yMax="490">
      <contour>
        <pt x="364" y="78" on="1"/>
        <pt x="234" y="284" on="1"/>
        <pt x="364" y="490" on="1"/>
        <pt x="496" y="490" on="1"/>
        <pt x="364" y="284" on="1"/>
        <pt x="496" y="78" on="1"/>
      </contour>
      <contour>
        <pt x="141" y="78" on="1"/>
        <pt x="10" y="284" on="1"/>
        <pt x="141" y="490" on="1"/>
        <pt x="272" y="490" on="1"/>
        <pt x="141" y="284" on="1"/>
        <pt x="272" y="78" on="1"/>
      </contour>
    </TTGlyph>
    <TTGlyph name="guillemotright" xMin="27" yMin="78" xMax="513" yMax="490">
      <contour>
        <pt x="381" y="78" on="1"/>
        <pt x="251" y="78" on="1"/>
        <pt x="381" y="284" on="1"/>
        <pt x="251" y="490" on="1"/>
        <pt x="381" y="490" on="1"/>
        <pt x="513" y="284" on="1"/>
      </contour>
      <contour>
        <pt x="158" y="78" on="1"/>
        <pt x="27" y="78" on="1"/>
        <pt x="158" y="284" on="1"/>
        <pt x="27" y="490" on="1"/>
        <pt x="158" y="490" on="1"/>
        <pt x="289" y="284" on="1"/>
      </contour>
    </TTGlyph>
    <TTGlyph name="guilsinglleft" xMin="10" yMin="78" xMax="270" yMax="490">
      <contour>
        <pt x="140" y="78" on="1"/>
        <pt x="10" y="284" on="1"/>
        <pt x="140" y="490" on="1"/>
        <pt x="270" y="490" on="1"/>
        <pt x="140" y="284" on="1"/>
        <pt x="270" y="78" on="1"/>
      </contour>
    </TTGlyph>
    <TTGlyph name="guilsinglright" xMin="29" yMin="78" xMax="289" yMax="490">
      <contour>
        <pt x="159" y="78" on="1"/>
        <pt x="29" y="78" on="1"/>
        <pt x="159" y="284" on="1"/>
        <pt x="29" y="490" on="1"/>
        <pt x="159" y="490" on="1"/>
        <pt x="289" y="284" on="1"/>
      </contour>
    </TTGlyph>
    <TTGlyph name="h" xMin="48" yMin="0" xMax="429" yMax="750">
      <contour>
        <pt x="319" y="0" on="1"/>
        <pt x="319" y="267" on="1"/>
        <pt x="319" y="342" on="0"/>
        <pt x="280" y="410" on="0"/>
        <pt x="235" y="410" on="1"/>
        <pt x="209" y="410" on="0"/>
        <pt x="172" y="385" on="0"/>
        <pt x="158" y="361" on="1"/>
        <pt x="158" y="0" on="1"/>
        <pt x="48" y="0" on="1"/>
        <pt x="48" y="750" on="1"/>
        <pt x="158" y="750" on="1"/>
        <pt x="158" y="462" on="1"/>
        <pt x="177" y="482" on="0"/>
        <pt x="221" y="506" on="0"/>
        <pt x="244" y="506" on="1"/>
        <pt x="295" y="506" on="0"/>
        <pt x="365" y="471" on="0"/>
        <pt x="409" y="408" on="0"/>
        <pt x="429" y="320" on="0"/>
        <pt x="429" y="267" on="1"/>
        <pt x="429" y="0" on="1"/>
      </contour>
    </TTGlyph>
    <TTGlyph name="hyphen" xMin="42" yMin="232" xMax="309" yMax="324">
      <contour>
        <pt x="42" y="232" on="1"/>
        <pt x="42" y="324" on="1"/>
        <pt x="309" y="324" on="1"/>
        <pt x="309" y="232" on="1"/>
      </contour>
    </TTGlyph>
    <TTGlyph name="i" xMin="48" yMin="0" xMax="158" yMax="700">
      <contour>
        <pt x="48" y="583" on="1"/>
        <pt x="48" y="700" on="1"/>
        <pt x="158" y="700" on="1"/>
        <pt x="158" y="583" on="1"/>
      </contour>
      <contour>
        <pt x="48" y="0" on="1"/>
        <pt x="48" y="497" on="1"/>
        <pt x="158" y="497" on="1"/>
        <pt x="158" y="0" on="1"/>
      </contour>
    </TTGlyph>
    <TTGlyph name="iacute" xMin="24" yMin="0" xMax="185" yMax="744">
      <component glyphName="dotlessi" x="0" y="0" flags="0x204"/>
      <component glyphName="acute" x="-26" y="0" flags="0x4"/>
    </TTGlyph>
    <TTGlyph name="icircumflex" xMin="-22" yMin="0" xMax="231" yMax="748">
      <component glyphName="dotlessi" x="0" y="0" flags="0x204"/>
      <component glyphName="circumflex" x="-87" y="0" flags="0x4"/>
    </TTGlyph>
    <TTGlyph name="idieresis" xMin="-2" yMin="0" xMax="211" yMax="700">
      <component glyphName="dotlessi" x="0" y="0" flags="0x204"/>
      <component glyphName="dieresis" x="-77" y="0" flags="0x4"/>
    </TTGlyph>
    <TTGlyph name="igrave" xMin="24" yMin="0" xMax="185" yMax="744">
      <component glyphName="dotlessi" x="0" y="0" flags="0x204"/>
      <component glyphName="grave" x="-26" y="0" flags="0x4"/>
    </TTGlyph>
    <TTGlyph name="j" xMin="-2" yMin="-242" xMax="158" yMax="700">
      <contour>
        <pt x="8" y="-242" on="1"/>
        <pt x="-2" y="-150" on="1"/>
        <pt x="15" y="-149" on="0"/>
        <pt x="35" y="-144" on="0"/>
        <pt x="45" y="-127" on="0"/>
        <pt x="48" y="-94" on="0"/>
        <pt x="48" y="-64" on="1"/>
        <pt x="48" y="497" on="1"/>
        <pt x="158" y="497" on="1"/>
        <pt x="158" y="-110" on="1"/>
        <pt x="158" y="-170" on="0"/>
        <pt x="108" y="-238" on="0"/>
        <pt x="48" y="-240" on="1"/>
      </contour>
      <contour>
        <pt x="48" y="583" on="1"/>
        <pt x="48" y="700" on="1"/>
        <pt x="158" y="700" on="1"/>
        <pt x="158" y="583" on="1"/>
      </contour>
    </TTGlyph>
    <TTGlyph name="k" xMin="48" yMin="0" xMax="416" yMax="750">
      <contour>
        <pt x="48" y="0" on="1"/>
        <pt x="48" y="750" on="1"/>
        <pt x="158" y="750" on="1"/>
        <pt x="158" y="287" on="1"/>
        <pt x="292" y="497" on="1"/>
        <pt x="416" y="497" on="1"/>
        <pt x="260" y="261" on="1"/>
        <pt x="415" y="0" on="1"/>
        <pt x="291" y="0" on="1"/>
        <pt x="158" y="230" on="1"/>
        <pt x="158" y="0" on="1"/>
      </contour>
    </TTGlyph>
    <TTGlyph name="l" xMin="49" yMin="-10" xMax="209" yMax="750">
      <contour>
        <pt x="199" y="-10" on="1"/>
        <pt x="159" y="-10" on="1"/>
        <pt x="130" y="-10" on="0"/>
        <pt x="89" y="11" on="0"/>
        <pt x="62" y="45" on="0"/>
        <pt x="49" y="91" on="0"/>
        <pt x="49" y="117" on="1"/>
        <pt x="49" y="750" on="1"/>
        <pt x="159" y="750" on="1"/>
        <pt x="159" y="168" on="1"/>
        <pt x="159" y="138" on="0"/>
        <pt x="163" y="103" on="0"/>
        <pt x="174" y="87" on="0"/>
        <pt x="194" y="83" on="0"/>
        <pt x="209" y="83" on="1"/>
      </contour>
    </TTGlyph>
    <TTGlyph name="less" xMin="28" yMin="78" xMax="342" yMax="490">
      <contour>
        <pt x="210" y="78" on="1"/>
        <pt x="28" y="284" on="1"/>
        <pt x="210" y="490" on="1"/>
        <pt x="342" y="490" on="1"/>
        <pt x="160" y="284" on="1"/>
        <pt x="342" y="78" on="1"/>
      </contour>
    </TTGlyph>
    <TTGlyph name="logicalnot" xMin="42" yMin="151" xMax="438" yMax="406">
      <contour>
        <pt x="353" y="151" on="1"/>
        <pt x="353" y="323" on="1"/>
        <pt x="42" y="323" on="1"/>
        <pt x="42" y="406" on="1"/>
        <pt x="438" y="406" on="1"/>
        <pt x="438" y="151" on="1"/>
      </contour>
    </TTGlyph>
    <TTGlyph name="m" xMin="50" yMin="0" xMax="699" yMax="506">
      <contour>
        <pt x="589" y="0" on="1"/>
        <pt x="589" y="275" on="1"/>
        <pt x="589" y="344" on="0"/>
        <pt x="555" y="410" on="0"/>
        <pt x="511" y="410" on="1"/>
        <pt x="486" y="410" on="0"/>
        <pt x="454" y="391" on="0"/>
        <pt x="436" y="359" on="0"/>
        <pt x="429" y="320" on="0"/>
        <pt x="429" y="301" on="1"/>
        <pt x="429" y="0" on="1"/>
        <pt x="320" y="0" on="1"/>
        <pt x="320" y="269" on="1"/>
        <pt x="320" y="311" on="0"/>
        <pt x="311" y="366" on="0"/>
        <pt x="290" y="397" on="0"/>
        <pt x="258" y="410" on="0"/>
        <pt x="235" y="410" on="1"/>
        <pt x="188" y="410" on="0"/>
        <pt x="160" y="362" on="1"/>
        <pt x="160" y="0" on="1"/>
        <pt x="50" y="0" on="1"/>
        <pt x="50" y="497" on="1"/>
        <pt x="141" y="497" on="1"/>
        <pt x="147" y="454" on="1"/>
        <pt x="164" y="478" on="0"/>
        <pt x="221" y="506" on="0"/>
        <pt x="255" y="506" on="1"/>
        <pt x="293" y="506" on="0"/>
        <pt x="363" y="469" on="0"/>
        <pt x="385" y="423" on="1"/>
        <pt x="390" y="438" on="0"/>
        <pt x="413" y="468" on="0"/>
        <pt x="449" y="492" on="0"/>
        <pt x="497" y="506" on="0"/>
        <pt x="526" y="506" on="1"/>
        <pt x="614" y="506" on="0"/>
        <pt x="699" y="381" on="0"/>
        <pt x="699" y="275" on="1"/>
        <pt x="699" y="0" on="1"/>
      </contour>
    </TTGlyph>
    <TTGlyph name="mu" xMin="56" yMin="-242" xMax="489" yMax="497">
      <contour>
        <pt x="480" y="-10" on="1"/>
        <pt x="439" y="-10" on="1"/>
        <pt x="374" y="-10" on="0"/>
        <pt x="346" y="49" on="1"/>
        <pt x="329" y="24" on="0"/>
        <pt x="270" y="-9" on="0"/>
        <pt x="241" y="-9" on="1"/>
        <pt x="218" y="-9" on="0"/>
        <pt x="181" y="0" on="0"/>
        <pt x="167" y="13" on="1"/>
        <pt x="167" y="-242" on="1"/>
        <pt x="56" y="-242" on="1"/>
        <pt x="56" y="497" on="1"/>
        <pt x="167" y="497" on="1"/>
        <pt x="167" y="231" on="1"/>
        <pt x="167" y="159" on="0"/>
        <pt x="206" y="86" on="0"/>
        <pt x="249" y="86" on="1"/>
        <pt x="299" y="86" on="0"/>
        <pt x="328" y="133" on="1"/>
        <pt x="328" y="497" on="1"/>
        <pt x="438" y="497" on="1"/>
        <pt x="438" y="171" on="1"/>
        <pt x="438" y="117" on="0"/>
        <pt x="453" y="83" on="0"/>
        <pt x="476" y="83" on="1"/>
        <pt x="489" y="83" on="1"/>
      </contour>
    </TTGlyph>
    <TTGlyph name="multiply" xMin="39" yMin="112" xMax="330" yMax="442">
      <contour>
        <pt x="275" y="112" on="1"/>
        <pt x="185" y="224" on="1"/>
        <pt x="95" y="112" on="1"/>
        <pt x="39" y="165" on="1"/>
        <pt x="130" y="277" on="1"/>
        <pt x="39" y="389" on="1"/>
        <pt x="95" y="442" on="1"/>
        <pt x="185" y="330" on="1"/>
        <pt x="275" y="442" on="1"/>
        <pt x="330" y="389" on="1"/>
        <pt x="240" y="277" on="1"/>
        <pt x="330" y="165" on="1"/>
      </contour>
    </TTGlyph>
    <TTGlyph name="n" xMin="50" yMin="0" xMax="429" yMax="506">
      <contour>
        <pt x="319" y="0" on="1"/>
        <pt x="319" y="269" on="1"/>
        <pt x="319" y="342" on="0"/>
        <pt x="281" y="410" on="0"/>
        <pt x="237" y="410" on="1"/>
        <pt x="211" y="410" on="0"/>
        <pt x="174" y="385" on="0"/>
        <pt x="160" y="361" on="1"/>
        <pt x="160" y="0" on="1"/>
        <pt x="50" y="0" on="1"/>
        <pt x="50" y="497" on="1"/>
        <pt x="155" y="497" on="1"/>
        <pt x="155" y="460" on="1"/>
        <pt x="172" y="483" on="0"/>
        <pt x="220" y="506" on="0"/>
        <pt x="245" y="506" on="1"/>
        <pt x="296" y="506" on="0"/>
        <pt x="366" y="472" on="0"/>
        <pt x="409" y="409" on="0"/>
        <pt x="429" y="322" on="0"/>
        <pt x="429" y="269" on="1"/>
        <pt x="429" y="0" on="1"/>
      </contour>
    </TTGlyph>
    <TTGlyph name="nine" xMin="50" yMin="0" xMax="449" yMax="714">
      <contour>
        <pt x="260" y="714" on="1"/>
        <pt x="300" y="714" on="0"/>
        <pt x="369" y="686" on="0"/>
        <pt x="420" y="624" on="0"/>
        <pt x="449" y="524" on="0"/>
        <pt x="449" y="452" on="1"/>
        <pt x="449" y="351" on="0"/>
        <pt x="399" y="184" on="0"/>
        <pt x="322" y="65" on="0"/>
        <pt x="230" y="0" on="0"/>
        <pt x="188" y="0" on="1"/>
        <pt x="118" y="46" on="1"/>
        <pt x="137" y="51" on="0"/>
        <pt x="208" y="96" on="0"/>
        <pt x="279" y="168" on="0"/>
        <pt x="333" y="265" on="0"/>
        <pt x="335" y="323" on="1"/>
        <pt x="326" y="311" on="0"/>
        <pt x="294" y="294" on="0"/>
        <pt x="261" y="284" on="0"/>
        <pt x="234" y="279" on="0"/>
        <pt x="231" y="279" on="1"/>
        <pt x="192" y="279" on="0"/>
        <pt x="125" y="304" on="0"/>
        <pt x="77" y="354" on="0"/>
        <pt x="50" y="429" on="0"/>
        <pt x="50" y="479" on="1"/>
        <pt x="50" y="527" on="0"/>
        <pt x="79" y="613" on="0"/>
        <pt x="134" y="677" on="0"/>
        <pt x="212" y="714" on="0"/>
      </contour>
      <contour>
        <pt x="242" y="376" on="1"/>
        <pt x="284" y="376" on="0"/>
        <pt x="342" y="438" on="0"/>
        <pt x="342" y="498" on="1"/>
        <pt x="342" y="529" on="0"/>
        <pt x="325" y="572" on="0"/>
        <pt x="299" y="598" on="0"/>
        <pt x="268" y="610" on="0"/>
        <pt x="254" y="610" on="1"/>
        <pt x="231" y="610" on="0"/>
        <pt x="196" y="588" on="0"/>
        <pt x="172" y="552" on="0"/>
        <pt x="160" y="507" on="0"/>
        <pt x="160" y="484" on="1"/>
        <pt x="160" y="465" on="0"/>
        <pt x="169" y="427" on="0"/>
        <pt x="189" y="396" on="0"/>
        <pt x="220" y="376" on="0"/>
      </contour>
    </TTGlyph>
    <TTGlyph name="ntilde" xMin="50" yMin="0" xMax="429" yMax="715">
      <component glyphName="n" x="0" y="0" flags="0x204"/>
      <component glyphName="tilde" x="11" y="0" flags="0x4"/>
    </TTGlyph>
    <TTGlyph name="numbersign" xMin="27" yMin="-11" xMax="584" yMax="700">
      <contour>
        <pt x="554" y="417" on="1"/>
        <pt x="457" y="417" on="1"/>
        <pt x="423" y="306" on="1"/>
        <pt x="530" y="306" on="1"/>
        <pt x="491" y="213" on="1"/>
        <pt x="391" y="213" on="1"/>
        <pt x="318" y="-11" on="1"/>
        <pt x="234" y="-11" on="1"/>
        <pt x="305" y="213" on="1"/>
        <pt x="212" y="213" on="1"/>
        <pt x="139" y="-11" on="1"/>
        <pt x="56" y="-11" on="1"/>
        <pt x="128" y="213" on="1"/>
        <pt x="27" y="213" on="1"/>
        <pt x="64" y="306" on="1"/>
        <pt x="160" y="306" on="1"/>
        <pt x="194" y="417" on="1"/>
        <pt x="91" y="417" on="1"/>
        <pt x="118" y="510" on="1"/>
        <pt x="227" y="510" on="1"/>
        <pt x="290" y="700" on="1"/>
        <pt x="372" y="700" on="1"/>
        <pt x="311" y="510" on="1"/>
        <pt x="405" y="510" on="1"/>
        <pt x="466" y="700" on="1"/>
        <pt x="551" y="700" on="1"/>
        <pt x="489" y="510" on="1"/>
        <pt x="584" y="510" on="1"/>
      </contour>
      <contour>
        <pt x="278" y="417" on="1"/>
        <pt x="243" y="306" on="1"/>
        <pt x="337" y="306" on="1"/>
        <pt x="373" y="417" on="1"/>
      </contour>
    </TTGlyph>
    <TTGlyph name="o" xMin="24" yMin="-10" xMax="461" yMax="506">
      <contour>
        <pt x="243" y="-10" on="1"/>
        <pt x="191" y="-10" on="0"/>
        <pt x="109" y="31" on="0"/>
        <pt x="53" y="101" on="0"/>
        <pt x="24" y="195" on="0"/>
        <pt x="24" y="248" on="1"/>
        <pt x="24" y="300" on="0"/>
        <pt x="53" y="394" on="0"/>
        <pt x="109" y="465" on="0"/>
        <pt x="191" y="506" on="0"/>
        <pt x="243" y="506" on="1"/>
        <pt x="295" y="506" on="0"/>
        <pt x="376" y="465" on="0"/>
        <pt x="432" y="394" on="0"/>
        <pt x="461" y="300" on="0"/>
        <pt x="461" y="248" on="1"/>
        <pt x="461" y="195" on="0"/>
        <pt x="432" y="101" on="0"/>
        <pt x="376" y="31" on="0"/>
        <pt x="295" y="-10" on="0"/>
      </contour>
      <contour>
        <pt x="243" y="410" on="1"/>
        <pt x="192" y="410" on="0"/>
        <pt x="137" y="322" on="0"/>
        <pt x="137" y="248" on="1"/>
        <pt x="137" y="173" on="0"/>
        <pt x="192" y="85" on="0"/>
        <pt x="243" y="85" on="1"/>
        <pt x="294" y="85" on="0"/>
        <pt x="348" y="173" on="0"/>
        <pt x="348" y="248" on="1"/>
        <pt x="348" y="322" on="0"/>
        <pt x="294" y="410" on="0"/>
      </contour>
    </TTGlyph>
    <TTGlyph name="oacute" xMin="24" yMin="-10" xMax="461" yMax="744">
      <component glyphName="o" x="0" y="0" flags="0x204"/>
      <component glyphName="acute" x="112" y="0" flags="0x4"/>
    </TTGlyph>
    <TTGlyph name="ocircumflex" xMin="24" yMin="-10" xMax="461" yMax="748">
      <component glyphName="o" x="0" y="0" flags="0x204"/>
      <component glyphName="circumflex" x="51" y="0" flags="0x4"/>
    </TTGlyph>
    <TTGlyph name="odieresis" xMin="24" yMin="-10" xMax="461" yMax="700">
      <component glyphName="o" x="0" y="0" flags="0x204"/>
      <component glyphName="dieresis" x="61" y="0" flags="0x4"/>
    </TTGlyph>
    <TTGlyph name="oe" xMin="24" yMin="-10" xMax="746" yMax="506">
      <contour>
        <pt x="464" y="230" on="1"/>
        <pt x="469" y="188" on="0"/>
        <pt x="493" y="131" on="0"/>
        <pt x="528" y="97" on="0"/>
        <pt x="569" y="83" on="0"/>
        <pt x="590" y="83" on="1"/>
        <pt x="620" y="83" on="0"/>
        <pt x="696" y="106" on="0"/>
        <pt x="723" y="122" on="1"/>
        <pt x="727" y="26" on="1"/>
        <pt x="703" y="12" on="0"/>
        <pt x="629" y="-10" on="0"/>
        <pt x="582" y="-10" on="1"/>
        <pt x="524" y="-10" on="0"/>
        <pt x="435" y="37" on="0"/>
        <pt x="405" y="79" on="1"/>
        <pt x="376" y="37" on="0"/>
        <pt x="296" y="-10" on="0"/>
        <pt x="242" y="-10" on="1"/>
        <pt x="190" y="-10" on="0"/>
        <pt x="109" y="31" on="0"/>
        <pt x="53" y="102" on="0"/>
        <pt x="24" y="196" on="0"/>
        <pt x="24" y="249" on="1"/>
        <pt x="24" y="302" on="0"/>
        <pt x="53" y="395" on="0"/>
        <pt x="109" y="465" on="0"/>
        <pt x="190" y="506" on="0"/>
        <pt x="242" y="506" on="1"/>
        <pt x="295" y="506" on="0"/>
        <pt x="374" y="461" on="0"/>
        <pt x="403" y="419" on="1"/>
        <pt x="430" y="461" on="0"/>
        <pt x="505" y="506" on="0"/>
        <pt x="557" y="506" on="1"/>
        <pt x="597" y="506" on="0"/>
        <pt x="667" y="476" on="0"/>
        <pt x="717" y="421" on="0"/>
        <pt x="746" y="342" on="0"/>
        <pt x="746" y="293" on="1"/>
        <pt x="746" y="261" on="0"/>
        <pt x="739" y="230" on="1"/>
      </contour>
      <contour>
        <pt x="561" y="410" on="1"/>
        <pt x="519" y="410" on="0"/>
        <pt x="474" y="355" on="0"/>
        <pt x="466" y="307" on="1"/>
        <pt x="634" y="307" on="1"/>
        <pt x="634" y="327" on="0"/>
        <pt x="627" y="364" on="0"/>
        <pt x="611" y="393" on="0"/>
        <pt x="582" y="410" on="0"/>
      </contour>
      <contour>
        <pt x="242" y="410" on="1"/>
        <pt x="192" y="410" on="0"/>
        <pt x="137" y="322" on="0"/>
        <pt x="137" y="248" on="1"/>
        <pt x="137" y="173" on="0"/>
        <pt x="192" y="85" on="0"/>
        <pt x="242" y="85" on="1"/>
        <pt x="267" y="85" on="0"/>
        <pt x="306" y="110" on="0"/>
        <pt x="333" y="153" on="0"/>
        <pt x="348" y="213" on="0"/>
        <pt x="348" y="249" on="1"/>
        <pt x="348" y="321" on="0"/>
        <pt x="293" y="410" on="0"/>
      </contour>
    </TTGlyph>
    <TTGlyph name="ograve" xMin="24" yMin="-10" xMax="461" yMax="744">
      <component glyphName="o" x="0" y="0" flags="0x204"/>
      <component glyphName="grave" x="112" y="0" flags="0x4"/>
    </TTGlyph>
    <TTGlyph name="one" xMin="37" yMin="0" xMax="233" yMax="700">
      <contour>
        <pt x="120" y="0" on="1"/>
        <pt x="120" y="533" on="1"/>
        <pt x="104" y="515" on="0"/>
        <pt x="68" y="494" on="0"/>
        <pt x="46" y="489" on="1"/>
        <pt x="37" y="591" on="1"/>
        <pt x="50" y="595" on="0"/>
        <pt x="83" y="617" on="0"/>
        <pt x="114" y="647" on="0"/>
        <pt x="140" y="682" on="0"/>
        <pt x="146" y="700" on="1"/>
        <pt x="233" y="700" on="1"/>
        <pt x="233" y="0" on="1"/>
      </contour>
    </TTGlyph>
    <TTGlyph name="onehalf" xMin="86" yMin="-85" xMax="654" yMax="700">
      <component glyphName="onesuperior" x="40" y="0" flags="0x4"/>
      <component glyphName="slash" x="85" y="0" flags="0x4"/>
      <component glyphName="twosuperior" x="392" y="-319" flags="0x4"/>
    </TTGlyph>
    <TTGlyph name="onequarter" xMin="86" yMin="-85" xMax="657" yMax="700">
      <component glyphName="onesuperior" x="40" y="0" flags="0x4"/>
      <component glyphName="slash" x="85" y="0" flags="0x4"/>
      <component glyphName="uni2074" x="360" y="-319" flags="0x4"/>
    </TTGlyph>
    <TTGlyph name="onesuperior" xMin="46" yMin="320" xMax="164" yMax="698">
      <contour>
        <pt x="79" y="320" on="1"/>
        <pt x="79" y="574" on="1"/>
        <pt x="73" y="572" on="0"/>
        <pt x="59" y="570" on="0"/>
        <pt x="46" y="569" on="1"/>
        <pt x="46" y="639" on="1"/>
        <pt x="50" y="639" on="0"/>
        <pt x="67" y="650" on="0"/>
        <pt x="83" y="667" on="0"/>
        <pt x="96" y="688" on="0"/>
        <pt x="96" y="698" on="1"/>
        <pt x="164" y="698" on="1"/>
        <pt x="164" y="320" on="1"/>
      </contour>
    </TTGlyph>
    <TTGlyph name="ordfeminine" xMin="26" yMin="434" xMax="281" yMax="730">
      <contour>
        <pt x="278" y="434" on="1"/>
        <pt x="227" y="434" on="1"/>
        <pt x="216" y="434" on="0"/>
        <pt x="185" y="449" on="0"/>
        <pt x="177" y="457" on="1"/>
        <pt x="172" y="451" on="0"/>
        <pt x="153" y="442" on="0"/>
        <pt x="131" y="437" on="0"/>
        <pt x="109" y="434" on="0"/>
        <pt x="101" y="434" on="1"/>
        <pt x="81" y="434" on="0"/>
        <pt x="53" y="450" on="0"/>
        <pt x="35" y="474" on="0"/>
        <pt x="26" y="505" on="0"/>
        <pt x="26" y="520" on="1"/>
        <pt x="26" y="552" on="0"/>
        <pt x="59" y="592" on="0"/>
        <pt x="104" y="615" on="0"/>
        <pt x="149" y="624" on="0"/>
        <pt x="161" y="626" on="1"/>
        <pt x="159" y="630" on="0"/>
        <pt x="157" y="640" on="0"/>
        <pt x="151" y="647" on="0"/>
        <pt x="138" y="652" on="0"/>
        <pt x="126" y="652" on="1"/>
        <pt x="106" y="652" on="0"/>
        <pt x="73" y="641" on="0"/>
        <pt x="52" y="635" on="1"/>
        <pt x="47" y="710" on="1"/>
        <pt x="83" y="722" on="0"/>
        <pt x="133" y="730" on="0"/>
        <pt x="149" y="730" on="1"/>
        <pt x="193" y="730" on="0"/>
        <pt x="254" y="684" on="0"/>
        <pt x="254" y="640" on="1"/>
        <pt x="254" y="541" on="1"/>
        <pt x="254" y="522" on="0"/>
        <pt x="262" y="512" on="0"/>
        <pt x="267" y="512" on="1"/>
        <pt x="281" y="512" on="1"/>
      </contour>
      <contour>
        <pt x="162" y="565" on="1"/>
        <pt x="143" y="565" on="0"/>
        <pt x="124" y="545" on="0"/>
        <pt x="124" y="528" on="1"/>
        <pt x="124" y="501" on="0"/>
        <pt x="148" y="501" on="1"/>
        <pt x="156" y="501" on="0"/>
        <pt x="162" y="503" on="1"/>
      </contour>
    </TTGlyph>
    <TTGlyph name="ordmasculine" xMin="26" yMin="434" xMax="303" yMax="730">
      <contour>
        <pt x="165" y="434" on="1"/>
        <pt x="132" y="434" on="0"/>
        <pt x="80" y="459" on="0"/>
        <pt x="45" y="500" on="0"/>
        <pt x="26" y="553" on="0"/>
        <pt x="26" y="582" on="1"/>
        <pt x="26" y="611" on="0"/>
        <pt x="45" y="664" on="0"/>
        <pt x="80" y="705" on="0"/>
        <pt x="132" y="730" on="0"/>
        <pt x="165" y="730" on="1"/>
        <pt x="198" y="730" on="0"/>
        <pt x="249" y="705" on="0"/>
        <pt x="285" y="664" on="0"/>
        <pt x="303" y="611" on="0"/>
        <pt x="303" y="582" on="1"/>
        <pt x="303" y="553" on="0"/>
        <pt x="285" y="500" on="0"/>
        <pt x="249" y="459" on="0"/>
        <pt x="198" y="434" on="0"/>
      </contour>
      <contour>
        <pt x="165" y="658" on="1"/>
        <pt x="144" y="658" on="0"/>
        <pt x="119" y="613" on="0"/>
        <pt x="119" y="582" on="1"/>
        <pt x="119" y="551" on="0"/>
        <pt x="144" y="506" on="0"/>
        <pt x="165" y="506" on="1"/>
        <pt x="186" y="506" on="0"/>
        <pt x="209" y="551" on="0"/>
        <pt x="209" y="582" on="1"/>
        <pt x="209" y="613" on="0"/>
        <pt x="186" y="658" on="0"/>
      </contour>
    </TTGlyph>
    <TTGlyph name="oslash" xMin="24" yMin="-36" xMax="459" yMax="534">
      <contour>
        <pt x="242" y="-9" on="1"/>
        <pt x="210" y="-9" on="0"/>
        <pt x="183" y="0" on="1"/>
        <pt x="170" y="-36" on="1"/>
        <pt x="75" y="-36" on="1"/>
        <pt x="106" y="37" on="1"/>
        <pt x="66" y="74" on="0"/>
        <pt x="24" y="185" on="0"/>
        <pt x="24" y="249" on="1"/>
        <pt x="24" y="301" on="0"/>
        <pt x="53" y="395" on="0"/>
        <pt x="109" y="466" on="0"/>
        <pt x="190" y="507" on="0"/>
        <pt x="242" y="507" on="1"/>
        <pt x="273" y="507" on="0"/>
        <pt x="297" y="498" on="1"/>
        <pt x="311" y="534" on="1"/>
        <pt x="409" y="534" on="1"/>
        <pt x="376" y="462" on="1"/>
        <pt x="416" y="424" on="0"/>
        <pt x="459" y="313" on="0"/>
        <pt x="459" y="249" on="1"/>
        <pt x="459" y="196" on="0"/>
        <pt x="430" y="103" on="0"/>
        <pt x="374" y="32" on="0"/>
        <pt x="293" y="-9" on="0"/>
      </contour>
      <contour>
        <pt x="225" y="86" on="1"/>
        <pt x="227" y="84" on="0"/>
        <pt x="236" y="83" on="0"/>
        <pt x="241" y="83" on="1"/>
        <pt x="292" y="83" on="0"/>
        <pt x="347" y="177" on="0"/>
        <pt x="347" y="249" on="1"/>
        <pt x="347" y="280" on="0"/>
        <pt x="337" y="344" on="0"/>
        <pt x="329" y="364" on="1"/>
      </contour>
      <contour>
        <pt x="242" y="415" on="1"/>
        <pt x="191" y="415" on="0"/>
        <pt x="136" y="322" on="0"/>
        <pt x="136" y="249" on="1"/>
        <pt x="136" y="218" on="0"/>
        <pt x="146" y="163" on="0"/>
        <pt x="154" y="134" on="1"/>
        <pt x="255" y="412" on="1"/>
        <pt x="253" y="415" on="0"/>
      </contour>
    </TTGlyph>
    <TTGlyph name="otilde" xMin="24" yMin="-10" xMax="461" yMax="715">
      <component glyphName="o" x="0" y="0" flags="0x204"/>
      <component glyphName="tilde" x="16" y="0" flags="0x4"/>
    </TTGlyph>
    <TTGlyph name="p" xMin="48" yMin="-242" xMax="469" yMax="506">
      <contour>
        <pt x="255" y="-10" on="1"/>
        <pt x="221" y="-10" on="0"/>
        <pt x="179" y="13" on="0"/>
        <pt x="158" y="36" on="1"/>
        <pt x="158" y="-242" on="1"/>
        <pt x="48" y="-242" on="1"/>
        <pt x="48" y="497" on="1"/>
        <pt x="145" y="497" on="1"/>
        <pt x="154" y="455" on="1"/>
        <pt x="175" y="479" on="0"/>
        <pt x="222" y="506" on="0"/>
        <pt x="255" y="506" on="1"/>
        <pt x="307" y="506" on="0"/>
        <pt x="387" y="464" on="0"/>
        <pt x="441" y="393" on="0"/>
        <pt x="469" y="300" on="0"/>
        <pt x="469" y="248" on="1"/>
        <pt x="469" y="195" on="0"/>
        <pt x="441" y="101" on="0"/>
        <pt x="387" y="31" on="0"/>
        <pt x="307" y="-10" on="0"/>
      </contour>
      <contour>
        <pt x="249" y="410" on="1"/>
        <pt x="196" y="410" on="0"/>
        <pt x="153" y="324" on="0"/>
        <pt x="153" y="248" on="1"/>
        <pt x="153" y="170" on="0"/>
        <pt x="196" y="85" on="0"/>
        <pt x="249" y="85" on="1"/>
        <pt x="274" y="85" on="0"/>
        <pt x="314" y="109" on="0"/>
        <pt x="342" y="153" on="0"/>
        <pt x="356" y="213" on="0"/>
        <pt x="356" y="248" on="1"/>
        <pt x="356" y="284" on="0"/>
        <pt x="342" y="343" on="0"/>
        <pt x="314" y="386" on="0"/>
        <pt x="274" y="410" on="0"/>
      </contour>
    </TTGlyph>
    <TTGlyph name="paragraph" xMin="28" yMin="0" xMax="498" yMax="700">
      <contour>
        <pt x="439" y="605" on="1"/>
        <pt x="439" y="0" on="1"/>
        <pt x="360" y="0" on="1"/>
        <pt x="360" y="605" on="1"/>
        <pt x="311" y="605" on="1"/>
        <pt x="311" y="0" on="1"/>
        <pt x="248" y="0" on="1"/>
        <pt x="248" y="233" on="1"/>
        <pt x="194" y="237" on="0"/>
        <pt x="111" y="280" on="0"/>
        <pt x="56" y="346" on="0"/>
        <pt x="28" y="426" on="0"/>
        <pt x="28" y="468" on="1"/>
        <pt x="28" y="511" on="0"/>
        <pt x="58" y="594" on="0"/>
        <pt x="120" y="660" on="0"/>
        <pt x="212" y="700" on="0"/>
        <pt x="274" y="700" on="1"/>
        <pt x="498" y="700" on="1"/>
        <pt x="498" y="605" on="1"/>
      </contour>
    </TTGlyph>
    <TTGlyph name="parenleft" xMin="39" yMin="-136" xMax="225" yMax="750">
      <contour>
        <pt x="124" y="-136" on="1"/>
        <pt x="104" y="-95" on="0"/>
        <pt x="73" y="-6" on="0"/>
        <pt x="51" y="100" on="0"/>
        <pt x="39" y="228" on="0"/>
        <pt x="39" y="307" on="1"/>
        <pt x="39" y="386" on="0"/>
        <pt x="51" y="514" on="0"/>
        <pt x="73" y="620" on="0"/>
        <pt x="104" y="709" on="0"/>
        <pt x="124" y="750" on="1"/>
        <pt x="225" y="750" on="1"/>
        <pt x="205" y="709" on="0"/>
        <pt x="170" y="615" on="0"/>
        <pt x="144" y="505" on="0"/>
        <pt x="129" y="380" on="0"/>
        <pt x="129" y="307" on="1"/>
        <pt x="129" y="234" on="0"/>
        <pt x="144" y="109" on="0"/>
        <pt x="170" y="-1" on="0"/>
        <pt x="205" y="-95" on="0"/>
        <pt x="225" y="-136" on="1"/>
      </contour>
    </TTGlyph>
    <TTGlyph name="parenright" xMin="19" yMin="-136" xMax="205" yMax="750">
      <contour>
        <pt x="19" y="-136" on="1"/>
        <pt x="39" y="-95" on="0"/>
        <pt x="74" y="-1" on="0"/>
        <pt x="100" y="109" on="0"/>
        <pt x="115" y="234" on="0"/>
        <pt x="115" y="307" on="1"/>
        <pt x="115" y="380" on="0"/>
        <pt x="100" y="505" on="0"/>
        <pt x="74" y="615" on="0"/>
        <pt x="39" y="709" on="0"/>
        <pt x="19" y="750" on="1"/>
        <pt x="120" y="750" on="1"/>
        <pt x="139" y="709" on="0"/>
        <pt x="171" y="620" on="0"/>
        <pt x="193" y="514" on="0"/>
        <pt x="205" y="386" on="0"/>
        <pt x="205" y="307" on="1"/>
        <pt x="205" y="228" on="0"/>
        <pt x="193" y="100" on="0"/>
        <pt x="171" y="-6" on="0"/>
        <pt x="139" y="-95" on="0"/>
        <pt x="120" y="-136" on="1"/>
      </contour>
    </TTGlyph>
    <TTGlyph name="percent" xMin="29" yMin="-12" xMax="696" yMax="704">
      <contour>
        <pt x="217" y="-12" on="1"/>
        <pt x="125" y="-12" on="1"/>
        <pt x="488" y="700" on="1"/>
        <pt x="580" y="700" on="1"/>
      </contour>
      <contour>
        <pt x="158" y="334" on="1"/>
        <pt x="99" y="334" on="0"/>
        <pt x="29" y="431" on="0"/>
        <pt x="29" y="516" on="1"/>
        <pt x="29" y="560" on="0"/>
        <pt x="49" y="630" on="0"/>
        <pt x="85" y="678" on="0"/>
        <pt x="134" y="704" on="0"/>
        <pt x="163" y="704" on="1"/>
        <pt x="220" y="704" on="0"/>
        <pt x="292" y="609" on="0"/>
        <pt x="292" y="524" on="1"/>
        <pt x="292" y="436" on="0"/>
        <pt x="219" y="334" on="0"/>
      </contour>
      <contour>
        <pt x="162" y="639" on="1"/>
        <pt x="139" y="639" on="0"/>
        <pt x="100" y="578" on="0"/>
        <pt x="100" y="516" on="1"/>
        <pt x="100" y="457" on="0"/>
        <pt x="134" y="402" on="0"/>
        <pt x="159" y="402" on="1"/>
        <pt x="186" y="402" on="0"/>
        <pt x="221" y="461" on="0"/>
        <pt x="221" y="524" on="1"/>
        <pt x="221" y="582" on="0"/>
        <pt x="185" y="639" on="0"/>
      </contour>
      <contour>
        <pt x="563" y="-11" on="1"/>
        <pt x="503" y="-11" on="0"/>
        <pt x="433" y="86" on="0"/>
        <pt x="433" y="171" on="1"/>
        <pt x="433" y="215" on="0"/>
        <pt x="453" y="285" on="0"/>
        <pt x="489" y="333" on="0"/>
        <pt x="538" y="359" on="0"/>
        <pt x="567" y="359" on="1"/>
        <pt x="624" y="359" on="0"/>
        <pt x="696" y="264" on="0"/>
        <pt x="696" y="179" on="1"/>
        <pt x="696" y="91" on="0"/>
        <pt x="623" y="-11" on="0"/>
      </contour>
      <contour>
        <pt x="566" y="294" on="1"/>
        <pt x="543" y="294" on="0"/>
        <pt x="504" y="233" on="0"/>
        <pt x="504" y="171" on="1"/>
        <pt x="504" y="112" on="0"/>
        <pt x="537" y="57" on="0"/>
        <pt x="563" y="57" on="1"/>
        <pt x="590" y="57" on="0"/>
        <pt x="626" y="116" on="0"/>
        <pt x="626" y="179" on="1"/>
        <pt x="626" y="237" on="0"/>
        <pt x="589" y="294" on="0"/>
      </contour>
    </TTGlyph>
    <TTGlyph name="period" xMin="46" yMin="0" xMax="156" yMax="116">
      <contour>
        <pt x="46" y="0" on="1"/>
        <pt x="46" y="116" on="1"/>
        <pt x="156" y="116" on="1"/>
        <pt x="156" y="0" on="1"/>
      </contour>
    </TTGlyph>
    <TTGlyph name="periodcentered" xMin="55" yMin="213" xMax="162" yMax="343">
      <contour>
        <pt x="55" y="213" on="1"/>
        <pt x="55" y="343" on="1"/>
        <pt x="162" y="343" on="1"/>
        <pt x="162" y="213" on="1"/>
      </contour>
    </TTGlyph>
    <TTGlyph name="perthousand" xMin="29" yMin="-12" xMax="1005" yMax="704">
      <contour>
        <pt x="217" y="-12" on="1"/>
        <pt x="125" y="-12" on="1"/>
        <pt x="488" y="700" on="1"/>
        <pt x="580" y="700" on="1"/>
      </contour>
      <contour>
        <pt x="158" y="334" on="1"/>
        <pt x="99" y="334" on="0"/>
        <pt x="29" y="431" on="0"/>
        <pt x="29" y="516" on="1"/>
        <pt x="29" y="560" on="0"/>
        <pt x="49" y="630" on="0"/>
        <pt x="85" y="678" on="0"/>
        <pt x="134" y="704" on="0"/>
        <pt x="163" y="704" on="1"/>
        <pt x="220" y="704" on="0"/>
        <pt x="292" y="609" on="0"/>
        <pt x="292" y="524" on="1"/>
        <pt x="292" y="436" on="0"/>
        <pt x="219" y="334" on="0"/>
      </contour>
      <contour>
        <pt x="162" y="639" on="1"/>
        <pt x="139" y="639" on="0"/>
        <pt x="100" y="578" on="0"/>
        <pt x="100" y="516" on="1"/>
        <pt x="100" y="457" on="0"/>
        <pt x="134" y="402" on="0"/>
        <pt x="159" y="402" on="1"/>
        <pt x="186" y="402" on="0"/>
        <pt x="221" y="461" on="0"/>
        <pt x="221" y="524" on="1"/>
        <pt x="221" y="582" on="0"/>
        <pt x="185" y="639" on="0"/>
      </contour>
      <contour>
        <pt x="563" y="-11" on="1"/>
        <pt x="503" y="-11" on="0"/>
        <pt x="433" y="86" on="0"/>
        <pt x="433" y="171" on="1"/>
        <pt x="433" y="215" on="0"/>
        <pt x="453" y="285" on="0"/>
        <pt x="489" y="333" on="0"/>
        <pt x="538" y="359" on="0"/>
        <pt x="567" y="359" on="1"/>
        <pt x="624" y="359" on="0"/>
        <pt x="696" y="264" on="0"/>
        <pt x="696" y="179" on="1"/>
        <pt x="696" y="91" on="0"/>
        <pt x="623" y="-11" on="0"/>
      </contour>
      <contour>
        <pt x="566" y="294" on="1"/>
        <pt x="543" y="294" on="0"/>
        <pt x="504" y="233" on="0"/>
        <pt x="504" y="171" on="1"/>
        <pt x="504" y="112" on="0"/>
        <pt x="537" y="57" on="0"/>
        <pt x="563" y="57" on="1"/>
        <pt x="590" y="57" on="0"/>
        <pt x="626" y="116" on="0"/>
        <pt x="626" y="179" on="1"/>
        <pt x="626" y="237" on="0"/>
        <pt x="589" y="294" on="0"/>
      </contour>
      <contour>
        <pt x="872" y="-11" on="1"/>
        <pt x="813" y="-11" on="0"/>
        <pt x="743" y="86" on="0"/>
        <pt x="743" y="171" on="1"/>
        <pt x="743" y="215" on="0"/>
        <pt x="763" y="285" on="0"/>
        <pt x="799" y="333" on="0"/>
        <pt x="848" y="359" on="0"/>
        <pt x="876" y="359" on="1"/>
        <pt x="933" y="359" on="0"/>
        <pt x="1005" y="264" on="0"/>
        <pt x="1005" y="179" on="1"/>
        <pt x="1005" y="91" on="0"/>
        <pt x="933" y="-11" on="0"/>
      </contour>
      <contour>
        <pt x="875" y="294" on="1"/>
        <pt x="852" y="294" on="0"/>
        <pt x="814" y="233" on="0"/>
        <pt x="814" y="171" on="1"/>
        <pt x="814" y="112" on="0"/>
        <pt x="847" y="57" on="0"/>
        <pt x="873" y="57" on="1"/>
        <pt x="900" y="57" on="0"/>
        <pt x="935" y="116" on="0"/>
        <pt x="935" y="179" on="1"/>
        <pt x="935" y="237" on="0"/>
        <pt x="898" y="294" on="0"/>
      </contour>
    </TTGlyph>
    <TTGlyph name="plus" xMin="35" yMin="102" xMax="353" yMax="452">
      <contour>
        <pt x="235" y="232" on="1"/>
        <pt x="235" y="102" on="1"/>
        <pt x="153" y="102" on="1"/>
        <pt x="153" y="232" on="1"/>
        <pt x="35" y="232" on="1"/>
        <pt x="35" y="324" on="1"/>
        <pt x="153" y="324" on="1"/>
        <pt x="153" y="452" on="1"/>
        <pt x="235" y="452" on="1"/>
        <pt x="235" y="324" on="1"/>
        <pt x="353" y="324" on="1"/>
        <pt x="353" y="232" on="1"/>
      </contour>
    </TTGlyph>
    <TTGlyph name="plusminus" xMin="41" yMin="34" xMax="359" yMax="532">
      <contour>
        <pt x="242" y="315" on="1"/>
        <pt x="242" y="182" on="1"/>
        <pt x="158" y="182" on="1"/>
        <pt x="158" y="315" on="1"/>
        <pt x="41" y="315" on="1"/>
        <pt x="41" y="401" on="1"/>
        <pt x="158" y="401" on="1"/>
        <pt x="158" y="532" on="1"/>
        <pt x="242" y="532" on="1"/>
        <pt x="242" y="401" on="1"/>
        <pt x="359" y="401" on="1"/>
        <pt x="359" y="315" on="1"/>
      </contour>
      <contour>
        <pt x="41" y="34" on="1"/>
        <pt x="41" y="119" on="1"/>
        <pt x="359" y="119" on="1"/>
        <pt x="359" y="34" on="1"/>
      </contour>
    </TTGlyph>
    <TTGlyph name="q" xMin="48" yMin="-242" xMax="469" yMax="506">
      <contour>
        <pt x="262" y="-10" on="1"/>
        <pt x="210" y="-10" on="0"/>
        <pt x="130" y="31" on="0"/>
        <pt x="76" y="101" on="0"/>
        <pt x="48" y="195" on="0"/>
        <pt x="48" y="248" on="1"/>
        <pt x="48" y="300" on="0"/>
        <pt x="75" y="393" on="0"/>
        <pt x="129" y="464" on="0"/>
        <pt x="209" y="506" on="0"/>
        <pt x="262" y="506" on="1"/>
        <pt x="296" y="506" on="0"/>
        <pt x="342" y="479" on="0"/>
        <pt x="363" y="455" on="1"/>
        <pt x="372" y="497" on="1"/>
        <pt x="469" y="497" on="1"/>
        <pt x="469" y="-242" on="1"/>
        <pt x="359" y="-242" on="1"/>
        <pt x="359" y="36" on="1"/>
        <pt x="337" y="13" on="0"/>
        <pt x="296" y="-10" on="0"/>
      </contour>
      <contour>
        <pt x="268" y="410" on="1"/>
        <pt x="242" y="410" on="0"/>
        <pt x="203" y="386" on="0"/>
        <pt x="175" y="343" on="0"/>
        <pt x="161" y="284" on="0"/>
        <pt x="161" y="248" on="1"/>
        <pt x="161" y="213" on="0"/>
        <pt x="175" y="153" on="0"/>
        <pt x="203" y="109" on="0"/>
        <pt x="242" y="85" on="0"/>
        <pt x="268" y="85" on="1"/>
        <pt x="321" y="85" on="0"/>
        <pt x="364" y="170" on="0"/>
        <pt x="364" y="248" on="1"/>
        <pt x="364" y="324" on="0"/>
        <pt x="321" y="410" on="0"/>
      </contour>
    </TTGlyph>
    <TTGlyph name="question" xMin="25" yMin="0" xMax="343" yMax="750">
      <contour>
        <pt x="136" y="200" on="1"/>
        <pt x="134" y="229" on="0"/>
        <pt x="134" y="248" on="0"/>
        <pt x="134" y="251" on="1"/>
        <pt x="134" y="297" on="0"/>
        <pt x="167" y="373" on="0"/>
        <pt x="206" y="444" on="0"/>
        <pt x="239" y="517" on="0"/>
        <pt x="239" y="560" on="1"/>
        <pt x="239" y="613" on="0"/>
        <pt x="191" y="662" on="0"/>
        <pt x="155" y="662" on="1"/>
        <pt x="119" y="662" on="0"/>
        <pt x="66" y="620" on="0"/>
        <pt x="49" y="596" on="1"/>
        <pt x="25" y="680" on="1"/>
        <pt x="47" y="715" on="0"/>
        <pt x="121" y="750" on="0"/>
        <pt x="162" y="750" on="1"/>
        <pt x="208" y="750" on="0"/>
        <pt x="277" y="714" on="0"/>
        <pt x="321" y="658" on="0"/>
        <pt x="343" y="591" on="0"/>
        <pt x="343" y="561" on="1"/>
        <pt x="343" y="515" on="0"/>
        <pt x="302" y="433" on="0"/>
        <pt x="252" y="352" on="0"/>
        <pt x="211" y="266" on="0"/>
        <pt x="211" y="217" on="1"/>
        <pt x="211" y="200" on="1"/>
      </contour>
      <contour>
        <pt x="119" y="0" on="1"/>
        <pt x="119" y="112" on="1"/>
        <pt x="229" y="112" on="1"/>
        <pt x="229" y="0" on="1"/>
      </contour>
    </TTGlyph>
    <TTGlyph name="questiondown" xMin="25" yMin="-250" xMax="343" yMax="500">
      <component glyphName="question" x="368" y="500" scale="-0.999938964844" flags="0x4"/>
    </TTGlyph>
    <TTGlyph name="quotedbl" xMin="31" yMin="450" xMax="310" yMax="750">
      <contour>
        <pt x="292" y="450" on="1"/>
        <pt x="217" y="450" on="1"/>
        <pt x="200" y="750" on="1"/>
        <pt x="310" y="750" on="1"/>
      </contour>
      <contour>
        <pt x="124" y="450" on="1"/>
        <pt x="48" y="450" on="1"/>
        <pt x="31" y="750" on="1"/>
        <pt x="141" y="750" on="1"/>
      </contour>
    </TTGlyph>
    <TTGlyph name="quotedblbase" xMin="46" yMin="-110" xMax="353" yMax="116">
      <contour>
        <pt x="69" y="-110" on="1"/>
        <pt x="46" y="-96" on="1"/>
        <pt x="75" y="-10" on="1"/>
        <pt x="47" y="0" on="1"/>
        <pt x="47" y="116" on="1"/>
        <pt x="156" y="116" on="1"/>
        <pt x="156" y="0" on="1"/>
      </contour>
      <contour>
        <pt x="267" y="-110" on="1"/>
        <pt x="244" y="-96" on="1"/>
        <pt x="273" y="-10" on="1"/>
        <pt x="244" y="0" on="1"/>
        <pt x="244" y="116" on="1"/>
        <pt x="353" y="116" on="1"/>
        <pt x="353" y="0" on="1"/>
      </contour>
    </TTGlyph>
    <TTGlyph name="quotedblleft" xMin="47" yMin="524" xMax="337" yMax="750">
      <contour>
        <pt x="134" y="750" on="1"/>
        <pt x="156" y="736" on="1"/>
        <pt x="128" y="650" on="1"/>
        <pt x="157" y="640" on="1"/>
        <pt x="157" y="524" on="1"/>
        <pt x="47" y="524" on="1"/>
        <pt x="47" y="640" on="1"/>
      </contour>
      <contour>
        <pt x="314" y="750" on="1"/>
        <pt x="337" y="736" on="1"/>
        <pt x="308" y="650" on="1"/>
        <pt x="337" y="640" on="1"/>
        <pt x="337" y="524" on="1"/>
        <pt x="228" y="524" on="1"/>
        <pt x="228" y="640" on="1"/>
      </contour>
    </TTGlyph>
    <TTGlyph name="quotedblright" xMin="46" yMin="524" xMax="336" yMax="750">
      <contour>
        <pt x="249" y="524" on="1"/>
        <pt x="227" y="538" on="1"/>
        <pt x="256" y="624" on="1"/>
        <pt x="227" y="634" on="1"/>
        <pt x="227" y="750" on="1"/>
        <pt x="336" y="750" on="1"/>
        <pt x="336" y="634" on="1"/>
      </contour>
      <contour>
        <pt x="69" y="524" on="1"/>
        <pt x="46" y="538" on="1"/>
        <pt x="75" y="624" on="1"/>
        <pt x="47" y="634" on="1"/>
        <pt x="47" y="750" on="1"/>
        <pt x="156" y="750" on="1"/>
        <pt x="156" y="634" on="1"/>
      </contour>
    </TTGlyph>
    <TTGlyph name="quoteleft" xMin="47" yMin="524" xMax="157" yMax="750">
      <contour>
        <pt x="134" y="750" on="1"/>
        <pt x="156" y="736" on="1"/>
        <pt x="128" y="650" on="1"/>
        <pt x="157" y="640" on="1"/>
        <pt x="157" y="524" on="1"/>
        <pt x="47" y="524" on="1"/>
        <pt x="47" y="640" on="1"/>
      </contour>
    </TTGlyph>
    <TTGlyph name="quoteright" xMin="46" yMin="524" xMax="156" yMax="750">
      <contour>
        <pt x="69" y="524" on="1"/>
        <pt x="46" y="538" on="1"/>
        <pt x="75" y="624" on="1"/>
        <pt x="47" y="634" on="1"/>
        <pt x="47" y="750" on="1"/>
        <pt x="156" y="750" on="1"/>
        <pt x="156" y="634" on="1"/>
      </contour>
    </TTGlyph>
    <TTGlyph name="quotesinglbase" xMin="46" yMin="-110" xMax="156" yMax="116">
      <contour>
        <pt x="69" y="-110" on="1"/>
        <pt x="46" y="-96" on="1"/>
        <pt x="75" y="-10" on="1"/>
        <pt x="47" y="0" on="1"/>
        <pt x="47" y="116" on="1"/>
        <pt x="156" y="116" on="1"/>
        <pt x="156" y="0" on="1"/>
      </contour>
    </TTGlyph>
    <TTGlyph name="quotesingle" xMin="30" yMin="450" xMax="140" yMax="750">
      <contour>
        <pt x="122" y="450" on="1"/>
        <pt x="47" y="450" on="1"/>
        <pt x="30" y="750" on="1"/>
        <pt x="140" y="750" on="1"/>
      </contour>
    </TTGlyph>
    <TTGlyph name="r" xMin="49" yMin="0" xMax="297" yMax="508">
      <contour>
        <pt x="276" y="397" on="1"/>
        <pt x="235" y="397" on="1"/>
        <pt x="208" y="397" on="0"/>
        <pt x="167" y="364" on="0"/>
        <pt x="158" y="343" on="1"/>
        <pt x="158" y="0" on="1"/>
        <pt x="49" y="0" on="1"/>
        <pt x="49" y="497" on="1"/>
        <pt x="151" y="497" on="1"/>
        <pt x="154" y="435" on="1"/>
        <pt x="168" y="465" on="0"/>
        <pt x="229" y="508" on="0"/>
        <pt x="265" y="508" on="1"/>
        <pt x="297" y="508" on="1"/>
      </contour>
    </TTGlyph>
    <TTGlyph name="registered" xMin="34" yMin="37" xMax="568" yMax="693">
      <contour>
        <pt x="301" y="37" on="1"/>
        <pt x="243" y="37" on="0"/>
        <pt x="145" y="84" on="0"/>
        <pt x="74" y="170" on="0"/>
        <pt x="34" y="291" on="0"/>
        <pt x="34" y="365" on="1"/>
        <pt x="34" y="439" on="0"/>
        <pt x="74" y="560" on="0"/>
        <pt x="145" y="646" on="0"/>
        <pt x="243" y="693" on="0"/>
        <pt x="301" y="693" on="1"/>
        <pt x="359" y="693" on="0"/>
        <pt x="457" y="646" on="0"/>
        <pt x="528" y="560" on="0"/>
        <pt x="568" y="439" on="0"/>
        <pt x="568" y="365" on="1"/>
        <pt x="568" y="291" on="0"/>
        <pt x="528" y="170" on="0"/>
        <pt x="457" y="84" on="0"/>
        <pt x="359" y="37" on="0"/>
      </contour>
      <contour>
        <pt x="301" y="631" on="1"/>
        <pt x="251" y="630" on="0"/>
        <pt x="178" y="590" on="0"/>
        <pt x="128" y="519" on="0"/>
        <pt x="104" y="422" on="0"/>
        <pt x="104" y="365" on="1"/>
        <pt x="104" y="308" on="0"/>
        <pt x="128" y="211" on="0"/>
        <pt x="178" y="140" on="0"/>
        <pt x="251" y="99" on="0"/>
        <pt x="301" y="99" on="1"/>
        <pt x="351" y="99" on="0"/>
        <pt x="425" y="140" on="0"/>
        <pt x="474" y="211" on="0"/>
        <pt x="498" y="308" on="0"/>
        <pt x="498" y="365" on="1"/>
        <pt x="498" y="422" on="0"/>
        <pt x="474" y="519" on="0"/>
        <pt x="425" y="590" on="0"/>
        <pt x="351" y="630" on="0"/>
      </contour>
      <contour>
        <pt x="346" y="205" on="1"/>
        <pt x="293" y="319" on="1"/>
        <pt x="271" y="319" on="1"/>
        <pt x="271" y="205" on="1"/>
        <pt x="192" y="205" on="1"/>
        <pt x="192" y="536" on="1"/>
        <pt x="302" y="536" on="1"/>
        <pt x="324" y="536" on="0"/>
        <pt x="363" y="526" on="0"/>
        <pt x="390" y="501" on="0"/>
        <pt x="406" y="460" on="0"/>
        <pt x="406" y="429" on="1"/>
        <pt x="406" y="400" on="0"/>
        <pt x="380" y="355" on="0"/>
        <pt x="366" y="342" on="1"/>
        <pt x="430" y="205" on="1"/>
      </contour>
      <contour>
        <pt x="271" y="469" on="1"/>
        <pt x="271" y="392" on="1"/>
        <pt x="289" y="392" on="1"/>
        <pt x="313" y="392" on="0"/>
        <pt x="326" y="414" on="0"/>
        <pt x="326" y="431" on="1"/>
        <pt x="326" y="448" on="0"/>
        <pt x="314" y="469" on="0"/>
        <pt x="291" y="469" on="1"/>
      </contour>
    </TTGlyph>
    <TTGlyph name="ring" xMin="36" yMin="576" xMax="215" yMax="755">
      <contour>
        <pt x="125" y="576" on="1"/>
        <pt x="84" y="576" on="0"/>
        <pt x="36" y="629" on="0"/>
        <pt x="36" y="665" on="1"/>
        <pt x="36" y="701" on="0"/>
        <pt x="84" y="755" on="0"/>
        <pt x="125" y="755" on="1"/>
        <pt x="167" y="755" on="0"/>
        <pt x="215" y="701" on="0"/>
        <pt x="215" y="665" on="1"/>
        <pt x="215" y="629" on="0"/>
        <pt x="167" y="576" on="0"/>
      </contour>
      <contour>
        <pt x="125" y="712" on="1"/>
        <pt x="110" y="712" on="0"/>
        <pt x="90" y="685" on="0"/>
        <pt x="90" y="665" on="1"/>
        <pt x="90" y="643" on="0"/>
        <pt x="109" y="618" on="0"/>
        <pt x="125" y="618" on="1"/>
        <pt x="142" y="618" on="0"/>
        <pt x="161" y="643" on="0"/>
        <pt x="161" y="665" on="1"/>
        <pt x="161" y="685" on="0"/>
        <pt x="141" y="712" on="0"/>
      </contour>
    </TTGlyph>
    <TTGlyph name="s" xMin="30" yMin="-10" xMax="345" yMax="506">
      <contour>
        <pt x="176" y="-10" on="1"/>
        <pt x="125" y="-10" on="0"/>
        <pt x="50" y="15" on="0"/>
        <pt x="30" y="29" on="1"/>
        <pt x="39" y="129" on="1"/>
        <pt x="49" y="121" on="0"/>
        <pt x="81" y="103" on="0"/>
        <pt x="117" y="88" on="0"/>
        <pt x="155" y="79" on="0"/>
        <pt x="172" y="79" on="1"/>
        <pt x="211" y="79" on="0"/>
        <pt x="235" y="113" on="0"/>
        <pt x="235" y="136" on="1"/>
        <pt x="235" y="153" on="0"/>
        <pt x="223" y="176" on="0"/>
        <pt x="202" y="193" on="0"/>
        <pt x="173" y="205" on="0"/>
        <pt x="157" y="210" on="1"/>
        <pt x="134" y="217" on="0"/>
        <pt x="90" y="236" on="0"/>
        <pt x="56" y="266" on="0"/>
        <pt x="34" y="314" on="0"/>
        <pt x="34" y="350" on="1"/>
        <pt x="34" y="377" on="0"/>
        <pt x="49" y="432" on="0"/>
        <pt x="85" y="477" on="0"/>
        <pt x="146" y="506" on="0"/>
        <pt x="191" y="506" on="1"/>
        <pt x="212" y="506" on="0"/>
        <pt x="254" y="500" on="0"/>
        <pt x="291" y="489" on="0"/>
        <pt x="320" y="476" on="0"/>
        <pt x="329" y="470" on="1"/>
        <pt x="319" y="372" on="1"/>
        <pt x="303" y="390" on="0"/>
        <pt x="235" y="422" on="0"/>
        <pt x="200" y="422" on="1"/>
        <pt x="173" y="422" on="0"/>
        <pt x="130" y="396" on="0"/>
        <pt x="130" y="364" on="1"/>
        <pt x="130" y="346" on="0"/>
        <pt x="145" y="322" on="0"/>
        <pt x="172" y="306" on="0"/>
        <pt x="208" y="295" on="0"/>
        <pt x="228" y="289" on="1"/>
        <pt x="250" y="283" on="0"/>
        <pt x="293" y="262" on="0"/>
        <pt x="325" y="228" on="0"/>
        <pt x="345" y="175" on="0"/>
        <pt x="345" y="137" on="1"/>
        <pt x="345" y="113" on="0"/>
        <pt x="334" y="62" on="0"/>
        <pt x="299" y="18" on="0"/>
        <pt x="232" y="-10" on="0"/>
      </contour>
    </TTGlyph>
    <TTGlyph name="scaron" xMin="30" yMin="-10" xMax="345" yMax="747">
      <component glyphName="s" x="0" y="0" flags="0x204"/>
      <component glyphName="caron" x="-7" y="0" flags="0x4"/>
    </TTGlyph>
    <TTGlyph name="section" xMin="32" yMin="-85" xMax="361" yMax="750">
      <contour>
        <pt x="288" y="187" on="1"/>
        <pt x="305" y="164" on="0"/>
        <pt x="324" y="113" on="0"/>
        <pt x="324" y="78" on="1"/>
        <pt x="324" y="51" on="0"/>
        <pt x="310" y="-7" on="0"/>
        <pt x="277" y="-55" on="0"/>
        <pt x="219" y="-85" on="0"/>
        <pt x="176" y="-85" on="1"/>
        <pt x="158" y="-85" on="0"/>
        <pt x="121" y="-78" on="0"/>
        <pt x="87" y="-67" on="0"/>
        <pt x="60" y="-52" on="0"/>
        <pt x="53" y="-44" on="1"/>
        <pt x="61" y="48" on="1"/>
        <pt x="85" y="28" on="0"/>
        <pt x="147" y="0" on="0"/>
        <pt x="172" y="0" on="1"/>
        <pt x="186" y="0" on="0"/>
        <pt x="213" y="7" on="0"/>
        <pt x="235" y="22" on="0"/>
        <pt x="248" y="47" on="0"/>
        <pt x="248" y="66" on="1"/>
        <pt x="248" y="96" on="0"/>
        <pt x="216" y="131" on="0"/>
        <pt x="168" y="156" on="0"/>
        <pt x="112" y="179" on="0"/>
        <pt x="64" y="218" on="0"/>
        <pt x="32" y="280" on="0"/>
        <pt x="32" y="331" on="1"/>
        <pt x="32" y="349" on="0"/>
        <pt x="37" y="392" on="0"/>
        <pt x="52" y="432" on="0"/>
        <pt x="80" y="468" on="0"/>
        <pt x="103" y="479" on="1"/>
        <pt x="86" y="501" on="0"/>
        <pt x="68" y="552" on="0"/>
        <pt x="68" y="584" on="1"/>
        <pt x="68" y="613" on="0"/>
        <pt x="82" y="672" on="0"/>
        <pt x="116" y="720" on="0"/>
        <pt x="173" y="750" on="0"/>
        <pt x="217" y="750" on="1"/>
        <pt x="234" y="750" on="0"/>
        <pt x="272" y="743" on="0"/>
        <pt x="305" y="731" on="0"/>
        <pt x="332" y="716" on="0"/>
        <pt x="339" y="709" on="1"/>
        <pt x="332" y="617" on="1"/>
        <pt x="308" y="637" on="0"/>
        <pt x="246" y="665" on="0"/>
        <pt x="221" y="665" on="1"/>
        <pt x="193" y="665" on="0"/>
        <pt x="144" y="633" on="0"/>
        <pt x="144" y="598" on="1"/>
        <pt x="144" y="569" on="0"/>
        <pt x="176" y="536" on="0"/>
        <pt x="224" y="510" on="0"/>
        <pt x="281" y="486" on="0"/>
        <pt x="329" y="446" on="0"/>
        <pt x="361" y="383" on="0"/>
        <pt x="361" y="332" on="1"/>
        <pt x="361" y="314" on="0"/>
        <pt x="356" y="273" on="0"/>
        <pt x="340" y="234" on="0"/>
        <pt x="311" y="199" on="0"/>
      </contour>
      <contour>
        <pt x="167" y="417" on="1"/>
        <pt x="152" y="417" on="0"/>
        <pt x="117" y="384" on="0"/>
        <pt x="117" y="350" on="1"/>
        <pt x="117" y="326" on="0"/>
        <pt x="140" y="289" on="0"/>
        <pt x="173" y="262" on="0"/>
        <pt x="211" y="244" on="0"/>
        <pt x="226" y="238" on="1"/>
        <pt x="232" y="239" on="0"/>
        <pt x="250" y="254" on="0"/>
        <pt x="267" y="275" on="0"/>
        <pt x="278" y="301" on="0"/>
        <pt x="278" y="315" on="1"/>
        <pt x="278" y="341" on="0"/>
        <pt x="256" y="376" on="0"/>
        <pt x="223" y="399" on="0"/>
        <pt x="184" y="412" on="0"/>
      </contour>
    </TTGlyph>
    <TTGlyph name="semicolon" xMin="46" yMin="-110" xMax="168" yMax="440">
      <contour>
        <pt x="47" y="324" on="1"/>
        <pt x="47" y="440" on="1"/>
        <pt x="168" y="440" on="1"/>
        <pt x="168" y="324" on="1"/>
      </contour>
      <contour>
        <pt x="69" y="-110" on="1"/>
        <pt x="46" y="-96" on="1"/>
        <pt x="75" y="-10" on="1"/>
        <pt x="47" y="0" on="1"/>
        <pt x="47" y="116" on="1"/>
        <pt x="156" y="116" on="1"/>
        <pt x="156" y="0" on="1"/>
      </contour>
    </TTGlyph>
    <TTGlyph name="seven" xMin="37" yMin="0" xMax="433" yMax="700">
      <contour>
        <pt x="183" y="0" on="1"/>
        <pt x="64" y="0" on="1"/>
        <pt x="268" y="588" on="1"/>
        <pt x="37" y="588" on="1"/>
        <pt x="37" y="700" on="1"/>
        <pt x="433" y="700" on="1"/>
      </contour>
    </TTGlyph>
    <TTGlyph name="six" xMin="50" yMin="-14" xMax="447" yMax="700">
      <contour>
        <pt x="237" y="-14" on="1"/>
        <pt x="198" y="-14" on="0"/>
        <pt x="130" y="16" on="0"/>
        <pt x="79" y="80" on="0"/>
        <pt x="50" y="179" on="0"/>
        <pt x="50" y="247" on="1"/>
        <pt x="50" y="341" on="0"/>
        <pt x="109" y="505" on="0"/>
        <pt x="192" y="628" on="0"/>
        <pt x="279" y="700" on="0"/>
        <pt x="308" y="700" on="1"/>
        <pt x="382" y="654" on="1"/>
        <pt x="365" y="646" on="0"/>
        <pt x="298" y="593" on="0"/>
        <pt x="228" y="517" on="0"/>
        <pt x="173" y="423" on="0"/>
        <pt x="169" y="374" on="1"/>
        <pt x="178" y="388" on="0"/>
        <pt x="203" y="406" on="0"/>
        <pt x="230" y="417" on="0"/>
        <pt x="257" y="421" on="0"/>
        <pt x="266" y="421" on="1"/>
        <pt x="303" y="421" on="0"/>
        <pt x="369" y="395" on="0"/>
        <pt x="419" y="344" on="0"/>
        <pt x="447" y="268" on="0"/>
        <pt x="447" y="219" on="1"/>
        <pt x="447" y="171" on="0"/>
        <pt x="418" y="86" on="0"/>
        <pt x="364" y="23" on="0"/>
        <pt x="286" y="-14" on="0"/>
      </contour>
      <contour>
        <pt x="259" y="324" on="1"/>
        <pt x="217" y="324" on="0"/>
        <pt x="159" y="262" on="0"/>
        <pt x="159" y="202" on="1"/>
        <pt x="159" y="175" on="0"/>
        <pt x="176" y="133" on="0"/>
        <pt x="203" y="105" on="0"/>
        <pt x="234" y="90" on="0"/>
        <pt x="249" y="90" on="1"/>
        <pt x="271" y="90" on="0"/>
        <pt x="306" y="110" on="0"/>
        <pt x="331" y="145" on="0"/>
        <pt x="344" y="192" on="0"/>
        <pt x="344" y="219" on="1"/>
        <pt x="344" y="239" on="0"/>
        <pt x="335" y="277" on="0"/>
        <pt x="314" y="306" on="0"/>
        <pt x="282" y="324" on="0"/>
      </contour>
    </TTGlyph>
    <TTGlyph name="slash" xMin="16" yMin="-85" xMax="447" yMax="700">
      <contour>
        <pt x="135" y="-85" on="1"/>
        <pt x="16" y="-85" on="1"/>
        <pt x="328" y="700" on="1"/>
        <pt x="447" y="700" on="1"/>
      </contour>
    </TTGlyph>
    <TTGlyph name="sterling" xMin="22" yMin="0" xMax="428" yMax="708">
      <contour>
        <pt x="360" y="557" on="1"/>
        <pt x="350" y="587" on="0"/>
        <pt x="324" y="613" on="0"/>
        <pt x="297" y="613" on="1"/>
        <pt x="275" y="613" on="0"/>
        <pt x="250" y="597" on="0"/>
        <pt x="238" y="564" on="0"/>
        <pt x="236" y="515" on="0"/>
        <pt x="236" y="482" on="1"/>
        <pt x="236" y="403" on="1"/>
        <pt x="394" y="403" on="1"/>
        <pt x="373" y="305" on="1"/>
        <pt x="231" y="305" on="1"/>
        <pt x="230" y="274" on="0"/>
        <pt x="226" y="227" on="0"/>
        <pt x="219" y="185" on="0"/>
        <pt x="208" y="140" on="0"/>
        <pt x="199" y="112" on="1"/>
        <pt x="397" y="112" on="1"/>
        <pt x="397" y="0" on="1"/>
        <pt x="22" y="0" on="1"/>
        <pt x="73" y="70" on="0"/>
        <pt x="117" y="215" on="0"/>
        <pt x="124" y="305" on="1"/>
        <pt x="48" y="305" on="1"/>
        <pt x="70" y="403" on="1"/>
        <pt x="129" y="403" on="1"/>
        <pt x="129" y="503" on="1"/>
        <pt x="129" y="541" on="0"/>
        <pt x="140" y="614" on="0"/>
        <pt x="174" y="672" on="0"/>
        <pt x="236" y="708" on="0"/>
        <pt x="286" y="708" on="1"/>
        <pt x="335" y="708" on="0"/>
        <pt x="417" y="663" on="0"/>
        <pt x="428" y="617" on="1"/>
      </contour>
    </TTGlyph>
    <TTGlyph name="t" xMin="16" yMin="-10" xMax="279" yMax="622">
      <contour>
        <pt x="269" y="-10" on="1"/>
        <pt x="192" y="-10" on="1"/>
        <pt x="161" y="-10" on="0"/>
        <pt x="117" y="12" on="0"/>
        <pt x="89" y="48" on="0"/>
        <pt x="76" y="93" on="0"/>
        <pt x="76" y="117" on="1"/>
        <pt x="76" y="405" on="1"/>
        <pt x="16" y="405" on="1"/>
        <pt x="26" y="497" on="1"/>
        <pt x="76" y="497" on="1"/>
        <pt x="76" y="610" on="1"/>
        <pt x="186" y="622" on="1"/>
        <pt x="186" y="497" on="1"/>
        <pt x="279" y="497" on="1"/>
        <pt x="279" y="405" on="1"/>
        <pt x="186" y="405" on="1"/>
        <pt x="186" y="169" on="1"/>
        <pt x="186" y="138" on="0"/>
        <pt x="189" y="104" on="0"/>
        <pt x="202" y="87" on="0"/>
        <pt x="227" y="83" on="0"/>
        <pt x="249" y="83" on="1"/>
        <pt x="279" y="83" on="1"/>
      </contour>
    </TTGlyph>
    <TTGlyph name="thorn" xMin="50" yMin="-242" xMax="468" yMax="750">
      <contour>
        <pt x="257" y="-10" on="1"/>
        <pt x="225" y="-10" on="0"/>
        <pt x="182" y="12" on="0"/>
        <pt x="160" y="34" on="1"/>
        <pt x="160" y="-242" on="1"/>
        <pt x="50" y="-242" on="1"/>
        <pt x="50" y="750" on="1"/>
        <pt x="160" y="750" on="1"/>
        <pt x="160" y="463" on="1"/>
        <pt x="180" y="484" on="0"/>
        <pt x="224" y="506" on="0"/>
        <pt x="257" y="506" on="1"/>
        <pt x="309" y="506" on="0"/>
        <pt x="388" y="464" on="0"/>
        <pt x="441" y="394" on="0"/>
        <pt x="468" y="300" on="0"/>
        <pt x="468" y="248" on="1"/>
        <pt x="468" y="196" on="0"/>
        <pt x="441" y="102" on="0"/>
        <pt x="388" y="32" on="0"/>
        <pt x="309" y="-10" on="0"/>
      </contour>
      <contour>
        <pt x="250" y="410" on="1"/>
        <pt x="201" y="410" on="0"/>
        <pt x="155" y="319" on="0"/>
        <pt x="155" y="248" on="1"/>
        <pt x="155" y="176" on="0"/>
        <pt x="201" y="83" on="0"/>
        <pt x="250" y="83" on="1"/>
        <pt x="300" y="83" on="0"/>
        <pt x="355" y="175" on="0"/>
        <pt x="355" y="248" on="1"/>
        <pt x="355" y="320" on="0"/>
        <pt x="300" y="410" on="0"/>
      </contour>
    </TTGlyph>
    <TTGlyph name="three" xMin="32" yMin="-14" xMax="414" yMax="714">
      <contour>
        <pt x="194" y="-14" on="1"/>
        <pt x="165" y="-14" on="0"/>
        <pt x="111" y="-2" on="0"/>
        <pt x="67" y="15" on="0"/>
        <pt x="36" y="34" on="0"/>
        <pt x="32" y="40" on="1"/>
        <pt x="60" y="148" on="1"/>
        <pt x="68" y="137" on="0"/>
        <pt x="96" y="118" on="0"/>
        <pt x="131" y="105" on="0"/>
        <pt x="170" y="97" on="0"/>
        <pt x="188" y="97" on="1"/>
        <pt x="211" y="97" on="0"/>
        <pt x="253" y="108" on="0"/>
        <pt x="284" y="134" on="0"/>
        <pt x="303" y="179" on="0"/>
        <pt x="303" y="212" on="1"/>
        <pt x="303" y="236" on="0"/>
        <pt x="295" y="280" on="0"/>
        <pt x="271" y="315" on="0"/>
        <pt x="230" y="335" on="0"/>
        <pt x="197" y="335" on="1"/>
        <pt x="118" y="335" on="1"/>
        <pt x="127" y="427" on="1"/>
        <pt x="168" y="427" on="1"/>
        <pt x="200" y="427" on="0"/>
        <pt x="243" y="442" on="0"/>
        <pt x="268" y="469" on="0"/>
        <pt x="279" y="505" on="0"/>
        <pt x="279" y="526" on="1"/>
        <pt x="279" y="568" on="0"/>
        <pt x="239" y="613" on="0"/>
        <pt x="191" y="613" on="1"/>
        <pt x="164" y="613" on="0"/>
        <pt x="104" y="594" on="0"/>
        <pt x="87" y="577" on="1"/>
        <pt x="70" y="668" on="1"/>
        <pt x="77" y="675" on="0"/>
        <pt x="103" y="691" on="0"/>
        <pt x="138" y="705" on="0"/>
        <pt x="181" y="714" on="0"/>
        <pt x="205" y="714" on="1"/>
        <pt x="263" y="714" on="0"/>
        <pt x="337" y="678" on="0"/>
        <pt x="377" y="623" on="0"/>
        <pt x="392" y="558" on="0"/>
        <pt x="392" y="530" on="1"/>
        <pt x="392" y="485" on="0"/>
        <pt x="363" y="416" on="0"/>
        <pt x="337" y="388" on="1"/>
        <pt x="373" y="362" on="0"/>
        <pt x="414" y="273" on="0"/>
        <pt x="414" y="216" on="1"/>
        <pt x="414" y="158" on="0"/>
        <pt x="376" y="71" on="0"/>
        <pt x="315" y="14" on="0"/>
        <pt x="236" y="-14" on="0"/>
      </contour>
    </TTGlyph>
    <TTGlyph name="threequarters" xMin="86" yMin="-85" xMax="809" yMax="706">
      <component glyphName="threesuperior" x="42" y="0" flags="0x4"/>
      <component glyphName="slash" x="235" y="0" flags="0x4"/>
      <component glyphName="uni2074" x="512" y="-319" flags="0x4"/>
    </TTGlyph>
    <TTGlyph name="threesuperior" xMin="44" yMin="312" xMax="266" yMax="706">
      <contour>
        <pt x="139" y="312" on="1"/>
        <pt x="122" y="312" on="0"/>
        <pt x="90" y="319" on="0"/>
        <pt x="64" y="328" on="0"/>
        <pt x="46" y="338" on="0"/>
        <pt x="44" y="342" on="1"/>
        <pt x="65" y="425" on="1"/>
        <pt x="66" y="420" on="0"/>
        <pt x="80" y="412" on="0"/>
        <pt x="100" y="405" on="0"/>
        <pt x="122" y="401" on="0"/>
        <pt x="132" y="401" on="1"/>
        <pt x="160" y="401" on="0"/>
        <pt x="187" y="431" on="0"/>
        <pt x="187" y="449" on="1"/>
        <pt x="187" y="466" on="0"/>
        <pt x="168" y="492" on="0"/>
        <pt x="151" y="492" on="1"/>
        <pt x="93" y="492" on="1"/>
        <pt x="99" y="559" on="1"/>
        <pt x="129" y="559" on="1"/>
        <pt x="155" y="559" on="0"/>
        <pt x="170" y="585" on="0"/>
        <pt x="170" y="596" on="1"/>
        <pt x="170" y="616" on="0"/>
        <pt x="143" y="635" on="0"/>
        <pt x="124" y="635" on="1"/>
        <pt x="112" y="635" on="0"/>
        <pt x="87" y="628" on="0"/>
        <pt x="78" y="620" on="1"/>
        <pt x="66" y="681" on="1"/>
        <pt x="78" y="692" on="0"/>
        <pt x="121" y="706" on="0"/>
        <pt x="147" y="706" on="1"/>
        <pt x="175" y="706" on="0"/>
        <pt x="215" y="688" on="0"/>
        <pt x="241" y="659" on="0"/>
        <pt x="253" y="621" on="0"/>
        <pt x="253" y="601" on="1"/>
        <pt x="253" y="573" on="0"/>
        <pt x="236" y="535" on="0"/>
        <pt x="228" y="530" on="1"/>
        <pt x="248" y="519" on="0"/>
        <pt x="266" y="474" on="0"/>
        <pt x="266" y="444" on="1"/>
        <pt x="266" y="409" on="0"/>
        <pt x="243" y="359" on="0"/>
        <pt x="207" y="327" on="0"/>
        <pt x="162" y="312" on="0"/>
      </contour>
    </TTGlyph>
    <TTGlyph name="tilde" xMin="63" yMin="596" xMax="390" yMax="715">
      <contour>
        <pt x="287" y="599" on="1"/>
        <pt x="269" y="599" on="0"/>
        <pt x="240" y="613" on="0"/>
        <pt x="214" y="630" on="0"/>
        <pt x="191" y="644" on="0"/>
        <pt x="179" y="644" on="1"/>
        <pt x="160" y="644" on="0"/>
        <pt x="142" y="613" on="0"/>
        <pt x="140" y="596" on="1"/>
        <pt x="63" y="613" on="1"/>
        <pt x="65" y="638" on="0"/>
        <pt x="86" y="675" on="0"/>
        <pt x="117" y="699" on="0"/>
        <pt x="155" y="711" on="0"/>
        <pt x="173" y="711" on="1"/>
        <pt x="193" y="711" on="0"/>
        <pt x="219" y="697" on="0"/>
        <pt x="240" y="681" on="0"/>
        <pt x="260" y="667" on="0"/>
        <pt x="272" y="667" on="1"/>
        <pt x="292" y="667" on="0"/>
        <pt x="318" y="697" on="0"/>
        <pt x="320" y="715" on="1"/>
        <pt x="390" y="699" on="1"/>
        <pt x="385" y="659" on="0"/>
        <pt x="332" y="599" on="0"/>
      </contour>
    </TTGlyph>
    <TTGlyph name="trademark" xMin="29" yMin="337" xMax="593" yMax="700">
      <contour>
        <pt x="423" y="431" on="1"/>
        <pt x="361" y="567" on="1"/>
        <pt x="338" y="337" on="1"/>
        <pt x="264" y="337" on="1"/>
        <pt x="307" y="700" on="1"/>
        <pt x="352" y="700" on="1"/>
        <pt x="429" y="542" on="1"/>
        <pt x="504" y="700" on="1"/>
        <pt x="551" y="700" on="1"/>
        <pt x="593" y="337" on="1"/>
        <pt x="519" y="337" on="1"/>
        <pt x="497" y="566" on="1"/>
        <pt x="433" y="431" on="1"/>
      </contour>
      <contour>
        <pt x="264" y="631" on="1"/>
        <pt x="183" y="631" on="1"/>
        <pt x="183" y="337" on="1"/>
        <pt x="112" y="337" on="1"/>
        <pt x="112" y="631" on="1"/>
        <pt x="29" y="631" on="1"/>
        <pt x="29" y="700" on="1"/>
        <pt x="273" y="700" on="1"/>
      </contour>
    </TTGlyph>
    <TTGlyph name="two" xMin="37" yMin="0" xMax="406" yMax="714">
      <contour>
        <pt x="37" y="0" on="1"/>
        <pt x="92" y="94" on="0"/>
        <pt x="171" y="235" on="0"/>
        <pt x="225" y="339" on="0"/>
        <pt x="257" y="412" on="0"/>
        <pt x="273" y="463" on="0"/>
        <pt x="278" y="496" on="0"/>
        <pt x="278" y="509" on="1"/>
        <pt x="278" y="559" on="0"/>
        <pt x="236" y="613" on="0"/>
        <pt x="197" y="613" on="1"/>
        <pt x="169" y="613" on="0"/>
        <pt x="123" y="590" on="0"/>
        <pt x="89" y="558" on="0"/>
        <pt x="65" y="523" on="0"/>
        <pt x="59" y="510" on="1"/>
        <pt x="45" y="616" on="1"/>
        <pt x="51" y="627" on="0"/>
        <pt x="80" y="661" on="0"/>
        <pt x="124" y="692" on="0"/>
        <pt x="183" y="714" on="0"/>
        <pt x="220" y="714" on="1"/>
        <pt x="268" y="714" on="0"/>
        <pt x="331" y="679" on="0"/>
        <pt x="369" y="624" on="0"/>
        <pt x="385" y="557" on="0"/>
        <pt x="385" y="525" on="1"/>
        <pt x="385" y="490" on="0"/>
        <pt x="368" y="410" on="0"/>
        <pt x="330" y="311" on="0"/>
        <pt x="272" y="189" on="0"/>
        <pt x="231" y="112" on="1"/>
        <pt x="406" y="112" on="1"/>
        <pt x="406" y="0" on="1"/>
      </contour>
    </TTGlyph>
    <TTGlyph name="twosuperior" xMin="38" yMin="320" xMax="262" yMax="706">
      <contour>
        <pt x="38" y="320" on="1"/>
        <pt x="85" y="396" on="0"/>
        <pt x="139" y="492" on="0"/>
        <pt x="165" y="551" on="0"/>
        <pt x="171" y="581" on="0"/>
        <pt x="171" y="591" on="1"/>
        <pt x="171" y="611" on="0"/>
        <pt x="159" y="637" on="0"/>
        <pt x="142" y="637" on="1"/>
        <pt x="125" y="637" on="0"/>
        <pt x="98" y="620" on="0"/>
        <pt x="78" y="597" on="0"/>
        <pt x="65" y="575" on="0"/>
        <pt x="63" y="570" on="1"/>
        <pt x="53" y="651" on="1"/>
        <pt x="64" y="671" on="0"/>
        <pt x="118" y="706" on="0"/>
        <pt x="157" y="706" on="1"/>
        <pt x="184" y="706" on="0"/>
        <pt x="221" y="687" on="0"/>
        <pt x="242" y="657" on="0"/>
        <pt x="251" y="622" on="0"/>
        <pt x="251" y="606" on="1"/>
        <pt x="251" y="570" on="0"/>
        <pt x="218" y="478" on="0"/>
        <pt x="184" y="410" on="1"/>
        <pt x="262" y="410" on="1"/>
        <pt x="262" y="320" on="1"/>
      </contour>
    </TTGlyph>
    <TTGlyph name="u" xMin="46" yMin="-10" xMax="429" yMax="497">
      <contour>
        <pt x="326" y="0" on="1"/>
        <pt x="324" y="37" on="1"/>
        <pt x="306" y="16" on="0"/>
        <pt x="255" y="-10" on="0"/>
        <pt x="232" y="-10" on="1"/>
        <pt x="180" y="-10" on="0"/>
        <pt x="109" y="23" on="0"/>
        <pt x="65" y="83" on="0"/>
        <pt x="46" y="169" on="0"/>
        <pt x="46" y="223" on="1"/>
        <pt x="46" y="497" on="1"/>
        <pt x="156" y="497" on="1"/>
        <pt x="156" y="231" on="1"/>
        <pt x="156" y="158" on="0"/>
        <pt x="195" y="87" on="0"/>
        <pt x="240" y="87" on="1"/>
        <pt x="266" y="87" on="0"/>
        <pt x="304" y="110" on="0"/>
        <pt x="319" y="133" on="1"/>
        <pt x="319" y="497" on="1"/>
        <pt x="429" y="497" on="1"/>
        <pt x="429" y="0" on="1"/>
      </contour>
    </TTGlyph>
    <TTGlyph name="uacute" xMin="46" yMin="-10" xMax="429" yMax="744">
      <component glyphName="u" x="0" y="0" flags="0x204"/>
      <component glyphName="acute" x="107" y="0" flags="0x4"/>
    </TTGlyph>
    <TTGlyph name="ucircumflex" xMin="46" yMin="-10" xMax="429" yMax="748">
      <component glyphName="u" x="0" y="0" flags="0x204"/>
      <component glyphName="circumflex" x="46" y="0" flags="0x4"/>
    </TTGlyph>
    <TTGlyph name="udieresis" xMin="46" yMin="-10" xMax="429" yMax="700">
      <component glyphName="u" x="0" y="0" flags="0x204"/>
      <component glyphName="dieresis" x="56" y="0" flags="0x4"/>
    </TTGlyph>
    <TTGlyph name="ugrave" xMin="46" yMin="-10" xMax="429" yMax="744">
      <component glyphName="u" x="0" y="0" flags="0x204"/>
      <component glyphName="grave" x="107" y="0" flags="0x4"/>
    </TTGlyph>
    <TTGlyph name="underscore" xMin="-1" yMin="-128" xMax="481" yMax="-36">
      <contour>
        <pt x="-1" y="-128" on="1"/>
        <pt x="-1" y="-36" on="1"/>
        <pt x="481" y="-36" on="1"/>
        <pt x="481" y="-128" on="1"/>
      </contour>
    </TTGlyph>
    <TTGlyph name="uni00AD" xMin="58" yMin="230" xMax="325" yMax="324">
      <contour>
        <pt x="58" y="230" on="1"/>
        <pt x="58" y="324" on="1"/>
        <pt x="325" y="324" on="1"/>
        <pt x="325" y="230" on="1"/>
      </contour>
    </TTGlyph>
    <TTGlyph name="uni0237" xMin="-2" yMin="-242" xMax="158" yMax="497">
      <contour>
        <pt x="8" y="-242" on="1"/>
        <pt x="-2" y="-150" on="1"/>
        <pt x="15" y="-149" on="0"/>
        <pt x="35" y="-144" on="0"/>
        <pt x="45" y="-127" on="0"/>
        <pt x="48" y="-94" on="0"/>
        <pt x="48" y="-64" on="1"/>
        <pt x="48" y="497" on="1"/>
        <pt x="158" y="497" on="1"/>
        <pt x="158" y="-110" on="1"/>
        <pt x="158" y="-170" on="0"/>
        <pt x="108" y="-238" on="0"/>
        <pt x="48" y="-240" on="1"/>
      </contour>
    </TTGlyph>
    <TTGlyph name="uni2070" xMin="55" yMin="312" xMax="348" yMax="706">
      <contour>
        <pt x="199" y="312" on="1"/>
        <pt x="166" y="312" on="0"/>
        <pt x="113" y="340" on="0"/>
        <pt x="75" y="391" on="0"/>
        <pt x="55" y="462" on="0"/>
        <pt x="55" y="504" on="1"/>
        <pt x="55" y="548" on="0"/>
        <pt x="78" y="622" on="0"/>
        <pt x="118" y="676" on="0"/>
        <pt x="173" y="706" on="0"/>
        <pt x="205" y="706" on="1"/>
        <pt x="236" y="706" on="0"/>
        <pt x="289" y="677" on="0"/>
        <pt x="327" y="625" on="0"/>
        <pt x="348" y="553" on="0"/>
        <pt x="348" y="511" on="1"/>
        <pt x="348" y="467" on="0"/>
        <pt x="327" y="394" on="0"/>
        <pt x="289" y="342" on="0"/>
        <pt x="233" y="312" on="0"/>
      </contour>
      <contour>
        <pt x="204" y="628" on="1"/>
        <pt x="193" y="628" on="0"/>
        <pt x="170" y="614" on="0"/>
        <pt x="151" y="584" on="0"/>
        <pt x="139" y="537" on="0"/>
        <pt x="139" y="504" on="1"/>
        <pt x="139" y="442" on="0"/>
        <pt x="176" y="392" on="0"/>
        <pt x="199" y="392" on="1"/>
        <pt x="225" y="392" on="0"/>
        <pt x="266" y="444" on="0"/>
        <pt x="266" y="511" on="1"/>
        <pt x="266" y="542" on="0"/>
        <pt x="254" y="586" on="0"/>
        <pt x="236" y="614" on="0"/>
        <pt x="214" y="628" on="0"/>
      </contour>
    </TTGlyph>
    <TTGlyph name="uni2074" xMin="20" yMin="320" xMax="297" yMax="698">
      <contour>
        <pt x="255" y="423" on="1"/>
        <pt x="255" y="320" on="1"/>
        <pt x="171" y="320" on="1"/>
        <pt x="171" y="423" on="1"/>
        <pt x="20" y="423" on="1"/>
        <pt x="181" y="698" on="1"/>
        <pt x="255" y="698" on="1"/>
        <pt x="255" y="490" on="1"/>
        <pt x="297" y="490" on="1"/>
        <pt x="297" y="423" on="1"/>
      </contour>
      <contour>
        <pt x="171" y="576" on="1"/>
        <pt x="126" y="490" on="1"/>
        <pt x="171" y="490" on="1"/>
      </contour>
    </TTGlyph>
    <TTGlyph name="uni2075" xMin="49" yMin="314" xMax="268" yMax="698">
      <contour>
        <pt x="151" y="314" on="1"/>
        <pt x="128" y="314" on="0"/>
        <pt x="91" y="324" on="0"/>
        <pt x="64" y="337" on="0"/>
        <pt x="49" y="350" on="0"/>
        <pt x="49" y="354" on="1"/>
        <pt x="69" y="433" on="1"/>
        <pt x="75" y="420" on="0"/>
        <pt x="116" y="399" on="0"/>
        <pt x="148" y="399" on="1"/>
        <pt x="154" y="399" on="0"/>
        <pt x="169" y="401" on="0"/>
        <pt x="182" y="409" on="0"/>
        <pt x="191" y="425" on="0"/>
        <pt x="191" y="439" on="1"/>
        <pt x="191" y="444" on="0"/>
        <pt x="189" y="460" on="0"/>
        <pt x="178" y="475" on="0"/>
        <pt x="156" y="485" on="0"/>
        <pt x="136" y="485" on="1"/>
        <pt x="66" y="485" on="1"/>
        <pt x="90" y="698" on="1"/>
        <pt x="251" y="698" on="1"/>
        <pt x="243" y="608" on="1"/>
        <pt x="153" y="608" on="1"/>
        <pt x="147" y="556" on="1"/>
        <pt x="205" y="555" on="0"/>
        <pt x="268" y="502" on="0"/>
        <pt x="268" y="442" on="1"/>
        <pt x="268" y="406" on="0"/>
        <pt x="247" y="357" on="0"/>
        <pt x="214" y="327" on="0"/>
        <pt x="172" y="314" on="0"/>
      </contour>
    </TTGlyph>
</ttFont>
